<svg width="84" height="84" viewBox="0 0 84 84" fill="none" xmlns="http://www.w3.org/2000/svg">
<g clip-path="url(#clip0)">
<path d="M76.9999 17.5002H59.5001V14.0001C59.5001 10.1395 56.3607 7 52.5 7H31.5C27.6394 7 24.4999 10.1393 24.4999 14.0001V17.5H7.00005C3.13934 17.5002 0 20.6395 0 24.5001V35.0001C0 38.8608 3.13934 42.0001 7.00005 42.0001H35.0001V40.2501C35.0001 39.2828 35.7829 38.5 36.7502 38.5H47.2502C48.2175 38.5 49.0002 39.2828 49.0002 40.2501V42.0001H77.0003C80.8607 42.0001 84 38.8608 84 35.0001V24.5001C84 20.6395 80.8607 17.5002 76.9999 17.5002ZM52.5 17.5002H31.5V14.0001H52.5V17.5002Z" fill="#E3B002"/>
<path d="M83.0292 43.8884C82.4329 43.5928 81.7202 43.6612 81.1937 44.061C79.9496 45.0027 78.5003 45.5 76.9998 45.5H49.0001V50.75C49.0001 51.7173 48.2173 52.5001 47.25 52.5001H36.75C35.7827 52.5001 34.9999 51.7173 34.9999 50.75V45.5H7.00005C5.49954 45.5 4.05037 45.0027 2.80612 44.061C2.27801 43.6578 1.56712 43.5893 0.970594 43.8884C0.376031 44.1842 0 44.7908 0 45.4557V70.0001C0 73.8607 3.13934 77.0002 7.00005 77.0002H77.0001C80.8607 77.0002 84.0002 73.8609 84.0002 70.0001V45.4557C84 44.7908 83.624 44.1842 83.0292 43.8884Z" fill="#E3B002"/>
</g>
<defs>
<clipPath id="clip0">
<rect width="84" height="84" fill="white"/>
</clipPath>
</defs>
</svg>
