<svg width="620" height="87" viewBox="0 0 620 87" fill="none" xmlns="http://www.w3.org/2000/svg">
<path d="M75.3587 31.1172C73.0511 11.9688 58.5582 0.957383 39.3693 0.957383C17.468 0.957383 0.74858 16.4219 0.74858 43.5455C0.74858 70.5881 17.1847 86.1335 39.3693 86.1335C60.6229 86.1335 73.456 72.005 75.3587 56.7429L57.6271 56.6619C55.9673 65.5277 49.0043 70.6286 39.6527 70.6286C27.0625 70.6286 18.5206 61.277 18.5206 43.5455C18.5206 26.2997 26.9411 16.4624 39.7741 16.4624C49.3686 16.4624 56.2912 22.0085 57.6271 31.1172H75.3587ZM87.9286 85H105.458V50.7514H141.042V85H158.531V2.09091H141.042V36.299H105.458V2.09091H87.9286V85ZM187.274 85L193.427 66.0945H223.344L229.498 85H248.282L219.701 2.09091H197.111L168.49 85H187.274ZM197.88 52.4112L208.082 21.0369H208.73L218.931 52.4112H197.88ZM258.261 85H275.79V55.6094H288.582L304.29 85H323.641L306.031 52.7756C315.463 48.7273 320.685 40.5092 320.685 29.174C320.685 12.6974 309.795 2.09091 290.971 2.09091H258.261V85ZM275.79 41.5213V16.4219H287.611C297.732 16.4219 302.63 20.9155 302.63 29.174C302.63 37.392 297.732 41.5213 287.692 41.5213H275.79ZM350.602 2.09091H333.073V85H350.602V2.09091ZM410.001 25.9354H426.801C426.558 11.1591 414.414 0.957383 395.953 0.957383C377.776 0.957383 364.458 10.9972 364.539 26.0568C364.498 38.2827 373.121 45.2862 387.128 48.6463L396.156 50.9134C405.183 53.0994 410.203 55.6903 410.244 61.277C410.203 67.3494 404.455 71.4787 395.548 71.4787C386.44 71.4787 379.882 67.2685 379.315 58.9695H362.352C362.798 76.9034 375.631 86.174 395.751 86.174C415.992 86.174 427.894 76.4986 427.935 61.3175C427.894 47.5128 417.49 40.1854 403.078 36.9467L395.629 35.1655C388.423 33.5057 382.392 30.8338 382.513 24.8828C382.513 19.5391 387.249 15.6122 395.832 15.6122C404.212 15.6122 409.353 19.4176 410.001 25.9354ZM439.725 2.09091V85H456.728V30.8338H457.417L478.873 84.5952H490.451L511.907 31.0362H512.595V85H529.598V2.09091H507.98L485.147 57.7955H484.176L461.343 2.09091H439.725ZM558.33 85L564.484 66.0945H594.401L600.554 85H619.338L590.757 2.09091H568.168L539.546 85H558.33ZM568.937 52.4112L579.139 21.0369H579.786L589.988 52.4112H568.937Z" fill="url(#paint0_linear)"/>
<defs>
<linearGradient id="paint0_linear" x1="309" y1="6.09919e-07" x2="309" y2="85" gradientUnits="userSpaceOnUse">
<stop stop-color="#E3B002"/>
<stop offset="1" stop-color="#DBD0A9" stop-opacity="0"/>
</linearGradient>
</defs>
</svg>
