<svg width="84" height="84" viewBox="0 0 84 84" fill="none" xmlns="http://www.w3.org/2000/svg">
<path d="M27.9999 37.6602H25.9699C23.1997 37.5601 20.4385 38.0303 17.8575 39.0418C15.2766 40.0533 12.9311 41.5844 10.9666 43.5402L10.4066 44.1935V63.5135H19.9266V52.5468L21.2099 51.1002L21.7933 50.4235C24.8311 47.3027 28.6131 45.0062 32.7833 43.7502C30.6954 42.1615 29.0487 40.065 27.9999 37.6602Z" fill="#E3B002"/>
<path d="M73.1267 43.4703C71.1621 41.5146 68.8166 39.9835 66.2357 38.972C63.6548 37.9605 60.8936 37.4902 58.1233 37.5903C57.2737 37.5928 56.4248 37.6395 55.58 37.7303C54.5115 39.9865 52.9099 41.9485 50.9133 43.447C55.3653 44.6787 59.3982 47.0984 62.58 50.447L63.1633 51.1003L64.4233 52.547V63.537H73.6167V44.1237L73.1267 43.4703Z" fill="#E3B002"/>
<path d="M25.9001 33.1095H26.6234C26.2873 30.2238 26.7937 27.3024 28.0813 24.6981C29.369 22.0938 31.383 19.9178 33.8801 18.4329C32.9749 17.05 31.7261 15.926 30.2559 15.1708C28.7858 14.4155 27.1448 14.0551 25.4935 14.1247C23.8422 14.1943 22.2372 14.6915 20.8358 15.5677C19.4345 16.4439 18.2847 17.6691 17.499 19.1232C16.7134 20.5773 16.3189 22.2105 16.3541 23.8629C16.3893 25.5153 16.8531 27.1302 17.6999 28.5495C18.5468 29.9688 19.7478 31.1439 21.1852 31.9596C22.6227 32.7753 24.2473 33.2037 25.9001 33.2029V33.1095Z" fill="#E3B002"/>
<path d="M57.0033 31.3601C57.0317 31.8964 57.0317 32.4338 57.0033 32.9701C57.4511 33.0411 57.9034 33.0801 58.3567 33.0868H58.8C60.4455 32.9991 62.0403 32.4867 63.429 31.5997C64.8177 30.7127 65.9531 29.4812 66.7246 28.0251C67.4961 26.5691 67.8775 24.938 67.8315 23.2908C67.7855 21.6436 67.3138 20.0364 66.4624 18.6256C65.6109 17.2148 64.4086 16.0486 62.9725 15.2404C61.5365 14.4322 59.9157 14.0096 58.2679 14.0137C56.62 14.0178 55.0014 14.4486 53.5694 15.264C52.1375 16.0794 50.9411 17.2517 50.0967 18.6668C52.2085 20.0457 53.9451 21.9272 55.1505 24.1426C56.356 26.358 56.9926 28.838 57.0033 31.3601Z" fill="#E3B002"/>
<path d="M41.6966 41.8136C47.4569 41.8136 52.1266 37.1439 52.1266 31.3836C52.1266 25.6233 47.4569 20.9536 41.6966 20.9536C35.9363 20.9536 31.2666 25.6233 31.2666 31.3836C31.2666 37.1439 35.9363 41.8136 41.6966 41.8136Z" fill="#E3B002"/>
<path d="M42.2566 47.3666C39.2094 47.2436 36.1687 47.7383 33.3177 48.821C30.4666 49.9037 27.8641 51.5519 25.6666 53.6666L25.0833 54.32V69.0899C25.0924 69.5711 25.1962 70.0456 25.3887 70.4866C25.5813 70.9276 25.8588 71.3263 26.2055 71.66C26.5522 71.9937 26.9612 72.2558 27.4093 72.4314C27.8573 72.607 28.3355 72.6926 28.8166 72.6833H55.6266C56.1077 72.6926 56.5859 72.607 57.0339 72.4314C57.4819 72.2558 57.891 71.9937 58.2377 71.66C58.5843 71.3263 58.8619 70.9276 59.0545 70.4866C59.247 70.0456 59.3508 69.5711 59.3599 69.0899V54.3666L58.7999 53.6666C56.6167 51.5454 54.0232 49.8925 51.1785 48.8092C48.3338 47.7259 45.2978 47.235 42.2566 47.3666Z" fill="#E3B002"/>
</svg>
