<svg width="84" height="84" viewBox="0 0 84 84" fill="none" xmlns="http://www.w3.org/2000/svg">
<g clip-path="url(#clip0)">
<path d="M42 16.8005C43.1034 16.8003 44.1959 16.5827 45.2152 16.1602C46.2345 15.7377 47.1606 15.1185 47.9406 14.3381C48.7206 13.5577 49.3393 12.6313 49.7613 11.6118C50.1833 10.5923 50.4003 9.49972 50.4 8.39634C50.3998 7.29296 50.1822 6.20044 49.7597 5.18115C49.3372 4.16187 48.718 3.23578 47.9376 2.45577C47.1572 1.67576 46.2308 1.0571 45.2113 0.635106C44.1918 0.213116 43.0992 -0.00393764 41.9958 -0.00366185C39.7675 -0.00310486 37.6306 0.882648 36.0553 2.45874C34.48 4.03483 33.5953 6.17216 33.5958 8.40054C33.5964 10.6289 34.4821 12.7658 36.0582 14.3411C37.6343 15.9164 39.7717 16.8011 42 16.8005ZM67.1076 48.6491C65.4906 41.1941 62.664 28.9595 58.5312 23.8943C54.5118 18.9677 46.4142 18.7619 42 18.7619C37.5858 18.7619 29.4882 18.9677 25.4688 23.8943C21.336 28.9595 18.5094 41.1941 16.8924 48.6491C15.9978 52.7777 21.7392 54.2939 23.2386 50.1401C25.4688 43.9535 27.1908 38.7581 30.9624 34.4489C32.9448 46.6583 25.6284 67.9061 25.2 79.8005C25.1993 80.7823 25.5426 81.7334 26.1702 82.4884C26.7978 83.2434 27.6701 83.7547 28.6356 83.9334C29.601 84.1121 30.5985 83.947 31.4548 83.4666C32.3111 82.9863 32.9721 82.2212 33.3228 81.3041C35.2422 74.6387 42 56.0915 42 56.0915C42 56.0915 48.7578 74.6387 50.6772 81.3041C51.028 82.2212 51.689 82.9863 52.5453 83.4666C53.4016 83.947 54.3991 84.1121 55.3645 83.9334C56.3299 83.7547 57.2022 83.2434 57.8299 82.4884C58.4575 81.7334 58.8008 80.7823 58.8 79.8005C58.3716 67.9061 51.0552 46.6583 53.0376 34.4531C56.8092 38.7623 58.5312 43.9577 60.7614 50.1443C62.2566 54.2939 68.0022 52.7777 67.1076 48.6491Z" fill="#EC1C24"/>
</g>
<defs>
<clipPath id="clip0">
<rect width="84" height="84" fill="white"/>
</clipPath>
</defs>
</svg>
