<svg width="84" height="84" viewBox="0 0 84 84" fill="none" xmlns="http://www.w3.org/2000/svg">
<path d="M44.9225 11.0672C45.1174 10.9194 45.2906 10.7451 45.437 10.5492H54.404L54.5265 10.5457C55.1619 10.5134 55.7986 10.5134 56.434 10.5457H56.567C58.5596 10.5413 60.528 10.9826 62.328 11.8372C65.6168 13.1269 68.4615 15.3418 70.518 18.2142C72.0748 20.389 73.1339 22.8797 73.6202 25.5097C74.1065 28.1397 74.0081 30.8445 73.332 33.4322L61.8485 22.1027C61.357 21.618 60.6943 21.3464 60.004 21.3467H43.3965C42.8246 21.3495 42.2688 21.536 41.811 21.8787L35.217 26.8767C34.8628 27.1469 34.4588 27.3447 34.0281 27.4586C33.5973 27.5725 33.1484 27.6004 32.7069 27.5405C32.2654 27.4807 31.8401 27.3344 31.4552 27.11C31.0703 26.8856 30.7335 26.5875 30.464 26.2327C30.1958 25.8839 29.9993 25.4854 29.8859 25.0603C29.7726 24.6351 29.7445 24.1917 29.8034 23.7557C29.8623 23.3196 30.007 22.8996 30.2291 22.5198C30.4512 22.1399 30.7463 21.8078 31.0975 21.5427L44.9225 11.0672Z" fill="#E3B002"/>
<path d="M27.643 49.8259L27.5975 49.8714L24.1885 53.2594L24.143 53.3014C23.546 53.869 22.7516 54.1821 21.9278 54.1743C21.104 54.1664 20.3156 53.8383 19.7295 53.2594C19.4367 52.9691 19.2043 52.6237 19.0457 52.2432C18.8871 51.8626 18.8054 51.4544 18.8054 51.0421C18.8054 50.6298 18.8871 50.2216 19.0457 49.8411C19.2043 49.4605 19.4367 49.1151 19.7295 48.8249L23.1385 45.4369C23.7323 44.8489 24.5342 44.519 25.3698 44.519C26.2054 44.519 27.0073 44.8489 27.601 45.4369C28.1842 46.0157 28.5156 46.8011 28.5235 47.6227C28.5314 48.4444 28.215 49.236 27.643 49.8259Z" fill="#E3B002"/>
<path d="M26.6279 55.7695C26.0564 56.3598 25.7407 57.1517 25.7492 57.9733C25.7577 58.7949 26.0898 59.5801 26.6734 60.1585C27.9054 61.3835 29.9004 61.3835 31.1359 60.1585L34.5449 56.774C34.876 56.4463 35.1296 56.0486 35.287 55.6102C35.4445 55.1717 35.5018 54.7036 35.4548 54.2401C35.4078 53.7767 35.2577 53.3296 35.0155 52.9316C34.7733 52.5337 34.445 52.1951 34.0549 51.9405C33.4569 51.547 32.7434 51.3674 32.0304 51.431C31.3174 51.4945 30.6469 51.7974 30.1279 52.2905L30.0824 52.3395L26.6734 55.724L26.6279 55.7695Z" fill="#E3B002"/>
<path d="M19.25 39.9281C19.5428 40.2183 19.7752 40.5637 19.9338 40.9443C20.0924 41.3248 20.1741 41.733 20.1741 42.1453C20.1741 42.5576 20.0924 42.9658 19.9338 43.3464C19.7752 43.727 19.5428 44.0723 19.25 44.3626L15.8445 47.7506C15.2506 48.3396 14.4479 48.6702 13.6115 48.6702C12.775 48.6702 11.9724 48.3396 11.3785 47.7506C11.0857 47.4603 10.8532 47.115 10.6946 46.7344C10.536 46.3538 10.4543 45.9456 10.4543 45.5333C10.4543 45.121 10.536 44.7128 10.6946 44.3323C10.8532 43.9517 11.0857 43.6063 11.3785 43.3161L14.791 39.9281C15.3847 39.3401 16.1866 39.0103 17.0222 39.0103C17.8578 39.0103 18.6597 39.3401 19.2535 39.9281H19.25Z" fill="#E3B002"/>
<path d="M41.4891 59.2377C41.7819 59.5279 42.0143 59.8733 42.1729 60.2538C42.3315 60.6344 42.4132 61.0426 42.4132 61.4549C42.4132 61.8672 42.3315 62.2754 42.1729 62.656C42.0143 63.0365 41.7819 63.3819 41.4891 63.6722L38.0801 67.0602C37.4881 67.6515 36.6856 67.9837 35.8488 67.9837C35.0121 67.9837 34.2096 67.6515 33.6176 67.0602C33.1527 66.5993 32.8444 66.0039 32.7364 65.3582C32.6284 64.7126 32.726 64.0493 33.0156 63.4622L33.0191 63.4552C33.1717 63.1477 33.3739 62.8675 33.6176 62.6257L37.0266 59.2377C37.6204 58.6497 38.4222 58.3198 39.2578 58.3198C40.0935 58.3198 40.8953 58.6497 41.4891 59.2377Z" fill="#E3B002"/>
<path d="M18.7039 16.9085C21.0278 14.5997 23.8459 12.8489 26.9453 11.7885C30.0448 10.7281 33.3447 10.3856 36.5959 10.787L27.9264 17.36C27.0237 18.0429 26.2651 18.8976 25.6941 19.8749C25.1231 20.8523 24.7512 21.9329 24.5996 23.0546C24.448 24.1762 24.5197 25.3168 24.8108 26.4107C25.1018 27.5045 25.6064 28.5299 26.2954 29.428C27.6865 31.2412 29.7382 32.4307 32.003 32.7369C34.2678 33.0431 36.5617 32.4412 38.3844 31.0625L44.2784 26.6H58.9259L71.2004 38.71C71.2399 38.7588 71.282 38.8055 71.3264 38.85L75.3514 42.875C76.2568 43.793 76.7756 45.0233 76.801 46.3125C76.8264 47.6016 76.3563 48.8514 75.4877 49.8044C74.6191 50.7573 73.4181 51.3408 72.1321 51.4347C70.8462 51.5286 69.5731 51.1257 68.5754 50.309L68.2394 49.973C68.1742 49.9069 68.104 49.8461 68.0294 49.791L64.2039 45.969C64.0424 45.8018 63.8493 45.6685 63.6358 45.5768C63.4223 45.4851 63.1927 45.4368 62.9603 45.4348C62.728 45.4328 62.4975 45.477 62.2824 45.565C62.0674 45.653 61.872 45.783 61.7077 45.9473C61.5434 46.1116 61.4134 46.307 61.3254 46.522C61.2374 46.7371 61.1932 46.9676 61.1952 47.1999C61.1972 47.4323 61.2455 47.6619 61.3372 47.8754C61.4289 48.0889 61.5622 48.282 61.7294 48.4435L65.7544 52.4685C65.9014 52.612 66.0484 52.752 66.2024 52.885L66.3564 53.039C66.9757 53.7175 67.3096 54.6086 67.2887 55.5271C67.2677 56.4455 66.8936 57.3205 66.244 57.9701C65.5944 58.6197 64.7194 58.9938 63.801 59.0148C62.8825 59.0357 61.9914 58.7018 61.3129 58.0825L60.7179 57.491C60.471 57.2448 60.1563 57.078 59.8141 57.0118C59.4718 56.9457 59.1176 56.9833 58.7968 57.1198C58.4761 57.2563 58.2034 57.4855 58.0137 57.778C57.8241 58.0705 57.7261 58.4129 57.7324 58.7615C57.7271 58.9982 57.7699 59.2335 57.8584 59.4531C57.9468 59.6727 58.079 59.872 58.2469 60.039L59.0274 60.8195C59.349 61.1223 59.6066 61.4867 59.7848 61.8909C59.963 62.2951 60.0583 62.731 60.0649 63.1728C60.0716 63.6145 59.9895 64.0531 59.8235 64.4625C59.6575 64.8719 59.411 65.2438 59.0986 65.5562C58.7862 65.8686 58.4143 66.1151 58.0049 66.2811C57.5955 66.4471 57.1569 66.5292 56.7152 66.5225C56.2734 66.5159 55.8375 66.4206 55.4333 66.2424C55.0291 66.0642 54.6647 65.8066 54.3619 65.485H54.3549L54.3164 65.4395L53.5814 64.7045C53.4199 64.5373 53.2268 64.404 53.0133 64.3123C52.7998 64.2206 52.5702 64.1723 52.3378 64.1703C52.1055 64.1683 51.875 64.2125 51.66 64.3005C51.4449 64.3885 51.2495 64.5185 51.0852 64.6828C50.9209 64.8471 50.7909 65.0425 50.7029 65.2575C50.6149 65.4726 50.5707 65.7031 50.5727 65.9354C50.5747 66.1678 50.623 66.3974 50.7147 66.6109C50.8064 66.8244 50.9397 67.0175 51.1069 67.179L51.8699 67.9455C52.184 68.2557 52.434 68.6248 52.6055 69.0317C52.777 69.4385 52.8667 69.8752 52.8695 70.3167C52.8722 70.7582 52.788 71.1959 52.6216 71.6049C52.4552 72.0139 52.2099 72.3861 51.8996 72.7002C51.5894 73.0144 51.2203 73.2643 50.8134 73.4359C50.4066 73.6074 49.9699 73.6971 49.5284 73.6998C49.0869 73.7026 48.6491 73.6184 48.2402 73.452C47.8312 73.2855 47.459 73.0402 47.1449 72.73L42.1364 67.97L43.9704 66.143C44.5888 65.5299 45.0797 64.8005 45.4147 63.9967C45.7497 63.1929 45.9221 62.3307 45.9221 61.46C45.9221 60.5892 45.7497 59.727 45.4147 58.9232C45.0797 58.1195 44.5888 57.39 43.9704 56.777C43.3164 56.1263 42.5346 55.6183 41.6743 55.2852C40.814 54.9521 39.894 54.801 38.9724 54.8415C39.0132 53.9231 38.8611 53.0063 38.5259 52.1503C38.1908 51.2943 37.6799 50.518 37.0264 49.8715C36.3721 49.2214 35.5901 48.7141 34.7299 48.3816C33.8696 48.049 32.9498 47.8985 32.0284 47.9395C32.0685 47.0217 31.916 46.1057 31.5809 45.2503C31.2458 44.395 30.7353 43.6192 30.0824 42.973C29.251 42.147 28.2172 41.5539 27.0846 41.2529C25.9519 40.9519 24.7601 40.9537 23.6284 41.258C23.4331 39.819 22.7674 38.4851 21.7349 37.464C20.5834 36.3227 19.0572 35.6377 17.4392 35.536C15.8211 35.4343 14.2211 35.9228 12.9359 36.911C12.1097 33.3623 12.206 29.6612 13.2157 26.1604C14.2254 22.6596 16.1148 19.4756 18.7039 16.912V16.9085Z" fill="#E3B002"/>
</svg>
