<svg width="95" height="42" viewBox="0 0 95 42" fill="none" xmlns="http://www.w3.org/2000/svg">
<path d="M3.876 7.344H0.068V5.1H10.438V7.344H6.63V17H3.876V7.344ZM17.2918 7.718C18.4251 7.718 19.3375 8.058 20.0288 8.738C20.7315 9.418 21.0828 10.4267 21.0828 11.764V17H18.4308V12.172C18.4308 11.4467 18.2721 10.9083 17.9548 10.557C17.6375 10.1943 17.1785 10.013 16.5778 10.013C15.9091 10.013 15.3765 10.2227 14.9798 10.642C14.5831 11.05 14.3848 11.662 14.3848 12.478V17H11.7328V4.386H14.3848V8.806C14.7361 8.45467 15.1611 8.18833 15.6598 8.007C16.1585 7.81433 16.7025 7.718 17.2918 7.718ZM27.9383 17.136C26.975 17.136 26.108 16.9377 25.3373 16.541C24.578 16.133 23.983 15.572 23.5523 14.858C23.1216 14.144 22.9063 13.3337 22.9063 12.427C22.9063 11.5203 23.1216 10.71 23.5523 9.996C23.983 9.282 24.578 8.72667 25.3373 8.33C26.108 7.922 26.975 7.718 27.9383 7.718C28.9016 7.718 29.763 7.922 30.5223 8.33C31.2816 8.72667 31.8766 9.282 32.3073 9.996C32.738 10.71 32.9533 11.5203 32.9533 12.427C32.9533 13.3337 32.738 14.144 32.3073 14.858C31.8766 15.572 31.2816 16.133 30.5223 16.541C29.763 16.9377 28.9016 17.136 27.9383 17.136ZM27.9383 14.96C28.6183 14.96 29.1736 14.7333 29.6043 14.28C30.0463 13.8153 30.2673 13.1977 30.2673 12.427C30.2673 11.6563 30.0463 11.0443 29.6043 10.591C29.1736 10.1263 28.6183 9.894 27.9383 9.894C27.2583 9.894 26.6973 10.1263 26.2553 10.591C25.8133 11.0443 25.5923 11.6563 25.5923 12.427C25.5923 13.1977 25.8133 13.8153 26.2553 14.28C26.6973 14.7333 27.2583 14.96 27.9383 14.96ZM46.439 7.718C47.5836 7.718 48.4903 8.058 49.159 8.738C49.839 9.40667 50.179 10.4153 50.179 11.764V17H47.527V12.172C47.527 11.4467 47.374 10.9083 47.068 10.557C46.7733 10.1943 46.3483 10.013 45.793 10.013C45.1696 10.013 44.6766 10.217 44.314 10.625C43.9513 11.0217 43.77 11.6167 43.77 12.41V17H41.118V12.172C41.118 10.7327 40.54 10.013 39.384 10.013C38.772 10.013 38.2846 10.217 37.922 10.625C37.5593 11.0217 37.378 11.6167 37.378 12.41V17H34.726V7.854H37.259V8.908C37.599 8.52267 38.0126 8.228 38.5 8.024C38.9986 7.82 39.5426 7.718 40.132 7.718C40.778 7.718 41.3616 7.84833 41.883 8.109C42.4043 8.35833 42.8236 8.72667 43.141 9.214C43.515 8.738 43.9853 8.36967 44.552 8.109C45.13 7.84833 45.759 7.718 46.439 7.718ZM56.245 7.718C57.6617 7.718 58.7497 8.058 59.509 8.738C60.2684 9.40667 60.648 10.421 60.648 11.781V17H58.166V15.861C57.6674 16.711 56.738 17.136 55.378 17.136C54.6754 17.136 54.0634 17.017 53.542 16.779C53.032 16.541 52.641 16.2123 52.369 15.793C52.097 15.3737 51.961 14.8977 51.961 14.365C51.961 13.515 52.2784 12.8463 52.913 12.359C53.559 11.8717 54.5507 11.628 55.888 11.628H57.996C57.996 11.05 57.8204 10.608 57.469 10.302C57.1177 9.98467 56.5907 9.826 55.888 9.826C55.4007 9.826 54.919 9.90533 54.443 10.064C53.9784 10.2113 53.5817 10.4153 53.253 10.676L52.301 8.823C52.7997 8.47167 53.3947 8.19967 54.086 8.007C54.7887 7.81433 55.5084 7.718 56.245 7.718ZM56.041 15.351C56.4944 15.351 56.8967 15.249 57.248 15.045C57.5994 14.8297 57.8487 14.518 57.996 14.11V13.175H56.177C55.089 13.175 54.545 13.532 54.545 14.246C54.545 14.586 54.6754 14.858 54.936 15.062C55.208 15.2547 55.5764 15.351 56.041 15.351ZM66.1252 17.136C65.3659 17.136 64.6236 17.0453 63.8982 16.864C63.1729 16.6713 62.5949 16.4333 62.1642 16.15L63.0482 14.246C63.4562 14.5067 63.9492 14.722 64.5272 14.892C65.1052 15.0507 65.6719 15.13 66.2272 15.13C67.3492 15.13 67.9102 14.8523 67.9102 14.297C67.9102 14.0363 67.7572 13.8493 67.4512 13.736C67.1452 13.6227 66.6749 13.5263 66.0402 13.447C65.2922 13.3337 64.6746 13.2033 64.1872 13.056C63.6999 12.9087 63.2749 12.648 62.9122 12.274C62.5609 11.9 62.3852 11.3673 62.3852 10.676C62.3852 10.098 62.5496 9.588 62.8782 9.146C63.2182 8.69267 63.7056 8.34133 64.3402 8.092C64.9862 7.84267 65.7456 7.718 66.6182 7.718C67.2642 7.718 67.9046 7.79167 68.5392 7.939C69.1852 8.075 69.7179 8.26767 70.1372 8.517L69.2532 10.404C68.4486 9.95067 67.5702 9.724 66.6182 9.724C66.0516 9.724 65.6266 9.80333 65.3432 9.962C65.0599 10.1207 64.9182 10.3247 64.9182 10.574C64.9182 10.8573 65.0712 11.0557 65.3772 11.169C65.6832 11.2823 66.1706 11.39 66.8392 11.492C67.5872 11.6167 68.1992 11.7527 68.6752 11.9C69.1512 12.036 69.5649 12.291 69.9162 12.665C70.2676 13.039 70.4432 13.5603 70.4432 14.229C70.4432 14.7957 70.2732 15.3 69.9332 15.742C69.5932 16.184 69.0946 16.5297 68.4372 16.779C67.7912 17.017 67.0206 17.136 66.1252 17.136ZM79.2739 17.204C78.4693 17.204 77.7269 17.0567 77.0469 16.762C76.3783 16.456 75.8286 16.0253 75.3979 15.47L76.9279 13.634C77.5739 14.5067 78.3106 14.943 79.1379 14.943C80.2599 14.943 80.8209 14.2857 80.8209 12.971V7.31H76.6389V5.1H83.5579V12.818C83.5579 14.28 83.1953 15.3793 82.4699 16.116C81.7446 16.8413 80.6793 17.204 79.2739 17.204ZM86.978 17.136C86.5133 17.136 86.1223 16.9773 85.805 16.66C85.4876 16.3427 85.329 15.946 85.329 15.47C85.329 14.9827 85.4876 14.5917 85.805 14.297C86.1223 13.991 86.5133 13.838 86.978 13.838C87.4426 13.838 87.8336 13.991 88.151 14.297C88.4683 14.5917 88.627 14.9827 88.627 15.47C88.627 15.946 88.4683 16.3427 88.151 16.66C87.8336 16.9773 87.4426 17.136 86.978 17.136Z" fill="#C4C4C4"/>
<path d="M13.6618 29.9053C13.5506 29.5634 13.2558 29.3156 12.9005 29.2638L9.30284 28.7408L7.69377 25.4832C7.37624 24.8389 6.32217 24.8389 6.00463 25.4832L4.39556 28.7408L0.806415 29.2638C0.451301 29.3155 0.156457 29.5642 0.0461796 29.9053C-0.0649651 30.2473 0.0282577 30.6213 0.285524 30.8709L2.88752 33.4004L2.27428 36.9803C2.21401 37.3335 2.35912 37.6915 2.64919 37.9025C2.94028 38.1127 3.32459 38.14 3.64212 37.9732L6.84884 36.2822L10.0651 37.9732C10.2027 38.0458 10.3534 38.0816 10.5032 38.0816C10.6981 38.0816 10.8931 38.0213 11.059 37.9027C11.3493 37.6907 11.4942 37.3337 11.434 36.9804L10.8207 33.4005L13.4227 30.8711C13.6797 30.6222 13.7729 30.2464 13.6618 29.9053Z" fill="#E3B002"/>
<path d="M28.7347 29.9053C28.6235 29.5634 28.3287 29.3156 27.9734 29.2638L24.3757 28.7408L22.7667 25.4832C22.4491 24.8389 21.3951 24.8389 21.0775 25.4832L19.4685 28.7408L15.8792 29.2638C15.5241 29.3155 15.2292 29.5642 15.1189 29.9053C15.0078 30.2473 15.101 30.6213 15.3583 30.8709L17.9603 33.4004L17.347 36.9803C17.2868 37.3335 17.4319 37.6925 17.7219 37.9025C18.0122 38.1127 18.3984 38.14 18.7149 37.9732L21.9216 36.2822L25.1379 37.9732C25.2755 38.0458 25.4262 38.0816 25.5759 38.0816C25.7709 38.0816 25.9659 38.0213 26.1318 37.9027C26.422 37.6907 26.567 37.3337 26.5067 36.9804L25.8935 33.4005L28.4955 30.8711C28.7526 30.6222 28.8458 30.2464 28.7347 29.9053Z" fill="#E3B002"/>
<path d="M43.8078 29.9053C43.6967 29.5634 43.4018 29.3156 43.0466 29.2638L39.4487 28.7408L37.8397 25.4832C37.5221 24.8389 36.4681 24.8389 36.1505 25.4832L34.5415 28.7408L30.9522 29.2638C30.5971 29.3155 30.3022 29.5642 30.1919 29.9053C30.0808 30.2473 30.174 30.6213 30.4313 30.8709L33.0333 33.4004L32.42 36.9803C32.3598 37.3335 32.5049 37.6925 32.7949 37.9025C33.0852 38.1127 33.4714 38.14 33.7879 37.9732L36.9947 36.2822L40.211 37.9732C40.3486 38.0458 40.4993 38.0816 40.6491 38.0816C40.844 38.0816 41.039 38.0213 41.2049 37.9027C41.4952 37.6907 41.6401 37.3337 41.5799 36.9804L40.9666 33.4005L43.5686 30.8711C43.8257 30.6222 43.919 30.2464 43.8078 29.9053Z" fill="#E3B002"/>
<path d="M58.8809 29.9091C58.7698 29.5671 58.4749 29.3194 58.1197 29.2675L54.522 28.7446L52.9129 25.4871C52.5954 24.8428 51.5413 24.8428 51.2238 25.4871L49.6147 28.7447L46.0254 29.2677C45.6703 29.3194 45.3755 29.5681 45.2652 29.9092C45.154 30.2512 45.2473 30.6252 45.5045 30.8748L48.1065 33.4043L47.4933 36.9842C47.433 37.3374 47.5781 37.6954 47.8682 37.9065C48.1593 38.1166 48.5446 38.1439 48.8611 37.9771L52.068 36.2861L55.2842 37.9771C55.4218 38.0497 55.5726 38.0855 55.7223 38.0855C55.9173 38.0855 56.1123 38.0253 56.2782 37.9066C56.5684 37.6946 56.7134 37.3376 56.6531 36.9843L56.0398 33.4044L58.6418 30.875C58.8988 30.627 58.992 30.2502 58.8809 29.9091Z" fill="#E3B002"/>
<path d="M73.9539 29.9052C73.8427 29.5632 73.5479 29.3155 73.1926 29.2636L69.595 28.7408L67.9859 25.4832C67.6684 24.8389 66.6143 24.8389 66.2968 25.4832L64.6877 28.7408L61.0984 29.2636C60.7433 29.3155 60.4484 29.5641 60.3382 29.9052C60.227 30.2471 60.3203 30.6212 60.5775 30.8708L63.1795 33.4002L62.5663 36.9801C62.506 37.3334 62.6511 37.6914 62.9412 37.9024C63.2323 38.1124 63.6176 38.1399 63.9341 37.9731L67.141 36.2821L70.3572 37.9731C70.4948 38.0456 70.6456 38.0815 70.7953 38.0815C70.9903 38.0815 71.1852 38.0212 71.3512 37.9025C71.6414 37.6905 71.7863 37.3335 71.7261 36.9803L71.1128 33.4004L73.7148 30.8709C73.9718 30.6221 74.065 30.2461 73.9539 29.9052ZM69.4413 32.395C69.219 32.6117 69.1163 32.9236 69.169 33.2297L69.5439 35.4172L67.5779 34.3838C67.4413 34.3112 67.2906 34.2754 67.1398 34.2754C66.9891 34.2754 66.8383 34.3112 66.7017 34.3838L64.7461 35.4144L65.121 33.2298C65.1737 32.9237 65.0711 32.611 64.8487 32.3952L63.2623 30.853L65.4488 30.5346C65.7549 30.4904 66.0197 30.2972 66.1573 30.0194L67.1398 28.0287L68.1223 30.0194C68.2599 30.2982 68.5246 30.4904 68.8317 30.5346L71.0267 30.854L69.4413 32.395Z" fill="#E3B002"/>
</svg>
