<svg width="109" height="39" viewBox="0 0 109 39" fill="none" xmlns="http://www.w3.org/2000/svg">
<path d="M10.248 14.45H4.723L3.669 17H0.847L6.151 5.1H8.871L14.192 17H11.302L10.248 14.45ZM9.381 12.359L7.494 7.803L5.607 12.359H9.381ZM20.7986 7.718C21.932 7.718 22.8443 8.058 23.5356 8.738C24.2383 9.418 24.5896 10.4267 24.5896 11.764V17H21.9376V12.172C21.9376 11.4467 21.779 10.9083 21.4616 10.557C21.1443 10.1943 20.6853 10.013 20.0846 10.013C19.416 10.013 18.8833 10.2227 18.4866 10.642C18.09 11.05 17.8916 11.662 17.8916 12.478V17H15.2396V7.854H17.7726V8.925C18.124 8.53967 18.5603 8.245 19.0816 8.041C19.603 7.82567 20.1753 7.718 20.7986 7.718ZM31.4451 17.136C30.4818 17.136 29.6148 16.9377 28.8441 16.541C28.0848 16.133 27.4898 15.572 27.0591 14.858C26.6285 14.144 26.4131 13.3337 26.4131 12.427C26.4131 11.5203 26.6285 10.71 27.0591 9.996C27.4898 9.282 28.0848 8.72667 28.8441 8.33C29.6148 7.922 30.4818 7.718 31.4451 7.718C32.4085 7.718 33.2698 7.922 34.0291 8.33C34.7885 8.72667 35.3835 9.282 35.8141 9.996C36.2448 10.71 36.4601 11.5203 36.4601 12.427C36.4601 13.3337 36.2448 14.144 35.8141 14.858C35.3835 15.572 34.7885 16.133 34.0291 16.541C33.2698 16.9377 32.4085 17.136 31.4451 17.136ZM31.4451 14.96C32.1251 14.96 32.6805 14.7333 33.1111 14.28C33.5531 13.8153 33.7741 13.1977 33.7741 12.427C33.7741 11.6563 33.5531 11.0443 33.1111 10.591C32.6805 10.1263 32.1251 9.894 31.4451 9.894C30.7651 9.894 30.2041 10.1263 29.7621 10.591C29.3201 11.0443 29.0991 11.6563 29.0991 12.427C29.0991 13.1977 29.3201 13.8153 29.7621 14.28C30.2041 14.7333 30.7651 14.96 31.4451 14.96ZM49.9458 7.718C51.0905 7.718 51.9971 8.058 52.6658 8.738C53.3458 9.40667 53.6858 10.4153 53.6858 11.764V17H51.0338V12.172C51.0338 11.4467 50.8808 10.9083 50.5748 10.557C50.2801 10.1943 49.8551 10.013 49.2998 10.013C48.6765 10.013 48.1835 10.217 47.8208 10.625C47.4581 11.0217 47.2768 11.6167 47.2768 12.41V17H44.6248V12.172C44.6248 10.7327 44.0468 10.013 42.8908 10.013C42.2788 10.013 41.7915 10.217 41.4288 10.625C41.0661 11.0217 40.8848 11.6167 40.8848 12.41V17H38.2328V7.854H40.7658V8.908C41.1058 8.52267 41.5195 8.228 42.0068 8.024C42.5055 7.82 43.0495 7.718 43.6388 7.718C44.2848 7.718 44.8685 7.84833 45.3898 8.109C45.9111 8.35833 46.3305 8.72667 46.6478 9.214C47.0218 8.738 47.4921 8.36967 48.0588 8.109C48.6368 7.84833 49.2658 7.718 49.9458 7.718ZM64.9749 7.854L60.8439 17.561C60.4245 18.615 59.9032 19.3573 59.2799 19.788C58.6679 20.2187 57.9255 20.434 57.0529 20.434C56.5769 20.434 56.1065 20.3603 55.6419 20.213C55.1772 20.0657 54.7975 19.8617 54.5029 19.601L55.4719 17.714C55.6759 17.8953 55.9082 18.037 56.1689 18.139C56.4409 18.241 56.7072 18.292 56.9679 18.292C57.3305 18.292 57.6252 18.2013 57.8519 18.02C58.0785 17.85 58.2825 17.561 58.4639 17.153L58.4979 17.068L54.5369 7.854H57.2739L59.8409 14.059L62.4249 7.854H64.9749ZM71.616 7.718C72.7493 7.718 73.6617 8.058 74.353 8.738C75.0557 9.418 75.407 10.4267 75.407 11.764V17H72.755V12.172C72.755 11.4467 72.5963 10.9083 72.279 10.557C71.9617 10.1943 71.5027 10.013 70.902 10.013C70.2333 10.013 69.7007 10.2227 69.304 10.642C68.9073 11.05 68.709 11.662 68.709 12.478V17H66.057V7.854H68.59V8.925C68.9413 8.53967 69.3777 8.245 69.899 8.041C70.4203 7.82567 70.9927 7.718 71.616 7.718ZM82.2625 17.136C81.2992 17.136 80.4322 16.9377 79.6615 16.541C78.9022 16.133 78.3072 15.572 77.8765 14.858C77.4459 14.144 77.2305 13.3337 77.2305 12.427C77.2305 11.5203 77.4459 10.71 77.8765 9.996C78.3072 9.282 78.9022 8.72667 79.6615 8.33C80.4322 7.922 81.2992 7.718 82.2625 7.718C83.2259 7.718 84.0872 7.922 84.8465 8.33C85.6059 8.72667 86.2009 9.282 86.6315 9.996C87.0622 10.71 87.2775 11.5203 87.2775 12.427C87.2775 13.3337 87.0622 14.144 86.6315 14.858C86.2009 15.572 85.6059 16.133 84.8465 16.541C84.0872 16.9377 83.2259 17.136 82.2625 17.136ZM82.2625 14.96C82.9425 14.96 83.4979 14.7333 83.9285 14.28C84.3705 13.8153 84.5915 13.1977 84.5915 12.427C84.5915 11.6563 84.3705 11.0443 83.9285 10.591C83.4979 10.1263 82.9425 9.894 82.2625 9.894C81.5825 9.894 81.0215 10.1263 80.5795 10.591C80.1375 11.0443 79.9165 11.6563 79.9165 12.427C79.9165 13.1977 80.1375 13.8153 80.5795 14.28C81.0215 14.7333 81.5825 14.96 82.2625 14.96ZM98.2642 7.854V17H95.7482V15.912C95.3968 16.3087 94.9775 16.6147 94.4902 16.83C94.0028 17.034 93.4758 17.136 92.9092 17.136C91.7078 17.136 90.7558 16.7903 90.0532 16.099C89.3505 15.4077 88.9992 14.382 88.9992 13.022V7.854H91.6512V12.631C91.6512 14.1043 92.2688 14.841 93.5042 14.841C94.1388 14.841 94.6488 14.637 95.0342 14.229C95.4195 13.8097 95.6122 13.192 95.6122 12.376V7.854H98.2642ZM103.798 17.136C103.039 17.136 102.296 17.0453 101.571 16.864C100.846 16.6713 100.268 16.4333 99.8371 16.15L100.721 14.246C101.129 14.5067 101.622 14.722 102.2 14.892C102.778 15.0507 103.345 15.13 103.9 15.13C105.022 15.13 105.583 14.8523 105.583 14.297C105.583 14.0363 105.43 13.8493 105.124 13.736C104.818 13.6227 104.348 13.5263 103.713 13.447C102.965 13.3337 102.347 13.2033 101.86 13.056C101.373 12.9087 100.948 12.648 100.585 12.274C100.234 11.9 100.058 11.3673 100.058 10.676C100.058 10.098 100.222 9.588 100.551 9.146C100.891 8.69267 101.378 8.34133 102.013 8.092C102.659 7.84267 103.418 7.718 104.291 7.718C104.937 7.718 105.577 7.79167 106.212 7.939C106.858 8.075 107.391 8.26767 107.81 8.517L106.926 10.404C106.121 9.95067 105.243 9.724 104.291 9.724C103.724 9.724 103.299 9.80333 103.016 9.962C102.733 10.1207 102.591 10.3247 102.591 10.574C102.591 10.8573 102.744 11.0557 103.05 11.169C103.356 11.2823 103.843 11.39 104.512 11.492C105.26 11.6167 105.872 11.7527 106.348 11.9C106.824 12.036 107.238 12.291 107.589 12.665C107.94 13.039 108.116 13.5603 108.116 14.229C108.116 14.7957 107.946 15.3 107.606 15.742C107.266 16.184 106.767 16.5297 106.11 16.779C105.464 17.017 104.693 17.136 103.798 17.136Z" fill="#C4C4C4"/>
<path d="M14.6618 29.9053C14.5506 29.5634 14.2558 29.3156 13.9005 29.2638L10.3028 28.7408L8.69377 25.4832C8.37624 24.8389 7.32217 24.8389 7.00463 25.4832L5.39556 28.7408L1.80641 29.2638C1.4513 29.3155 1.15646 29.5642 1.04618 29.9053C0.935035 30.2473 1.02826 30.6213 1.28552 30.8709L3.88752 33.4004L3.27428 36.9803C3.21401 37.3335 3.35912 37.6915 3.64919 37.9025C3.94028 38.1127 4.32459 38.14 4.64212 37.9732L7.84884 36.2822L11.0651 37.9732C11.2027 38.0458 11.3534 38.0816 11.5032 38.0816C11.6981 38.0816 11.8931 38.0213 12.059 37.9027C12.3493 37.6907 12.4942 37.3337 12.434 36.9804L11.8207 33.4005L14.4227 30.8711C14.6797 30.6222 14.7729 30.2464 14.6618 29.9053Z" fill="#E3B002"/>
<path d="M29.7347 29.9053C29.6235 29.5634 29.3287 29.3156 28.9734 29.2638L25.3757 28.7408L23.7667 25.4832C23.4491 24.8389 22.3951 24.8389 22.0775 25.4832L20.4685 28.7408L16.8792 29.2638C16.5241 29.3155 16.2292 29.5642 16.1189 29.9053C16.0078 30.2473 16.101 30.6213 16.3583 30.8709L18.9603 33.4004L18.347 36.9803C18.2868 37.3335 18.4319 37.6925 18.7219 37.9025C19.0122 38.1127 19.3984 38.14 19.7149 37.9732L22.9216 36.2822L26.1379 37.9732C26.2755 38.0458 26.4262 38.0816 26.5759 38.0816C26.7709 38.0816 26.9659 38.0213 27.1318 37.9027C27.422 37.6907 27.567 37.3337 27.5067 36.9804L26.8935 33.4005L29.4955 30.8711C29.7526 30.6222 29.8458 30.2464 29.7347 29.9053Z" fill="#E3B002"/>
<path d="M44.8078 29.9053C44.6967 29.5634 44.4018 29.3156 44.0466 29.2638L40.4487 28.7408L38.8397 25.4832C38.5221 24.8389 37.4681 24.8389 37.1505 25.4832L35.5415 28.7408L31.9522 29.2638C31.5971 29.3155 31.3022 29.5642 31.1919 29.9053C31.0808 30.2473 31.174 30.6213 31.4313 30.8709L34.0333 33.4004L33.42 36.9803C33.3598 37.3335 33.5049 37.6925 33.7949 37.9025C34.0852 38.1127 34.4714 38.14 34.7879 37.9732L37.9947 36.2822L41.211 37.9732C41.3486 38.0458 41.4993 38.0816 41.6491 38.0816C41.844 38.0816 42.039 38.0213 42.2049 37.9027C42.4952 37.6907 42.6401 37.3337 42.5799 36.9804L41.9666 33.4005L44.5686 30.8711C44.8257 30.6222 44.919 30.2464 44.8078 29.9053Z" fill="#E3B002"/>
<path d="M59.8809 29.9091C59.7698 29.5671 59.4749 29.3194 59.1197 29.2675L55.522 28.7446L53.9129 25.4871C53.5954 24.8428 52.5413 24.8428 52.2238 25.4871L50.6147 28.7447L47.0254 29.2677C46.6703 29.3194 46.3755 29.5681 46.2652 29.9092C46.154 30.2512 46.2473 30.6252 46.5045 30.8748L49.1065 33.4043L48.4933 36.9842C48.433 37.3374 48.5781 37.6954 48.8682 37.9065C49.1593 38.1166 49.5446 38.1439 49.8611 37.9771L53.068 36.2861L56.2842 37.9771C56.4218 38.0497 56.5726 38.0855 56.7223 38.0855C56.9173 38.0855 57.1123 38.0253 57.2782 37.9066C57.5684 37.6946 57.7134 37.3376 57.6531 36.9843L57.0398 33.4044L59.6418 30.875C59.8988 30.627 59.992 30.2502 59.8809 29.9091Z" fill="#E3B002"/>
<path d="M74.9539 29.9052C74.8427 29.5632 74.5479 29.3155 74.1926 29.2636L70.595 28.7408L68.9859 25.4832C68.6684 24.8389 67.6143 24.8389 67.2968 25.4832L65.6877 28.7408L62.0984 29.2636C61.7433 29.3155 61.4484 29.5641 61.3382 29.9052C61.227 30.2471 61.3203 30.6212 61.5775 30.8708L64.1795 33.4002L63.5663 36.9801C63.506 37.3334 63.6511 37.6914 63.9412 37.9024C64.2323 38.1124 64.6176 38.1399 64.9341 37.9731L68.141 36.2821L71.3572 37.9731C71.4948 38.0456 71.6456 38.0815 71.7953 38.0815C71.9903 38.0815 72.1852 38.0212 72.3512 37.9025C72.6414 37.6905 72.7863 37.3335 72.7261 36.9803L72.1128 33.4004L74.7148 30.8709C74.9718 30.6221 75.065 30.2461 74.9539 29.9052ZM70.4413 32.395C70.219 32.6117 70.1163 32.9236 70.169 33.2297L70.5439 35.4172L68.5779 34.3838C68.4413 34.3112 68.2906 34.2754 68.1398 34.2754C67.9891 34.2754 67.8383 34.3112 67.7017 34.3838L65.7461 35.4144L66.121 33.2298C66.1737 32.9237 66.0711 32.611 65.8487 32.3952L64.2623 30.853L66.4488 30.5346C66.7549 30.4904 67.0197 30.2972 67.1573 30.0194L68.1398 28.0287L69.1223 30.0194C69.2599 30.2982 69.5246 30.4904 69.8317 30.5346L72.0267 30.854L70.4413 32.395Z" fill="#E3B002"/>
</svg>
