<svg width="75" height="39" viewBox="0 0 75 39" fill="none" xmlns="http://www.w3.org/2000/svg">
<path d="M10.248 14.45H4.723L3.669 17H0.847L6.151 5.1H8.871L14.192 17H11.302L10.248 14.45ZM9.381 12.359L7.494 7.803L5.607 12.359H9.381ZM20.7986 7.718C21.932 7.718 22.8443 8.058 23.5356 8.738C24.2383 9.418 24.5896 10.4267 24.5896 11.764V17H21.9376V12.172C21.9376 11.4467 21.779 10.9083 21.4616 10.557C21.1443 10.1943 20.6853 10.013 20.0846 10.013C19.416 10.013 18.8833 10.2227 18.4866 10.642C18.09 11.05 17.8916 11.662 17.8916 12.478V17H15.2396V7.854H17.7726V8.925C18.124 8.53967 18.5603 8.245 19.0816 8.041C19.603 7.82567 20.1753 7.718 20.7986 7.718ZM38.7065 7.718C39.8512 7.718 40.7579 8.058 41.4265 8.738C42.1065 9.40667 42.4465 10.4153 42.4465 11.764V17H39.7945V12.172C39.7945 11.4467 39.6415 10.9083 39.3355 10.557C39.0409 10.1943 38.6159 10.013 38.0605 10.013C37.4372 10.013 36.9442 10.217 36.5815 10.625C36.2189 11.0217 36.0375 11.6167 36.0375 12.41V17H33.3855V12.172C33.3855 10.7327 32.8075 10.013 31.6515 10.013C31.0395 10.013 30.5522 10.217 30.1895 10.625C29.8269 11.0217 29.6455 11.6167 29.6455 12.41V17H26.9935V7.854H29.5265V8.908C29.8665 8.52267 30.2802 8.228 30.7675 8.024C31.2662 7.82 31.8102 7.718 32.3995 7.718C33.0455 7.718 33.6292 7.84833 34.1505 8.109C34.6719 8.35833 35.0912 8.72667 35.4085 9.214C35.7825 8.738 36.2529 8.36967 36.8195 8.109C37.3975 7.84833 38.0265 7.718 38.7065 7.718ZM49.2752 17.136C48.3119 17.136 47.4449 16.9377 46.6742 16.541C45.9149 16.133 45.3199 15.572 44.8892 14.858C44.4586 14.144 44.2432 13.3337 44.2432 12.427C44.2432 11.5203 44.4586 10.71 44.8892 9.996C45.3199 9.282 45.9149 8.72667 46.6742 8.33C47.4449 7.922 48.3119 7.718 49.2752 7.718C50.2386 7.718 51.0999 7.922 51.8592 8.33C52.6186 8.72667 53.2136 9.282 53.6442 9.996C54.0749 10.71 54.2902 11.5203 54.2902 12.427C54.2902 13.3337 54.0749 14.144 53.6442 14.858C53.2136 15.572 52.6186 16.133 51.8592 16.541C51.0999 16.9377 50.2386 17.136 49.2752 17.136ZM49.2752 14.96C49.9552 14.96 50.5106 14.7333 50.9412 14.28C51.3832 13.8153 51.6042 13.1977 51.6042 12.427C51.6042 11.6563 51.3832 11.0443 50.9412 10.591C50.5106 10.1263 49.9552 9.894 49.2752 9.894C48.5952 9.894 48.0342 10.1263 47.5922 10.591C47.1502 11.0443 46.9292 11.6563 46.9292 12.427C46.9292 13.1977 47.1502 13.8153 47.5922 14.28C48.0342 14.7333 48.5952 14.96 49.2752 14.96ZM56.0629 4.386H58.7149V17H56.0629V4.386Z" fill="#C4C4C4"/>
<path d="M14.6618 29.9053C14.5506 29.5634 14.2558 29.3156 13.9005 29.2638L10.3028 28.7408L8.69377 25.4832C8.37624 24.8389 7.32217 24.8389 7.00463 25.4832L5.39556 28.7408L1.80641 29.2638C1.4513 29.3155 1.15646 29.5642 1.04618 29.9053C0.935035 30.2473 1.02826 30.6213 1.28552 30.8709L3.88752 33.4004L3.27428 36.9803C3.21401 37.3335 3.35912 37.6915 3.64919 37.9025C3.94028 38.1127 4.32459 38.14 4.64212 37.9732L7.84884 36.2822L11.0651 37.9732C11.2027 38.0458 11.3534 38.0816 11.5032 38.0816C11.6981 38.0816 11.8931 38.0213 12.059 37.9027C12.3493 37.6907 12.4942 37.3337 12.434 36.9804L11.8207 33.4005L14.4227 30.8711C14.6797 30.6222 14.7729 30.2464 14.6618 29.9053Z" fill="#E3B002"/>
<path d="M29.7347 29.9053C29.6235 29.5634 29.3287 29.3156 28.9734 29.2638L25.3757 28.7408L23.7667 25.4832C23.4491 24.8389 22.3951 24.8389 22.0775 25.4832L20.4685 28.7408L16.8792 29.2638C16.5241 29.3155 16.2292 29.5642 16.1189 29.9053C16.0078 30.2473 16.101 30.6213 16.3583 30.8709L18.9603 33.4004L18.347 36.9803C18.2868 37.3335 18.4319 37.6925 18.7219 37.9025C19.0122 38.1127 19.3984 38.14 19.7149 37.9732L22.9216 36.2822L26.1379 37.9732C26.2755 38.0458 26.4262 38.0816 26.5759 38.0816C26.7709 38.0816 26.9659 38.0213 27.1318 37.9027C27.422 37.6907 27.567 37.3337 27.5067 36.9804L26.8935 33.4005L29.4955 30.8711C29.7526 30.6222 29.8458 30.2464 29.7347 29.9053Z" fill="#E3B002"/>
<path d="M44.8078 29.9053C44.6967 29.5634 44.4018 29.3156 44.0466 29.2638L40.4487 28.7408L38.8397 25.4832C38.5221 24.8389 37.4681 24.8389 37.1505 25.4832L35.5415 28.7408L31.9522 29.2638C31.5971 29.3155 31.3022 29.5642 31.1919 29.9053C31.0808 30.2473 31.174 30.6213 31.4313 30.8709L34.0333 33.4004L33.42 36.9803C33.3598 37.3335 33.5049 37.6925 33.7949 37.9025C34.0852 38.1127 34.4714 38.14 34.7879 37.9732L37.9947 36.2822L41.211 37.9732C41.3486 38.0458 41.4993 38.0816 41.6491 38.0816C41.844 38.0816 42.039 38.0213 42.2049 37.9027C42.4952 37.6907 42.6401 37.3337 42.5799 36.9804L41.9666 33.4005L44.5686 30.8711C44.8257 30.6222 44.919 30.2464 44.8078 29.9053Z" fill="#E3B002"/>
<path d="M59.8809 29.9091C59.7698 29.5671 59.4749 29.3194 59.1197 29.2675L55.522 28.7446L53.9129 25.4871C53.5954 24.8428 52.5413 24.8428 52.2238 25.4871L50.6147 28.7447L47.0254 29.2677C46.6703 29.3194 46.3755 29.5681 46.2652 29.9092C46.154 30.2512 46.2473 30.6252 46.5045 30.8748L49.1065 33.4043L48.4933 36.9842C48.433 37.3374 48.5781 37.6954 48.8682 37.9065C49.1593 38.1166 49.5446 38.1439 49.8611 37.9771L53.068 36.2861L56.2842 37.9771C56.4218 38.0497 56.5726 38.0855 56.7223 38.0855C56.9173 38.0855 57.1123 38.0253 57.2782 37.9066C57.5684 37.6946 57.7134 37.3376 57.6531 36.9843L57.0398 33.4044L59.6418 30.875C59.8988 30.627 59.992 30.2502 59.8809 29.9091Z" fill="#E3B002"/>
<path d="M74.9539 29.9052C74.8427 29.5632 74.5479 29.3155 74.1926 29.2636L70.595 28.7408L68.9859 25.4832C68.6684 24.8389 67.6143 24.8389 67.2968 25.4832L65.6877 28.7408L62.0984 29.2636C61.7433 29.3155 61.4484 29.5641 61.3382 29.9052C61.227 30.2471 61.3203 30.6212 61.5775 30.8708L64.1795 33.4002L63.5663 36.9801C63.506 37.3334 63.6511 37.6914 63.9412 37.9024C64.2323 38.1124 64.6176 38.1399 64.9341 37.9731L68.141 36.2821L71.3572 37.9731C71.4948 38.0456 71.6456 38.0815 71.7953 38.0815C71.9903 38.0815 72.1852 38.0212 72.3512 37.9025C72.6414 37.6905 72.7863 37.3335 72.7261 36.9803L72.1128 33.4004L74.7148 30.8709C74.9718 30.6221 75.065 30.2461 74.9539 29.9052ZM70.4413 32.395C70.219 32.6117 70.1163 32.9236 70.169 33.2297L70.5439 35.4172L68.5779 34.3838C68.4413 34.3112 68.2906 34.2754 68.1398 34.2754C67.9891 34.2754 67.8383 34.3112 67.7017 34.3838L65.7461 35.4144L66.121 33.2298C66.1737 32.9237 66.0711 32.611 65.8487 32.3952L64.2623 30.853L66.4488 30.5346C66.7549 30.4904 67.0197 30.2972 67.1573 30.0194L68.1398 28.0287L69.1223 30.0194C69.2599 30.2982 69.5246 30.4904 69.8317 30.5346L72.0267 30.854L70.4413 32.395Z" fill="#E3B002"/>
</svg>
