<svg width="1144" height="530" viewBox="0 0 1144 530" fill="none" xmlns="http://www.w3.org/2000/svg">
<path d="M74.7545 0H458.721V529.398H72.0361L74.7545 0Z" fill="#292929"/>
<path d="M0 29.2232L74.7545 0.000976562L72.7157 528.719L0 500.856V29.2232Z" fill="#1F1F1F"/>
<path d="M148.306 373.259H137.718L135.699 378.146H130.291L140.455 355.341H145.668L155.865 378.146H150.326L148.306 373.259ZM146.645 369.252L143.029 360.521L139.413 369.252H146.645ZM178.983 378.146L178.95 364.463L172.239 375.735H169.861L163.182 364.756V378.146H158.231V355.341H162.596L171.132 369.512L179.537 355.341H183.87L183.935 378.146H178.983ZM204.364 373.259H193.776L191.756 378.146H186.348L196.513 355.341H201.725L211.922 378.146H206.384L204.364 373.259ZM202.703 369.252L199.086 360.521L195.47 369.252H202.703ZM232.76 373.845V378.146H212.822V374.725L225.332 359.641H213.083V355.341H232.271V358.761L219.794 373.845H232.76ZM236.145 355.341H241.423V378.146H236.145V355.341ZM267.75 355.341V378.146H263.417L252.047 364.3V378.146H246.835V355.341H251.2L262.537 369.186V355.341H267.75ZM288.555 366.385H293.377V375.637C292.139 376.571 290.705 377.288 289.076 377.787C287.447 378.287 285.808 378.536 284.157 378.536C281.79 378.536 279.661 378.037 277.772 377.038C275.882 376.017 274.394 374.616 273.308 372.835C272.244 371.033 271.712 369.002 271.712 366.743C271.712 364.484 272.244 362.464 273.308 360.684C274.394 358.881 275.893 357.48 277.804 356.481C279.715 355.46 281.866 354.95 284.255 354.95C286.253 354.95 288.066 355.286 289.695 355.96C291.324 356.633 292.693 357.61 293.8 358.892L290.412 362.019C288.783 360.303 286.818 359.446 284.515 359.446C283.06 359.446 281.768 359.75 280.639 360.358C279.509 360.966 278.63 361.824 278 362.931C277.37 364.039 277.055 365.31 277.055 366.743C277.055 368.155 277.37 369.415 278 370.522C278.63 371.63 279.498 372.499 280.606 373.128C281.735 373.737 283.017 374.041 284.45 374.041C285.971 374.041 287.339 373.715 288.555 373.063V366.385ZM312.783 359.576V365.603H323.339V369.838H312.783V378.146H307.505V355.341H324.739V359.576H312.783ZM328.312 355.341H333.59V378.146H328.312V355.341ZM353.532 378.146L349.134 371.793H348.873H344.28V378.146H339.002V355.341H348.873C350.893 355.341 352.642 355.677 354.118 356.351C355.617 357.024 356.768 357.98 357.572 359.218C358.375 360.455 358.777 361.922 358.777 363.616C358.777 365.31 358.364 366.776 357.539 368.014C356.736 369.23 355.584 370.164 354.086 370.815L359.201 378.146H353.532ZM353.434 363.616C353.434 362.334 353.022 361.357 352.196 360.684C351.371 359.989 350.166 359.641 348.58 359.641H344.28V367.59H348.58C350.166 367.59 351.371 367.243 352.196 366.548C353.022 365.853 353.434 364.875 353.434 363.616ZM370.452 378.536C368.649 378.536 366.901 378.298 365.206 377.82C363.534 377.32 362.188 376.679 361.167 375.898L362.959 371.923C363.936 372.64 365.098 373.215 366.444 373.65C367.791 374.084 369.138 374.301 370.484 374.301C371.983 374.301 373.09 374.084 373.807 373.65C374.524 373.194 374.882 372.596 374.882 371.858C374.882 371.315 374.665 370.87 374.231 370.522C373.818 370.153 373.275 369.86 372.602 369.643C371.95 369.425 371.06 369.186 369.93 368.926C368.193 368.513 366.77 368.101 365.663 367.688C364.555 367.275 363.599 366.613 362.796 365.701C362.014 364.788 361.623 363.572 361.623 362.052C361.623 360.727 361.981 359.532 362.698 358.468C363.415 357.382 364.49 356.524 365.923 355.895C367.378 355.265 369.148 354.95 371.233 354.95C372.689 354.95 374.111 355.123 375.501 355.471C376.891 355.818 378.108 356.318 379.15 356.97L377.521 360.977C375.414 359.782 373.308 359.185 371.201 359.185C369.724 359.185 368.627 359.424 367.91 359.902C367.215 360.379 366.868 361.009 366.868 361.791C366.868 362.573 367.27 363.159 368.073 363.55C368.899 363.92 370.148 364.289 371.82 364.658C373.557 365.071 374.98 365.483 376.088 365.896C377.195 366.309 378.14 366.96 378.922 367.851C379.726 368.741 380.127 369.947 380.127 371.467C380.127 372.77 379.758 373.965 379.02 375.051C378.303 376.115 377.217 376.962 375.762 377.592C374.307 378.222 372.537 378.536 370.452 378.536ZM388.139 359.641H380.842V355.341H400.715V359.641H393.417V378.146H388.139V359.641ZM149.434 395.341H154.711V418.146H149.434V395.341ZM180.876 418.146L180.843 404.463L174.132 415.735H171.754L165.075 404.756V418.146H160.124V395.341H164.489L173.025 409.512L181.43 395.341H185.763L185.828 418.146H180.876ZM201.11 395.341C203.129 395.341 204.878 395.677 206.355 396.351C207.853 397.024 209.004 397.98 209.808 399.218C210.612 400.455 211.013 401.922 211.013 403.616C211.013 405.288 210.612 406.754 209.808 408.014C209.004 409.252 207.853 410.207 206.355 410.881C204.878 411.532 203.129 411.858 201.11 411.858H196.516V418.146H191.238V395.341H201.11ZM200.816 407.558C202.402 407.558 203.607 407.221 204.433 406.548C205.258 405.853 205.671 404.875 205.671 403.616C205.671 402.334 205.258 401.357 204.433 400.684C203.607 399.989 202.402 399.641 200.816 399.641H196.516V407.558H200.816ZM229.311 418.146L224.913 411.793H224.653H220.059V418.146H214.781V395.341H224.653C226.672 395.341 228.421 395.677 229.898 396.351C231.396 397.024 232.547 397.98 233.351 399.218C234.155 400.455 234.556 401.922 234.556 403.616C234.556 405.31 234.144 406.776 233.318 408.014C232.515 409.23 231.364 410.164 229.865 410.815L234.98 418.146H229.311ZM229.214 403.616C229.214 402.334 228.801 401.357 227.976 400.684C227.15 399.989 225.945 399.641 224.359 399.641H220.059V407.59H224.359C225.945 407.59 227.15 407.243 227.976 406.548C228.801 405.853 229.214 404.875 229.214 403.616ZM256.395 413.91V418.146H238.738V395.341H255.972V399.576H243.983V404.528H254.571V408.633H243.983V413.91H256.395ZM268.088 418.536C266.285 418.536 264.537 418.298 262.842 417.82C261.17 417.32 259.824 416.679 258.803 415.898L260.595 411.923C261.572 412.64 262.734 413.215 264.08 413.65C265.427 414.084 266.774 414.301 268.12 414.301C269.619 414.301 270.726 414.084 271.443 413.65C272.16 413.194 272.518 412.596 272.518 411.858C272.518 411.315 272.301 410.87 271.867 410.522C271.454 410.153 270.911 409.86 270.238 409.643C269.586 409.425 268.696 409.186 267.566 408.926C265.829 408.513 264.406 408.101 263.299 407.688C262.191 407.275 261.235 406.613 260.432 405.701C259.65 404.788 259.259 403.572 259.259 402.052C259.259 400.727 259.617 399.532 260.334 398.468C261.051 397.382 262.126 396.524 263.559 395.895C265.014 395.265 266.784 394.95 268.869 394.95C270.325 394.95 271.747 395.123 273.137 395.471C274.527 395.818 275.743 396.318 276.786 396.97L275.157 400.977C273.05 399.782 270.944 399.185 268.837 399.185C267.36 399.185 266.263 399.424 265.546 399.902C264.851 400.379 264.504 401.009 264.504 401.791C264.504 402.573 264.906 403.159 265.709 403.55C266.535 403.92 267.784 404.289 269.456 404.658C271.193 405.071 272.616 405.483 273.724 405.896C274.831 406.309 275.776 406.96 276.558 407.851C277.362 408.741 277.763 409.947 277.763 411.467C277.763 412.77 277.394 413.965 276.656 415.051C275.939 416.115 274.853 416.962 273.398 417.592C271.943 418.222 270.173 418.536 268.088 418.536ZM288.863 418.536C287.06 418.536 285.312 418.298 283.618 417.82C281.945 417.32 280.599 416.679 279.578 415.898L281.37 411.923C282.347 412.64 283.509 413.215 284.856 413.65C286.202 414.084 287.549 414.301 288.895 414.301C290.394 414.301 291.501 414.084 292.218 413.65C292.935 413.194 293.293 412.596 293.293 411.858C293.293 411.315 293.076 410.87 292.642 410.522C292.229 410.153 291.686 409.86 291.013 409.643C290.361 409.425 289.471 409.186 288.341 408.926C286.604 408.513 285.181 408.101 284.074 407.688C282.966 407.275 282.01 406.613 281.207 405.701C280.425 404.788 280.034 403.572 280.034 402.052C280.034 400.727 280.392 399.532 281.109 398.468C281.826 397.382 282.901 396.524 284.334 395.895C285.789 395.265 287.56 394.95 289.645 394.95C291.1 394.95 292.522 395.123 293.912 395.471C295.302 395.818 296.519 396.318 297.561 396.97L295.932 400.977C293.825 399.782 291.719 399.185 289.612 399.185C288.135 399.185 287.038 399.424 286.322 399.902C285.627 400.379 285.279 401.009 285.279 401.791C285.279 402.573 285.681 403.159 286.484 403.55C287.31 403.92 288.559 404.289 290.231 404.658C291.968 405.071 293.391 405.483 294.499 405.896C295.606 406.309 296.551 406.96 297.333 407.851C298.137 408.741 298.538 409.947 298.538 411.467C298.538 412.77 298.169 413.965 297.431 415.051C296.714 416.115 295.628 416.962 294.173 417.592C292.718 418.222 290.948 418.536 288.863 418.536ZM302.145 395.341H307.422V418.146H302.145V395.341ZM323.878 418.536C321.511 418.536 319.372 418.026 317.461 417.005C315.571 415.984 314.083 414.584 312.997 412.803C311.933 411 311.401 408.98 311.401 406.743C311.401 404.506 311.933 402.497 312.997 400.716C314.083 398.913 315.571 397.502 317.461 396.481C319.372 395.46 321.511 394.95 323.878 394.95C326.246 394.95 328.374 395.46 330.264 396.481C332.153 397.502 333.641 398.913 334.727 400.716C335.813 402.497 336.356 404.506 336.356 406.743C336.356 408.98 335.813 411 334.727 412.803C333.641 414.584 332.153 415.984 330.264 417.005C328.374 418.026 326.246 418.536 323.878 418.536ZM323.878 414.041C325.225 414.041 326.441 413.737 327.527 413.128C328.613 412.499 329.46 411.63 330.068 410.522C330.698 409.415 331.013 408.155 331.013 406.743C331.013 405.331 330.698 404.072 330.068 402.964C329.46 401.856 328.613 400.998 327.527 400.39C326.441 399.76 325.225 399.446 323.878 399.446C322.532 399.446 321.316 399.76 320.23 400.39C319.144 400.998 318.286 401.856 317.656 402.964C317.048 404.072 316.744 405.331 316.744 406.743C316.744 408.155 317.048 409.415 317.656 410.522C318.286 411.63 319.144 412.499 320.23 413.128C321.316 413.737 322.532 414.041 323.878 414.041ZM361.238 395.341V418.146H356.905L345.535 404.3V418.146H340.322V395.341H344.688L356.025 409.186V395.341H361.238ZM374.126 418.536C372.324 418.536 370.575 418.298 368.881 417.82C367.209 417.32 365.862 416.679 364.841 415.898L366.633 411.923C367.611 412.64 368.773 413.215 370.119 413.65C371.466 414.084 372.812 414.301 374.159 414.301C375.657 414.301 376.765 414.084 377.482 413.65C378.199 413.194 378.557 412.596 378.557 411.858C378.557 411.315 378.34 410.87 377.905 410.522C377.493 410.153 376.95 409.86 376.276 409.643C375.625 409.425 374.734 409.186 373.605 408.926C371.867 408.513 370.445 408.101 369.337 407.688C368.23 407.275 367.274 406.613 366.47 405.701C365.688 404.788 365.297 403.572 365.297 402.052C365.297 400.727 365.656 399.532 366.373 398.468C367.089 397.382 368.164 396.524 369.598 395.895C371.053 395.265 372.823 394.95 374.908 394.95C376.363 394.95 377.786 395.123 379.176 395.471C380.566 395.818 381.782 396.318 382.825 396.97L381.196 400.977C379.089 399.782 376.982 399.185 374.876 399.185C373.399 399.185 372.302 399.424 371.585 399.902C370.89 400.379 370.543 401.009 370.543 401.791C370.543 402.573 370.944 403.159 371.748 403.55C372.573 403.92 373.822 404.289 375.495 404.658C377.232 405.071 378.655 405.483 379.762 405.896C380.87 406.309 381.815 406.96 382.597 407.851C383.4 408.741 383.802 409.947 383.802 411.467C383.802 412.77 383.433 413.965 382.694 415.051C381.978 416.115 380.892 416.962 379.436 417.592C377.981 418.222 376.211 418.536 374.126 418.536Z" fill="white"/>
<path d="M272.108 133.398C272.557 133.058 272.955 132.656 273.293 132.205H293.942L294.224 132.197C295.687 132.123 297.153 132.123 298.616 132.197H298.923C303.511 132.187 308.044 133.203 312.189 135.171C319.762 138.141 326.313 143.242 331.049 149.856C334.634 154.864 337.073 160.6 338.192 166.656C339.312 172.713 339.086 178.941 337.529 184.9L311.085 158.811C309.953 157.694 308.427 157.069 306.837 157.07H268.594C267.277 157.076 265.997 157.506 264.943 158.295L249.758 169.804C248.943 170.426 248.012 170.882 247.02 171.144C246.029 171.406 244.995 171.471 243.978 171.333C242.961 171.195 241.982 170.858 241.096 170.341C240.209 169.825 239.434 169.138 238.813 168.321C238.195 167.518 237.743 166.6 237.482 165.621C237.221 164.642 237.156 163.621 237.292 162.617C237.428 161.613 237.761 160.646 238.272 159.771C238.784 158.896 239.463 158.132 240.272 157.521L272.108 133.398Z" fill="#E3B002"/>
<path d="M232.317 222.653L232.212 222.758L224.362 230.56L224.257 230.656C222.883 231.964 221.053 232.685 219.156 232.666C217.259 232.648 215.444 231.893 214.094 230.56C213.42 229.891 212.885 229.096 212.519 228.22C212.154 227.343 211.966 226.403 211.966 225.454C211.966 224.504 212.154 223.564 212.519 222.688C212.885 221.812 213.42 221.016 214.094 220.348L221.944 212.546C223.312 211.192 225.158 210.433 227.082 210.433C229.007 210.433 230.853 211.192 232.22 212.546C233.563 213.879 234.327 215.688 234.345 217.58C234.363 219.472 233.634 221.295 232.317 222.653Z" fill="#E3B002"/>
<path d="M229.98 236.338C228.664 237.697 227.937 239.521 227.956 241.413C227.976 243.305 228.741 245.113 230.085 246.445C232.922 249.266 237.516 249.266 240.361 246.445L248.211 238.651C248.974 237.896 249.557 236.981 249.92 235.971C250.283 234.961 250.415 233.883 250.306 232.816C250.198 231.749 249.853 230.719 249.295 229.803C248.737 228.887 247.981 228.107 247.083 227.52C245.706 226.614 244.063 226.201 242.421 226.347C240.779 226.494 239.235 227.191 238.04 228.326L237.935 228.439L230.085 236.233L229.98 236.338Z" fill="#E3B002"/>
<path d="M212.99 199.859C213.664 200.527 214.199 201.322 214.565 202.199C214.93 203.075 215.118 204.015 215.118 204.965C215.118 205.914 214.93 206.854 214.565 207.73C214.199 208.607 213.664 209.402 212.99 210.07L205.148 217.872C203.78 219.229 201.932 219.99 200.006 219.99C198.079 219.99 196.231 219.229 194.864 217.872C194.189 217.204 193.654 216.408 193.289 215.532C192.924 214.656 192.735 213.716 192.735 212.766C192.735 211.817 192.924 210.877 193.289 210.001C193.654 209.124 194.189 208.329 194.864 207.661L202.722 199.859C204.089 198.505 205.936 197.745 207.86 197.745C209.784 197.745 211.631 198.505 212.998 199.859H212.99Z" fill="#E3B002"/>
<path d="M264.201 244.323C264.876 244.991 265.411 245.786 265.776 246.663C266.141 247.539 266.329 248.479 266.329 249.428C266.329 250.378 266.141 251.318 265.776 252.194C265.411 253.071 264.876 253.866 264.201 254.534L256.351 262.336C254.988 263.698 253.14 264.463 251.213 264.463C249.286 264.463 247.438 263.698 246.075 262.336C245.004 261.275 244.295 259.904 244.046 258.417C243.797 256.93 244.022 255.403 244.689 254.051L244.697 254.035C245.048 253.327 245.514 252.681 246.075 252.124L253.925 244.323C255.293 242.969 257.139 242.209 259.063 242.209C260.988 242.209 262.834 242.969 264.201 244.323Z" fill="#E3B002"/>
<path d="M211.733 146.848C217.084 141.531 223.574 137.499 230.711 135.058C237.848 132.616 245.447 131.827 252.934 132.751L232.97 147.887C230.891 149.46 229.144 151.428 227.83 153.679C226.515 155.929 225.658 158.418 225.309 161.001C224.96 163.584 225.125 166.21 225.796 168.729C226.466 171.248 227.628 173.609 229.214 175.677C232.418 179.853 237.142 182.592 242.358 183.297C247.573 184.002 252.855 182.616 257.053 179.441L270.625 169.165H304.355L332.621 197.052C332.712 197.164 332.809 197.272 332.911 197.374L342.18 206.643C344.264 208.757 345.459 211.59 345.518 214.559C345.576 217.527 344.494 220.405 342.494 222.6C340.493 224.794 337.728 226.138 334.766 226.354C331.805 226.57 328.874 225.643 326.576 223.762L325.802 222.988C325.652 222.836 325.49 222.696 325.319 222.569L316.509 213.768C316.137 213.383 315.693 213.076 315.201 212.865C314.709 212.653 314.181 212.542 313.646 212.538C313.111 212.533 312.58 212.635 312.085 212.838C311.589 213.04 311.139 213.339 310.761 213.718C310.383 214.096 310.083 214.546 309.881 215.041C309.678 215.537 309.576 216.067 309.581 216.602C309.586 217.137 309.697 217.666 309.908 218.158C310.119 218.65 310.426 219.094 310.811 219.466L320.08 228.735C320.418 229.065 320.757 229.387 321.111 229.694L321.466 230.048C322.892 231.611 323.661 233.663 323.613 235.778C323.565 237.893 322.703 239.908 321.207 241.404C319.711 242.9 317.696 243.761 315.581 243.809C313.466 243.858 311.414 243.089 309.852 241.662L308.482 240.3C307.913 239.734 307.189 239.349 306.4 239.197C305.612 239.045 304.797 239.131 304.058 239.446C303.319 239.76 302.691 240.288 302.255 240.961C301.818 241.635 301.592 242.423 301.607 243.226C301.595 243.771 301.693 244.313 301.897 244.819C302.101 245.324 302.405 245.783 302.792 246.168L304.589 247.965C305.33 248.663 305.923 249.502 306.333 250.432C306.744 251.363 306.963 252.367 306.978 253.384C306.993 254.402 306.804 255.412 306.422 256.354C306.04 257.297 305.472 258.154 304.753 258.873C304.034 259.592 303.177 260.16 302.234 260.542C301.292 260.924 300.282 261.113 299.264 261.098C298.247 261.083 297.243 260.863 296.313 260.453C295.382 260.043 294.543 259.45 293.845 258.709H293.829L293.74 258.604L292.048 256.912C291.676 256.527 291.232 256.22 290.74 256.008C290.248 255.797 289.719 255.686 289.184 255.681C288.649 255.677 288.119 255.779 287.623 255.981C287.128 256.184 286.678 256.483 286.3 256.862C285.921 257.24 285.622 257.69 285.42 258.185C285.217 258.68 285.115 259.211 285.12 259.746C285.124 260.281 285.235 260.81 285.447 261.302C285.658 261.793 285.965 262.238 286.35 262.61L288.107 264.375C288.83 265.089 289.406 265.939 289.801 266.876C290.196 267.813 290.402 268.819 290.409 269.835C290.415 270.852 290.221 271.86 289.838 272.802C289.455 273.744 288.89 274.601 288.175 275.324C287.461 276.047 286.611 276.623 285.674 277.018C284.737 277.413 283.732 277.62 282.715 277.626C281.698 277.632 280.69 277.438 279.748 277.055C278.807 276.672 277.95 276.107 277.226 275.393L265.693 264.431L269.916 260.224C271.34 258.812 272.47 257.133 273.242 255.282C274.013 253.431 274.41 251.445 274.41 249.44C274.41 247.435 274.013 245.45 273.242 243.599C272.47 241.748 271.34 240.068 269.916 238.656C268.41 237.158 266.61 235.988 264.629 235.221C262.647 234.454 260.529 234.106 258.407 234.199C258.501 232.084 258.15 229.973 257.379 228.002C256.607 226.031 255.43 224.243 253.925 222.754C252.419 221.257 250.618 220.089 248.637 219.323C246.656 218.558 244.538 218.211 242.416 218.305C242.508 216.192 242.157 214.082 241.386 212.113C240.614 210.143 239.438 208.357 237.935 206.869C236.02 204.967 233.64 203.601 231.032 202.908C228.423 202.215 225.679 202.219 223.073 202.919C222.623 199.606 221.09 196.534 218.712 194.183C216.061 191.554 212.546 189.977 208.82 189.743C205.094 189.509 201.41 190.634 198.45 192.909C196.548 184.737 196.77 176.215 199.095 168.153C201.42 160.091 205.771 152.759 211.733 146.856V146.848Z" fill="#E3B002"/>
<rect x="586.5" y="363.5" width="263" height="59" stroke="#E3B002"/>
<path d="M663 391L671 399L679 391" stroke="#E3B002" stroke-width="2" stroke-linecap="round" stroke-linejoin="round"/>
<path d="M696.219 400.102C695.335 400.102 694.485 399.96 693.669 399.677C692.864 399.394 692.241 399.02 691.799 398.555L692.292 397.586C692.723 398.017 693.295 398.368 694.009 398.64C694.723 398.901 695.46 399.031 696.219 399.031C697.284 399.031 698.083 398.838 698.616 398.453C699.149 398.056 699.415 397.546 699.415 396.923C699.415 396.447 699.268 396.067 698.973 395.784C698.69 395.501 698.338 395.285 697.919 395.138C697.5 394.979 696.916 394.809 696.168 394.628C695.273 394.401 694.559 394.186 694.026 393.982C693.493 393.767 693.034 393.444 692.649 393.013C692.275 392.582 692.088 391.999 692.088 391.262C692.088 390.661 692.247 390.117 692.564 389.63C692.881 389.131 693.369 388.735 694.026 388.44C694.683 388.145 695.499 387.998 696.474 387.998C697.154 387.998 697.817 388.094 698.463 388.287C699.12 388.468 699.687 388.723 700.163 389.052L699.738 390.055C699.239 389.726 698.707 389.483 698.14 389.324C697.573 389.154 697.018 389.069 696.474 389.069C695.431 389.069 694.644 389.273 694.111 389.681C693.59 390.078 693.329 390.593 693.329 391.228C693.329 391.704 693.471 392.089 693.754 392.384C694.049 392.667 694.411 392.888 694.842 393.047C695.284 393.194 695.873 393.359 696.61 393.54C697.483 393.755 698.185 393.971 698.718 394.186C699.262 394.39 699.721 394.707 700.095 395.138C700.469 395.557 700.656 396.13 700.656 396.855C700.656 397.456 700.492 398.005 700.163 398.504C699.846 398.991 699.353 399.382 698.684 399.677C698.015 399.96 697.194 400.102 696.219 400.102ZM710.928 395.903H703.448C703.516 396.832 703.873 397.586 704.519 398.164C705.165 398.731 705.981 399.014 706.967 399.014C707.522 399.014 708.032 398.918 708.497 398.725C708.962 398.521 709.364 398.226 709.704 397.841L710.384 398.623C709.987 399.099 709.489 399.462 708.888 399.711C708.299 399.96 707.647 400.085 706.933 400.085C706.015 400.085 705.199 399.892 704.485 399.507C703.782 399.11 703.233 398.566 702.836 397.875C702.439 397.184 702.241 396.402 702.241 395.529C702.241 394.656 702.428 393.874 702.802 393.183C703.187 392.492 703.709 391.953 704.366 391.568C705.035 391.183 705.783 390.99 706.61 390.99C707.437 390.99 708.18 391.183 708.837 391.568C709.494 391.953 710.01 392.492 710.384 393.183C710.758 393.863 710.945 394.645 710.945 395.529L710.928 395.903ZM706.61 392.027C705.749 392.027 705.023 392.305 704.434 392.86C703.856 393.404 703.527 394.118 703.448 395.002H709.789C709.71 394.118 709.375 393.404 708.786 392.86C708.208 392.305 707.483 392.027 706.61 392.027ZM721.188 395.903H713.708C713.776 396.832 714.133 397.586 714.779 398.164C715.425 398.731 716.241 399.014 717.227 399.014C717.782 399.014 718.292 398.918 718.757 398.725C719.221 398.521 719.624 398.226 719.964 397.841L720.644 398.623C720.247 399.099 719.748 399.462 719.148 399.711C718.558 399.96 717.907 400.085 717.193 400.085C716.275 400.085 715.459 399.892 714.745 399.507C714.042 399.11 713.492 398.566 713.096 397.875C712.699 397.184 712.501 396.402 712.501 395.529C712.501 394.656 712.688 393.874 713.062 393.183C713.447 392.492 713.968 391.953 714.626 391.568C715.294 391.183 716.042 390.99 716.87 390.99C717.697 390.99 718.439 391.183 719.097 391.568C719.754 391.953 720.27 392.492 720.644 393.183C721.018 393.863 721.205 394.645 721.205 395.529L721.188 395.903ZM716.87 392.027C716.008 392.027 715.283 392.305 714.694 392.86C714.116 393.404 713.787 394.118 713.708 395.002H720.049C719.969 394.118 719.635 393.404 719.046 392.86C718.468 392.305 717.742 392.027 716.87 392.027ZM728.111 391.058H729.318V400H728.111V391.058ZM728.723 389.103C728.473 389.103 728.264 389.018 728.094 388.848C727.924 388.678 727.839 388.474 727.839 388.236C727.839 388.009 727.924 387.811 728.094 387.641C728.264 387.471 728.473 387.386 728.723 387.386C728.972 387.386 729.182 387.471 729.352 387.641C729.522 387.8 729.607 387.992 729.607 388.219C729.607 388.468 729.522 388.678 729.352 388.848C729.182 389.018 728.972 389.103 728.723 389.103ZM737.232 390.99C738.354 390.99 739.244 391.319 739.901 391.976C740.57 392.622 740.904 393.568 740.904 394.815V400H739.697V394.934C739.697 394.005 739.465 393.296 739 392.809C738.535 392.322 737.872 392.078 737.011 392.078C736.048 392.078 735.283 392.367 734.716 392.945C734.161 393.512 733.883 394.299 733.883 395.308V400H732.676V391.058H733.832V392.707C734.161 392.163 734.614 391.744 735.192 391.449C735.781 391.143 736.461 390.99 737.232 390.99ZM746.578 400.085C745.853 400.085 745.156 399.983 744.487 399.779C743.83 399.564 743.314 399.297 742.94 398.98L743.484 398.028C743.858 398.323 744.328 398.566 744.895 398.759C745.462 398.94 746.051 399.031 746.663 399.031C747.479 399.031 748.08 398.906 748.465 398.657C748.862 398.396 749.06 398.034 749.06 397.569C749.06 397.24 748.952 396.985 748.737 396.804C748.522 396.611 748.25 396.47 747.921 396.379C747.592 396.277 747.156 396.181 746.612 396.09C745.887 395.954 745.303 395.818 744.861 395.682C744.419 395.535 744.039 395.291 743.722 394.951C743.416 394.611 743.263 394.141 743.263 393.54C743.263 392.792 743.575 392.18 744.198 391.704C744.821 391.228 745.688 390.99 746.799 390.99C747.377 390.99 747.955 391.069 748.533 391.228C749.111 391.375 749.587 391.574 749.961 391.823L749.434 392.792C748.697 392.282 747.819 392.027 746.799 392.027C746.028 392.027 745.445 392.163 745.048 392.435C744.663 392.707 744.47 393.064 744.47 393.506C744.47 393.846 744.578 394.118 744.793 394.322C745.02 394.526 745.297 394.679 745.626 394.781C745.955 394.872 746.408 394.968 746.986 395.07C747.7 395.206 748.272 395.342 748.703 395.478C749.134 395.614 749.502 395.846 749.808 396.175C750.114 396.504 750.267 396.957 750.267 397.535C750.267 398.317 749.938 398.94 749.281 399.405C748.635 399.858 747.734 400.085 746.578 400.085ZM752.498 391.058H753.705V400H752.498V391.058ZM753.11 389.103C752.861 389.103 752.651 389.018 752.481 388.848C752.311 388.678 752.226 388.474 752.226 388.236C752.226 388.009 752.311 387.811 752.481 387.641C752.651 387.471 752.861 387.386 753.11 387.386C753.36 387.386 753.569 387.471 753.739 387.641C753.909 387.8 753.994 387.992 753.994 388.219C753.994 388.468 753.909 388.678 753.739 388.848C753.569 389.018 753.36 389.103 753.11 389.103ZM765.224 387.386V400H764.068V398.232C763.705 398.833 763.224 399.292 762.623 399.609C762.034 399.926 761.365 400.085 760.617 400.085C759.778 400.085 759.019 399.892 758.339 399.507C757.659 399.122 757.126 398.583 756.741 397.892C756.356 397.201 756.163 396.413 756.163 395.529C756.163 394.645 756.356 393.857 756.741 393.166C757.126 392.475 757.659 391.942 758.339 391.568C759.019 391.183 759.778 390.99 760.617 390.99C761.342 390.99 761.994 391.143 762.572 391.449C763.161 391.744 763.643 392.18 764.017 392.758V387.386H765.224ZM760.719 399.014C761.342 399.014 761.903 398.872 762.402 398.589C762.912 398.294 763.309 397.881 763.592 397.348C763.887 396.815 764.034 396.209 764.034 395.529C764.034 394.849 763.887 394.243 763.592 393.71C763.309 393.177 762.912 392.769 762.402 392.486C761.903 392.191 761.342 392.044 760.719 392.044C760.084 392.044 759.512 392.191 759.002 392.486C758.503 392.769 758.107 393.177 757.812 393.71C757.529 394.243 757.387 394.849 757.387 395.529C757.387 396.209 757.529 396.815 757.812 397.348C758.107 397.881 758.503 398.294 759.002 398.589C759.512 398.872 760.084 399.014 760.719 399.014ZM776.371 395.903H768.891C768.959 396.832 769.316 397.586 769.962 398.164C770.608 398.731 771.424 399.014 772.41 399.014C772.966 399.014 773.476 398.918 773.94 398.725C774.405 398.521 774.807 398.226 775.147 397.841L775.827 398.623C775.431 399.099 774.932 399.462 774.331 399.711C773.742 399.96 773.09 400.085 772.376 400.085C771.458 400.085 770.642 399.892 769.928 399.507C769.226 399.11 768.676 398.566 768.279 397.875C767.883 397.184 767.684 396.402 767.684 395.529C767.684 394.656 767.871 393.874 768.245 393.183C768.631 392.492 769.152 391.953 769.809 391.568C770.478 391.183 771.226 390.99 772.053 390.99C772.881 390.99 773.623 391.183 774.28 391.568C774.938 391.953 775.453 392.492 775.827 393.183C776.201 393.863 776.388 394.645 776.388 395.529L776.371 395.903ZM772.053 392.027C771.192 392.027 770.467 392.305 769.877 392.86C769.299 393.404 768.971 394.118 768.891 395.002H775.232C775.153 394.118 774.819 393.404 774.229 392.86C773.651 392.305 772.926 392.027 772.053 392.027Z" fill="#E3B002"/>
<path d="M587.517 111.545V129H591.097V117.597H591.241L595.759 128.915H598.196L602.713 117.639H602.858V129H606.438V111.545H601.886L597.08 123.273H596.875L592.068 111.545H587.517ZM625.518 120.273C625.518 114.562 621.972 111.307 617.344 111.307C612.691 111.307 609.171 114.562 609.171 120.273C609.171 125.957 612.691 129.239 617.344 129.239C621.972 129.239 625.518 125.983 625.518 120.273ZM621.776 120.273C621.776 123.972 620.021 125.974 617.344 125.974C614.66 125.974 612.913 123.972 612.913 120.273C612.913 116.574 614.66 114.571 617.344 114.571C620.021 114.571 621.776 116.574 621.776 120.273ZM634.439 129C639.757 129 642.979 125.71 642.979 120.256C642.979 114.818 639.757 111.545 634.49 111.545H628.251V129H634.439ZM631.942 125.838V114.707H634.294C637.567 114.707 639.297 116.378 639.297 120.256C639.297 124.151 637.567 125.838 634.286 125.838H631.942ZM656.494 111.545V122.565C656.494 124.56 655.096 126 652.948 126C650.809 126 649.403 124.56 649.403 122.565V111.545H645.712V122.881C645.712 126.699 648.593 129.247 652.948 129.247C657.286 129.247 660.184 126.699 660.184 122.881V111.545H656.494ZM663.22 129H674.393V125.957H666.911V111.545H663.22V129ZM676.837 129H688.633V125.957H680.528V121.79H687.994V118.747H680.528V114.588H688.599V111.545H676.837V129ZM704.579 111.545H701.11L696.789 114.281V117.554L700.786 115.048H700.888V129H704.579V111.545Z" fill="#888888"/>
<path d="M618.425 188.258C617.494 180.531 611.646 176.088 603.903 176.088C595.066 176.088 588.32 182.328 588.32 193.273C588.32 204.185 594.952 210.457 603.903 210.457C612.479 210.457 617.658 204.756 618.425 198.598L611.271 198.565C610.601 202.143 607.791 204.201 604.018 204.201C598.938 204.201 595.491 200.428 595.491 193.273C595.491 186.314 598.888 182.344 604.067 182.344C607.938 182.344 610.732 184.582 611.271 188.258H618.425ZM623.367 210H630.326V195.805C630.326 192.717 632.58 190.594 635.651 190.594C636.615 190.594 637.938 190.757 638.591 190.969V184.795C637.971 184.648 637.105 184.55 636.402 184.55C633.593 184.55 631.289 186.183 630.375 189.287H630.113V184.909H623.367V210ZM652.456 210.49C658.663 210.49 662.845 207.468 663.825 202.812L657.389 202.388C656.687 204.299 654.89 205.295 652.57 205.295C649.091 205.295 646.885 202.992 646.885 199.251V199.235H663.972V197.324C663.972 188.797 658.81 184.582 652.178 184.582C644.795 184.582 640.008 189.826 640.008 197.569C640.008 205.524 644.729 210.49 652.456 210.49ZM646.885 194.923C647.032 192.064 649.205 189.777 652.292 189.777C655.314 189.777 657.405 191.933 657.422 194.923H646.885ZM675.668 210.474C679.376 210.474 681.778 208.857 683.003 206.521H683.199V210H689.798V193.077C689.798 187.098 684.734 184.582 679.148 184.582C673.136 184.582 669.183 187.457 668.219 192.031L674.655 192.554C675.129 190.888 676.616 189.663 679.115 189.663C681.483 189.663 682.839 190.855 682.839 192.913V193.011C682.839 194.629 681.124 194.841 676.763 195.266C671.797 195.723 667.337 197.389 667.337 202.992C667.337 207.958 670.882 210.474 675.668 210.474ZM677.661 205.671C675.521 205.671 673.986 204.675 673.986 202.763C673.986 200.803 675.603 199.839 678.053 199.496C679.572 199.284 682.055 198.925 682.888 198.369V201.032C682.888 203.662 680.716 205.671 677.661 205.671ZM708.543 184.909H703.822V178.898H696.863V184.909H693.433V190.136H696.863V203.205C696.83 208.121 700.179 210.555 705.227 210.343C707.024 210.278 708.298 209.918 709 209.69L707.906 204.511C707.563 204.577 706.828 204.74 706.174 204.74C704.786 204.74 703.822 204.217 703.822 202.29V190.136H708.543V184.909ZM724.241 210.49C730.448 210.49 734.63 207.468 735.61 202.812L729.174 202.388C728.472 204.299 726.675 205.295 724.355 205.295C720.876 205.295 718.671 202.992 718.671 199.251V199.235H735.757V197.324C735.757 188.797 730.595 184.582 723.963 184.582C716.58 184.582 711.794 189.826 711.794 197.569C711.794 205.524 716.514 210.49 724.241 210.49ZM718.671 194.923C718.818 192.064 720.99 189.777 724.078 189.777C727.1 189.777 729.191 191.933 729.207 194.923H718.671ZM758.1 210.474C761.808 210.474 764.209 208.857 765.434 206.521H765.63V210H772.23V193.077C772.23 187.098 767.166 184.582 761.579 184.582C755.568 184.582 751.615 187.457 750.651 192.031L757.087 192.554C757.561 190.888 759.047 189.663 761.547 189.663C763.915 189.663 765.271 190.855 765.271 192.913V193.011C765.271 194.629 763.556 194.841 759.194 195.266C754.228 195.723 749.769 197.389 749.769 202.992C749.769 207.958 753.314 210.474 758.1 210.474ZM760.093 205.671C757.953 205.671 756.417 204.675 756.417 202.763C756.417 200.803 758.034 199.839 760.485 199.496C762.004 199.284 764.487 198.925 765.32 198.369V201.032C765.32 203.662 763.147 205.671 760.093 205.671ZM777.629 210H784.587V194.939C784.587 192.162 786.352 190.316 788.671 190.316C790.958 190.316 792.494 191.884 792.494 194.351V210H799.24V194.678C799.24 192.08 800.727 190.316 803.259 190.316C805.48 190.316 807.146 191.705 807.146 194.498V210H814.089V193.126C814.089 187.686 810.854 184.582 806.183 184.582C802.507 184.582 799.648 186.461 798.619 189.336H798.358C797.558 186.428 794.993 184.582 791.546 184.582C788.165 184.582 785.6 186.379 784.555 189.336H784.261V184.909H777.629V210ZM826.74 210.474C830.449 210.474 832.85 208.857 834.075 206.521H834.271V210H840.87V193.077C840.87 187.098 835.806 184.582 830.22 184.582C824.208 184.582 820.255 187.457 819.292 192.031L825.728 192.554C826.201 190.888 827.688 189.663 830.187 189.663C832.556 189.663 833.912 190.855 833.912 192.913V193.011C833.912 194.629 832.196 194.841 827.835 195.266C822.869 195.723 818.409 197.389 818.409 202.992C818.409 207.958 821.954 210.474 826.74 210.474ZM828.733 205.671C826.593 205.671 825.058 204.675 825.058 202.763C825.058 200.803 826.675 199.839 829.125 199.496C830.645 199.284 833.127 198.925 833.961 198.369V201.032C833.961 203.662 831.788 205.671 828.733 205.671ZM846.138 210H867.227V204.446H855.27V204.266L866.803 189.434V184.909H846.563V190.463H858.423V190.643L846.138 205.851V210ZM872.548 210H879.507V184.909H872.548V210ZM876.044 181.675C878.119 181.675 879.818 180.09 879.818 178.146C879.818 176.219 878.119 174.634 876.044 174.634C873.986 174.634 872.287 176.219 872.287 178.146C872.287 180.09 873.986 181.675 876.044 181.675ZM892.04 195.494C892.057 192.26 893.984 190.365 896.794 190.365C899.587 190.365 901.27 192.195 901.254 195.266V210H908.212V194.024C908.212 188.176 904.782 184.582 899.555 184.582C895.83 184.582 893.135 186.412 892.008 189.336H891.714V184.909H885.082V210H892.04V195.494ZM925.001 219.932C932.172 219.932 937.269 216.665 937.269 210.245V184.909H930.359V189.124H930.097C929.166 187.082 927.124 184.582 922.926 184.582C917.421 184.582 912.766 188.862 912.766 197.406C912.766 205.753 917.291 209.641 922.943 209.641C926.945 209.641 929.183 207.631 930.097 205.557H930.392V210.147C930.392 213.594 928.186 214.933 925.164 214.933C922.093 214.933 920.541 213.594 919.97 212.075L913.534 212.94C914.367 216.893 918.238 219.932 925.001 219.932ZM925.148 204.413C921.734 204.413 919.872 201.702 919.872 197.373C919.872 193.109 921.701 190.12 925.148 190.12C928.529 190.12 930.424 192.979 930.424 197.373C930.424 201.8 928.497 204.413 925.148 204.413ZM966.946 184.909H961.963V183.227C961.963 181.528 962.65 180.531 964.691 180.531C965.525 180.531 966.374 180.711 966.929 180.891L968.154 175.663C967.289 175.402 965.377 174.977 963.238 174.977C958.517 174.977 955.005 177.64 955.005 183.096V184.909H951.46V190.136H955.005V210H961.963V190.136H966.946V184.909ZM971.197 210H978.156V184.909H971.197V210ZM974.693 181.675C976.767 181.675 978.466 180.09 978.466 178.146C978.466 176.219 976.767 174.634 974.693 174.634C972.634 174.634 970.936 176.219 970.936 178.146C970.936 180.09 972.634 181.675 974.693 181.675ZM983.73 210H990.689V195.805C990.689 192.717 992.943 190.594 996.014 190.594C996.978 190.594 998.301 190.757 998.955 190.969V184.795C998.334 184.648 997.468 184.55 996.766 184.55C993.956 184.55 991.653 186.183 990.738 189.287H990.477V184.909H983.73V210ZM1023.43 192.064C1022.81 187.441 1019.08 184.582 1012.75 184.582C1006.33 184.582 1002.09 187.555 1002.11 192.391C1002.09 196.148 1004.46 198.582 1009.36 199.562L1013.71 200.428C1015.9 200.869 1016.89 201.669 1016.93 202.927C1016.89 204.413 1015.28 205.475 1012.84 205.475C1010.36 205.475 1008.71 204.413 1008.29 202.371L1001.44 202.731C1002.09 207.533 1006.18 210.49 1012.83 210.49C1019.33 210.49 1023.98 207.174 1024 202.224C1023.98 198.598 1021.62 196.425 1016.75 195.429L1012.21 194.514C1009.87 194.008 1009 193.207 1009.02 191.999C1009 190.496 1010.7 189.516 1012.86 189.516C1015.28 189.516 1016.72 190.839 1017.06 192.456L1023.43 192.064ZM1041.73 184.909H1037.01V178.898H1030.05V184.909H1026.62V190.136H1030.05V203.205C1030.02 208.121 1033.36 210.555 1038.41 210.343C1040.21 210.278 1041.48 209.918 1042.19 209.69L1041.09 204.511C1040.75 204.577 1040.01 204.74 1039.36 204.74C1037.97 204.74 1037.01 204.217 1037.01 202.29V190.136H1041.73V184.909ZM588.777 266H595.736V240.909H588.777V266ZM592.273 237.675C594.347 237.675 596.046 236.09 596.046 234.146C596.046 232.219 594.347 230.634 592.273 230.634C590.214 230.634 588.516 232.219 588.516 234.146C588.516 236.09 590.214 237.675 592.273 237.675ZM601.31 266H608.269V250.939C608.269 248.162 610.033 246.316 612.353 246.316C614.64 246.316 616.175 247.884 616.175 250.351V266H622.922V250.678C622.922 248.08 624.408 246.316 626.94 246.316C629.162 246.316 630.828 247.705 630.828 250.498V266H637.77V249.126C637.77 243.686 634.536 240.582 629.864 240.582C626.189 240.582 623.33 242.461 622.301 245.336H622.04C621.239 242.428 618.675 240.582 615.228 240.582C611.846 240.582 609.282 242.379 608.236 245.336H607.942V240.909H601.31V266ZM643.267 275.409H650.226V261.982H650.438C651.402 264.072 653.509 266.408 657.561 266.408C663.278 266.408 667.737 261.884 667.737 253.487C667.737 244.862 663.082 240.582 657.577 240.582C653.379 240.582 651.369 243.082 650.438 245.124H650.128V240.909H643.267V275.409ZM650.079 253.455C650.079 248.979 651.974 246.12 655.355 246.12C658.802 246.12 660.632 249.109 660.632 253.455C660.632 257.832 658.769 260.871 655.355 260.871C652.007 260.871 650.079 257.93 650.079 253.455ZM672.377 266H679.335V251.805C679.335 248.717 681.59 246.594 684.661 246.594C685.624 246.594 686.948 246.757 687.601 246.969V240.795C686.98 240.648 686.115 240.55 685.412 240.55C682.602 240.55 680.299 242.183 679.384 245.287H679.123V240.909H672.377V266ZM701.466 266.49C707.673 266.49 711.855 263.468 712.835 258.812L706.399 258.388C705.696 260.299 703.9 261.295 701.58 261.295C698.1 261.295 695.895 258.992 695.895 255.251V255.235H712.982V253.324C712.982 244.797 707.82 240.582 701.188 240.582C693.804 240.582 689.018 245.826 689.018 253.569C689.018 261.524 693.739 266.49 701.466 266.49ZM695.895 250.923C696.042 248.064 698.215 245.777 701.302 245.777C704.324 245.777 706.415 247.933 706.431 250.923H695.895ZM738.4 248.064C737.779 243.441 734.054 240.582 727.716 240.582C721.297 240.582 717.066 243.555 717.082 248.391C717.066 252.148 719.434 254.582 724.335 255.562L728.68 256.428C730.869 256.869 731.865 257.669 731.898 258.927C731.865 260.413 730.248 261.475 727.814 261.475C725.331 261.475 723.681 260.413 723.257 258.371L716.412 258.731C717.066 263.533 721.15 266.49 727.798 266.49C734.299 266.49 738.955 263.174 738.971 258.224C738.955 254.598 736.586 252.425 731.718 251.429L727.177 250.514C724.841 250.008 723.975 249.207 723.992 247.999C723.975 246.496 725.674 245.516 727.831 245.516C730.248 245.516 731.686 246.839 732.029 248.456L738.4 248.064ZM764.23 248.064C763.609 243.441 759.884 240.582 753.546 240.582C747.127 240.582 742.896 243.555 742.912 248.391C742.896 252.148 745.264 254.582 750.165 255.562L754.51 256.428C756.699 256.869 757.695 257.669 757.728 258.927C757.695 260.413 756.078 261.475 753.644 261.475C751.161 261.475 749.512 260.413 749.087 258.371L742.242 258.731C742.896 263.533 746.98 266.49 753.628 266.49C760.129 266.49 764.785 263.174 764.801 258.224C764.785 254.598 762.416 252.425 757.548 251.429L753.007 250.514C750.671 250.008 749.806 249.207 749.822 247.999C749.806 246.496 751.504 245.516 753.661 245.516C756.078 245.516 757.516 246.839 757.859 248.456L764.23 248.064ZM769.183 266H776.142V240.909H769.183V266ZM772.679 237.675C774.754 237.675 776.452 236.09 776.452 234.146C776.452 232.219 774.754 230.634 772.679 230.634C770.621 230.634 768.922 232.219 768.922 234.146C768.922 236.09 770.621 237.675 772.679 237.675ZM793.053 266.49C800.665 266.49 805.403 261.279 805.403 253.553C805.403 245.777 800.665 240.582 793.053 240.582C785.441 240.582 780.704 245.777 780.704 253.553C780.704 261.279 785.441 266.49 793.053 266.49ZM793.086 261.099C789.574 261.099 787.777 257.881 787.777 253.504C787.777 249.126 789.574 245.891 793.086 245.891C796.532 245.891 798.329 249.126 798.329 253.504C798.329 257.881 796.532 261.099 793.086 261.099ZM816.886 251.494C816.903 248.26 818.83 246.365 821.64 246.365C824.433 246.365 826.116 248.195 826.099 251.266V266H833.058V250.024C833.058 244.176 829.628 240.582 824.4 240.582C820.676 240.582 817.981 242.412 816.854 245.336H816.559V240.909H809.927V266H816.886V251.494ZM859.419 248.064C858.798 243.441 855.074 240.582 848.736 240.582C842.316 240.582 838.085 243.555 838.102 248.391C838.085 252.148 840.454 254.582 845.354 255.562L849.7 256.428C851.888 256.869 852.885 257.669 852.918 258.927C852.885 260.413 851.268 261.475 848.834 261.475C846.351 261.475 844.701 260.413 844.276 258.371L837.432 258.731C838.085 263.533 842.169 266.49 848.817 266.49C855.319 266.49 859.974 263.174 859.991 258.224C859.974 254.598 857.606 252.425 852.738 251.429L848.197 250.514C845.861 250.008 844.995 249.207 845.011 247.999C844.995 246.496 846.694 245.516 848.85 245.516C851.268 245.516 852.705 246.839 853.048 248.456L859.419 248.064ZM890.652 249.501H875.395V255.023H890.652V249.501ZM918.663 266.49C924.87 266.49 929.052 263.468 930.032 258.812L923.596 258.388C922.894 260.299 921.097 261.295 918.777 261.295C915.298 261.295 913.093 258.992 913.093 255.251V255.235H930.179V253.324C930.179 244.797 925.017 240.582 918.385 240.582C911.002 240.582 906.215 245.826 906.215 253.569C906.215 261.524 910.936 266.49 918.663 266.49ZM913.093 250.923C913.24 248.064 915.412 245.777 918.499 245.777C921.521 245.777 923.612 247.933 923.629 250.923H913.093ZM957.394 240.909H950.026L944.832 258.862H944.57L939.36 240.909H932.009L940.781 266H948.622L957.394 240.909ZM971.536 266.49C977.743 266.49 981.925 263.468 982.905 258.812L976.469 258.388C975.767 260.299 973.97 261.295 971.65 261.295C968.171 261.295 965.966 258.992 965.966 255.251V255.235H983.052V253.324C983.052 244.797 977.89 240.582 971.258 240.582C963.875 240.582 959.088 245.826 959.088 253.569C959.088 261.524 963.809 266.49 971.536 266.49ZM965.966 250.923C966.113 248.064 968.285 245.777 971.373 245.777C974.395 245.777 976.485 247.933 976.502 250.923H965.966ZM987.593 266H994.552V251.805C994.552 248.717 996.806 246.594 999.877 246.594C1000.84 246.594 1002.16 246.757 1002.82 246.969V240.795C1002.2 240.648 1001.33 240.55 1000.63 240.55C997.819 240.55 995.516 242.183 994.601 245.287H994.34V240.909H987.593V266ZM1011.48 275.409C1016.65 275.409 1019.4 272.763 1020.82 268.712L1030.57 240.942L1023.2 240.909L1017.96 259.335H1017.7L1012.5 240.909H1005.19L1014.19 266.719L1013.78 267.781C1012.86 270.133 1011.12 270.247 1008.67 269.496L1007.1 274.69C1008.09 275.115 1009.71 275.409 1011.48 275.409ZM602.123 296.909H597.402V290.898H590.443V296.909H587.013V302.136H590.443V315.205C590.411 320.121 593.759 322.555 598.807 322.343C600.604 322.278 601.878 321.918 602.58 321.69L601.486 316.511C601.143 316.577 600.408 316.74 599.754 316.74C598.366 316.74 597.402 316.217 597.402 314.29V302.136H602.123V296.909ZM606.656 322H613.615V296.909H606.656V322ZM610.152 293.675C612.226 293.675 613.925 292.09 613.925 290.146C613.925 288.219 612.226 286.634 610.152 286.634C608.093 286.634 606.395 288.219 606.395 290.146C606.395 292.09 608.093 293.675 610.152 293.675ZM619.189 322H626.148V306.939C626.148 304.162 627.912 302.316 630.232 302.316C632.519 302.316 634.054 303.884 634.054 306.351V322H640.801V306.678C640.801 304.08 642.287 302.316 644.819 302.316C647.041 302.316 648.707 303.705 648.707 306.498V322H655.649V305.126C655.649 299.686 652.415 296.582 647.743 296.582C644.068 296.582 641.209 298.461 640.18 301.336H639.919C639.118 298.428 636.553 296.582 633.107 296.582C629.725 296.582 627.161 298.379 626.115 301.336H625.821V296.909H619.189V322ZM672.581 322.49C678.788 322.49 682.97 319.468 683.95 314.812L677.514 314.388C676.812 316.299 675.015 317.295 672.695 317.295C669.216 317.295 667.01 314.992 667.01 311.251V311.235H684.097V309.324C684.097 300.797 678.935 296.582 672.303 296.582C664.92 296.582 660.133 301.826 660.133 309.569C660.133 317.524 664.854 322.49 672.581 322.49ZM667.01 306.923C667.157 304.064 669.33 301.777 672.417 301.777C675.439 301.777 677.53 303.933 677.547 306.923H667.01ZM692.706 322.425C694.797 322.425 696.61 320.677 696.626 318.504C696.61 316.364 694.797 314.616 692.706 314.616C690.55 314.616 688.769 316.364 688.785 318.504C688.769 320.677 690.55 322.425 692.706 322.425Z" fill="black"/>
</svg>
