<svg width="459" height="530" viewBox="0 0 459 530" fill="none" xmlns="http://www.w3.org/2000/svg">
<path d="M74.7545 0H458.721V529.398H72.0361L74.7545 0Z" fill="#292929"/>
<path d="M0 29.2222L74.7545 0L72.7157 528.718L0 500.855V29.2222Z" fill="#1F1F1F"/>
<path d="M183.582 378.146L179.184 371.794H178.924H174.33V378.146H169.052V355.342H178.924C180.943 355.342 182.692 355.678 184.169 356.352C185.667 357.025 186.818 357.981 187.622 359.218C188.426 360.456 188.827 361.922 188.827 363.617C188.827 365.311 188.415 366.777 187.589 368.015C186.786 369.231 185.635 370.165 184.136 370.816L189.251 378.146H183.582ZM183.485 363.617C183.485 362.335 183.072 361.358 182.247 360.685C181.421 359.99 180.216 359.642 178.63 359.642H174.33V367.591H178.63C180.216 367.591 181.421 367.244 182.247 366.549C183.072 365.854 183.485 364.876 183.485 363.617ZM210.666 373.911V378.146H193.009V355.342H210.243V359.577H198.254V364.529H208.842V368.634H198.254V373.911H210.666ZM222.359 378.537C220.556 378.537 218.808 378.299 217.114 377.821C215.441 377.321 214.095 376.68 213.074 375.899L214.866 371.924C215.843 372.641 217.005 373.216 218.352 373.651C219.698 374.085 221.045 374.302 222.391 374.302C223.89 374.302 224.998 374.085 225.714 373.651C226.431 373.195 226.789 372.597 226.789 371.859C226.789 371.316 226.572 370.871 226.138 370.523C225.725 370.154 225.182 369.861 224.509 369.644C223.857 369.426 222.967 369.187 221.837 368.927C220.1 368.514 218.677 368.102 217.57 367.689C216.462 367.276 215.506 366.614 214.703 365.702C213.921 364.789 213.53 363.573 213.53 362.053C213.53 360.728 213.888 359.533 214.605 358.469C215.322 357.383 216.397 356.525 217.83 355.895C219.285 355.266 221.056 354.951 223.141 354.951C224.596 354.951 226.018 355.124 227.408 355.472C228.798 355.819 230.015 356.319 231.057 356.971L229.428 360.978C227.321 359.783 225.215 359.186 223.108 359.186C221.631 359.186 220.534 359.425 219.818 359.903C219.123 360.38 218.775 361.01 218.775 361.792C218.775 362.574 219.177 363.16 219.98 363.551C220.806 363.921 222.055 364.29 223.727 364.659C225.464 365.072 226.887 365.484 227.995 365.897C229.102 366.31 230.047 366.961 230.829 367.852C231.633 368.742 232.034 369.948 232.034 371.468C232.034 372.771 231.665 373.966 230.927 375.052C230.21 376.116 229.124 376.963 227.669 377.593C226.214 378.223 224.444 378.537 222.359 378.537ZM246.685 378.537C244.317 378.537 242.178 378.027 240.267 377.006C238.377 375.985 236.89 374.585 235.804 372.804C234.739 371.001 234.207 368.981 234.207 366.744C234.207 364.507 234.739 362.498 235.804 360.717C236.89 358.914 238.377 357.503 240.267 356.482C242.178 355.461 244.317 354.951 246.685 354.951C249.052 354.951 251.181 355.461 253.07 356.482C254.96 357.503 256.447 358.914 257.533 360.717C258.619 362.498 259.162 364.507 259.162 366.744C259.162 368.981 258.619 371.001 257.533 372.804C256.447 374.585 254.96 375.985 253.07 377.006C251.181 378.027 249.052 378.537 246.685 378.537ZM246.685 374.042C248.031 374.042 249.248 373.738 250.334 373.129C251.419 372.5 252.266 371.631 252.875 370.523C253.504 369.415 253.819 368.156 253.819 366.744C253.819 365.332 253.504 364.073 252.875 362.965C252.266 361.857 251.419 360.999 250.334 360.391C249.248 359.761 248.031 359.447 246.685 359.447C245.338 359.447 244.122 359.761 243.036 360.391C241.95 360.999 241.092 361.857 240.462 362.965C239.854 364.073 239.55 365.332 239.55 366.744C239.55 368.156 239.854 369.415 240.462 370.523C241.092 371.631 241.95 372.5 243.036 373.129C244.122 373.738 245.338 374.042 246.685 374.042ZM263.129 355.342H268.406V373.846H279.841V378.146H263.129V355.342ZM303.125 355.342L293.253 378.146H288.041L278.202 355.342H283.903L290.843 371.631L297.88 355.342H303.125ZM305.029 355.342H310.306V378.146H305.029V355.342ZM336.634 355.342V378.146H332.301L320.931 364.301V378.146H315.718V355.342H320.084L331.421 369.187V355.342H336.634ZM357.439 366.386H362.26V375.638C361.022 376.572 359.589 377.289 357.96 377.788C356.331 378.288 354.691 378.537 353.041 378.537C350.673 378.537 348.545 378.038 346.655 377.039C344.766 376.018 343.278 374.617 342.192 372.836C341.128 371.034 340.596 369.003 340.596 366.744C340.596 364.485 341.128 362.465 342.192 360.685C343.278 358.882 344.777 357.481 346.688 356.482C348.599 355.461 350.749 354.951 353.138 354.951C355.137 354.951 356.95 355.287 358.579 355.961C360.208 356.634 361.576 357.611 362.684 358.893L359.296 362.02C357.667 360.304 355.701 359.447 353.399 359.447C351.944 359.447 350.652 359.751 349.522 360.359C348.393 360.967 347.513 361.825 346.883 362.932C346.254 364.04 345.939 365.311 345.939 366.744C345.939 368.156 346.254 369.415 346.883 370.523C347.513 371.631 348.382 372.5 349.49 373.129C350.619 373.738 351.9 374.042 353.334 374.042C354.854 374.042 356.223 373.716 357.439 373.064V366.386ZM192.931 418.537C190.607 418.537 188.5 418.038 186.61 417.039C184.743 416.018 183.266 414.617 182.18 412.836C181.116 411.034 180.583 409.003 180.583 406.744C180.583 404.485 181.116 402.465 182.18 400.685C183.266 398.882 184.743 397.481 186.61 396.482C188.5 395.461 190.618 394.951 192.963 394.951C194.94 394.951 196.721 395.298 198.306 395.993C199.913 396.688 201.26 397.687 202.346 398.99L198.958 402.118C197.416 400.337 195.504 399.447 193.224 399.447C191.812 399.447 190.552 399.761 189.445 400.391C188.337 400.999 187.468 401.857 186.838 402.965C186.23 404.073 185.926 405.332 185.926 406.744C185.926 408.156 186.23 409.415 186.838 410.523C187.468 411.631 188.337 412.5 189.445 413.129C190.552 413.738 191.812 414.042 193.224 414.042C195.504 414.042 197.416 413.14 198.958 411.338L202.346 414.465C201.26 415.79 199.913 416.8 198.306 417.495C196.699 418.19 194.907 418.537 192.931 418.537ZM216.477 418.537C214.109 418.537 211.97 418.027 210.059 417.006C208.169 415.985 206.681 414.585 205.595 412.804C204.531 411.001 203.999 408.981 203.999 406.744C203.999 404.507 204.531 402.498 205.595 400.717C206.681 398.914 208.169 397.503 210.059 396.482C211.97 395.461 214.109 394.951 216.477 394.951C218.844 394.951 220.972 395.461 222.862 396.482C224.752 397.503 226.239 398.914 227.325 400.717C228.411 402.498 228.954 404.507 228.954 406.744C228.954 408.981 228.411 411.001 227.325 412.804C226.239 414.585 224.752 415.985 222.862 417.006C220.972 418.027 218.844 418.537 216.477 418.537ZM216.477 414.042C217.823 414.042 219.039 413.738 220.125 413.129C221.211 412.5 222.058 411.631 222.667 410.523C223.296 409.415 223.611 408.156 223.611 406.744C223.611 405.332 223.296 404.073 222.667 402.965C222.058 401.857 221.211 400.999 220.125 400.391C219.039 399.761 217.823 399.447 216.477 399.447C215.13 399.447 213.914 399.761 212.828 400.391C211.742 400.999 210.884 401.857 210.254 402.965C209.646 404.073 209.342 405.332 209.342 406.744C209.342 408.156 209.646 409.415 210.254 410.523C210.884 411.631 211.742 412.5 212.828 413.129C213.914 413.738 215.13 414.042 216.477 414.042ZM253.836 395.342V418.146H249.503L238.133 404.301V418.146H232.921V395.342H237.286L248.623 409.187V395.342H253.836ZM264.509 399.577V405.604H275.064V409.839H264.509V418.146H259.231V395.342H276.465V399.577H264.509ZM280.038 395.342H285.316V413.846H296.751V418.146H280.038V395.342ZM299.7 395.342H304.977V418.146H299.7V395.342ZM321.303 418.537C318.979 418.537 316.873 418.038 314.983 417.039C313.115 416.018 311.638 414.617 310.552 412.836C309.488 411.034 308.956 409.003 308.956 406.744C308.956 404.485 309.488 402.465 310.552 400.685C311.638 398.882 313.115 397.481 314.983 396.482C316.873 395.461 318.99 394.951 321.336 394.951C323.312 394.951 325.093 395.298 326.679 395.993C328.286 396.688 329.632 397.687 330.718 398.99L327.33 402.118C325.788 400.337 323.877 399.447 321.596 399.447C320.185 399.447 318.925 399.761 317.817 400.391C316.71 400.999 315.841 401.857 315.211 402.965C314.603 404.073 314.299 405.332 314.299 406.744C314.299 408.156 314.603 409.415 315.211 410.523C315.841 411.631 316.71 412.5 317.817 413.129C318.925 413.738 320.185 414.042 321.596 414.042C323.877 414.042 325.788 413.14 327.33 411.338L330.718 414.465C329.632 415.79 328.286 416.8 326.679 417.495C325.071 418.19 323.28 418.537 321.303 418.537ZM338.784 399.642H331.486V395.342H351.359V399.642H344.061V418.146H338.784V399.642Z" fill="white"/>
<path d="M271.154 125.717C271.154 122.594 268.623 120.062 265.5 120.062C262.377 120.062 259.846 122.594 259.846 125.717V149.942C259.846 153.065 262.377 155.596 265.5 155.596C268.623 155.596 271.154 153.065 271.154 149.942V125.717Z" fill="#0290F1"/>
<path d="M237.277 159.997C238.38 161.099 239.827 161.653 241.275 161.653C242.721 161.653 244.168 161.101 245.273 159.997C247.48 157.788 247.48 154.208 245.273 152L233.159 139.887C230.951 137.678 227.372 137.678 225.163 139.887C222.954 142.096 222.954 145.675 225.163 147.884L237.277 159.997Z" fill="#0290F1"/>
<path d="M289.725 161.652C291.173 161.652 292.62 161.099 293.723 159.995L305.837 147.883C308.044 145.675 308.044 142.094 305.837 139.887C303.628 137.678 300.049 137.678 297.84 139.887L285.727 152C283.519 154.208 283.519 157.788 285.727 159.995C286.832 161.099 288.279 161.652 289.725 161.652Z" fill="#0290F1"/>
<path d="M249.142 174.688C249.083 174.736 249.027 174.784 248.974 174.828L224.528 195.784C222.264 197.725 219.369 198.795 216.383 198.795H198.874C182.374 198.795 169 212.146 169 228.669V283.184C169 286.306 171.531 288.838 174.654 288.838H223.105C226.229 288.838 228.759 286.304 228.759 283.184V231.276L257.531 206.614C259.001 205.355 259.846 203.516 259.846 201.581V179.872C259.846 174.351 253.432 171.21 249.142 174.688Z" fill="#0290F1"/>
<path d="M332.126 198.795H314.617C311.631 198.795 308.736 197.725 306.472 195.782L282.026 174.828C281.973 174.784 281.917 174.736 281.858 174.688C277.568 171.21 271.154 174.351 271.154 179.872V201.581C271.154 203.516 271.999 205.355 273.469 206.614L302.241 231.276V283.183C302.241 286.304 304.771 288.837 307.895 288.837H356.346C359.469 288.837 362 286.306 362 283.183V228.669C362 212.146 348.626 198.795 332.126 198.795Z" fill="#0290F1"/>
<path d="M222.703 174.972C222.703 161.836 212.015 151.148 198.879 151.148C185.743 151.148 175.056 161.836 175.056 174.972C175.056 188.109 185.743 198.796 198.879 198.796C212.015 198.796 222.703 188.109 222.703 174.972Z" fill="#0290F1"/>
<path d="M355.944 174.972C355.944 161.836 345.256 151.148 332.121 151.148C318.985 151.148 308.297 161.836 308.297 174.972C308.297 188.109 318.985 198.796 332.121 198.796C345.256 198.796 355.944 188.109 355.944 174.972Z" fill="#0290F1"/>
</svg>
