<svg width="467" height="538" viewBox="0 0 467 538" fill="none" xmlns="http://www.w3.org/2000/svg">
<g filter="url(#filter0_d)">
<path d="M78.7545 0H462.721V529.398H76.0361L78.7545 0Z" fill="#292929"/>
<path d="M4 29.2232L78.7545 0.000976562L76.7157 528.719L4 500.856V29.2232Z" fill="#1F1F1F"/>
<path d="M151.874 378.536C148.616 378.536 146.075 377.635 144.25 375.832C142.448 374.03 141.546 371.456 141.546 368.111V355.341H146.824V367.916C146.824 371.999 148.518 374.041 151.906 374.041C153.557 374.041 154.816 373.552 155.685 372.575C156.554 371.576 156.988 370.023 156.988 367.916V355.341H162.201V368.111C162.201 371.456 161.289 374.03 159.464 375.832C157.662 377.635 155.131 378.536 151.874 378.536ZM188.332 355.341V378.146H183.999L172.629 364.3V378.146H167.416V355.341H171.782L183.119 369.186V355.341H188.332ZM201.22 378.536C199.417 378.536 197.669 378.298 195.975 377.82C194.303 377.32 192.956 376.679 191.935 375.898L193.727 371.923C194.704 372.64 195.866 373.215 197.213 373.65C198.559 374.084 199.906 374.301 201.253 374.301C202.751 374.301 203.859 374.084 204.576 373.65C205.292 373.194 205.651 372.596 205.651 371.858C205.651 371.315 205.434 370.87 204.999 370.522C204.586 370.153 204.043 369.86 203.37 369.643C202.719 369.425 201.828 369.186 200.699 368.926C198.961 368.513 197.539 368.101 196.431 367.688C195.323 367.275 194.368 366.613 193.564 365.701C192.782 364.788 192.391 363.572 192.391 362.052C192.391 360.727 192.75 359.532 193.466 358.468C194.183 357.382 195.258 356.524 196.692 355.895C198.147 355.265 199.917 354.95 202.002 354.95C203.457 354.95 204.88 355.123 206.27 355.471C207.66 355.818 208.876 356.318 209.918 356.97L208.29 360.977C206.183 359.782 204.076 359.185 201.969 359.185C200.492 359.185 199.396 359.424 198.679 359.902C197.984 360.379 197.636 361.009 197.636 361.791C197.636 362.573 198.038 363.159 198.842 363.55C199.667 363.92 200.916 364.289 202.588 364.658C204.326 365.071 205.748 365.483 206.856 365.896C207.964 366.309 208.909 366.96 209.69 367.851C210.494 368.741 210.896 369.947 210.896 371.467C210.896 372.77 210.527 373.965 209.788 375.051C209.071 376.115 207.985 376.962 206.53 377.592C205.075 378.222 203.305 378.536 201.22 378.536ZM235.417 355.341V378.146H230.14V368.796H219.78V378.146H214.502V355.341H219.78V364.332H230.14V355.341H235.417ZM255.831 373.259H245.244L243.224 378.146H237.816L247.98 355.341H253.193L263.39 378.146H257.851L255.831 373.259ZM254.17 369.252L250.554 360.521L246.938 369.252H254.17ZM274.063 369.186L271.001 372.379V378.146H265.756V355.341H271.001V365.994L281.1 355.341H286.964L277.516 365.505L287.518 378.146H281.361L274.063 369.186ZM307.529 373.91V378.146H289.871V355.341H307.105V359.576H295.116V364.528H305.704V368.633H295.116V373.91H307.529ZM326.747 373.259H316.159L314.139 378.146H308.731L318.895 355.341H324.108L334.305 378.146H328.766L326.747 373.259ZM325.085 369.252L321.469 360.521L317.853 369.252H325.085ZM353.416 366.287C354.719 366.7 355.74 367.395 356.478 368.372C357.217 369.328 357.586 370.511 357.586 371.923C357.586 373.921 356.804 375.463 355.24 376.549C353.698 377.613 351.44 378.146 348.464 378.146H336.671V355.341H347.813C350.593 355.341 352.721 355.873 354.198 356.937C355.697 358.001 356.446 359.446 356.446 361.27C356.446 362.378 356.174 363.366 355.631 364.235C355.11 365.103 354.372 365.787 353.416 366.287ZM341.916 359.315V364.691H347.161C348.464 364.691 349.452 364.463 350.126 364.007C350.799 363.55 351.136 362.877 351.136 361.987C351.136 361.096 350.799 360.434 350.126 359.999C349.452 359.543 348.464 359.315 347.161 359.315H341.916ZM348.073 374.171C349.463 374.171 350.506 373.943 351.201 373.487C351.917 373.031 352.276 372.325 352.276 371.369C352.276 369.48 350.875 368.535 348.073 368.535H341.916V374.171H348.073ZM361.582 355.341H366.859V373.845H378.294V378.146H361.582V355.341ZM398.901 373.91V378.146H381.243V355.341H398.477V359.576H386.488V364.528H397.076V368.633H386.488V373.91H398.901ZM168.563 418.536C166.239 418.536 164.132 418.037 162.243 417.038C160.375 416.017 158.898 414.616 157.812 412.835C156.748 411.033 156.216 409.002 156.216 406.743C156.216 404.484 156.748 402.464 157.812 400.684C158.898 398.881 160.375 397.48 162.243 396.481C164.132 395.46 166.25 394.95 168.595 394.95C170.572 394.95 172.353 395.297 173.938 395.992C175.545 396.687 176.892 397.686 177.978 398.989L174.59 402.117C173.048 400.336 171.137 399.446 168.856 399.446C167.444 399.446 166.185 399.76 165.077 400.39C163.969 400.998 163.101 401.856 162.471 402.964C161.863 404.072 161.558 405.331 161.558 406.743C161.558 408.155 161.863 409.415 162.471 410.522C163.101 411.63 163.969 412.499 165.077 413.128C166.185 413.737 167.444 414.041 168.856 414.041C171.137 414.041 173.048 413.139 174.59 411.337L177.978 414.464C176.892 415.789 175.545 416.799 173.938 417.494C172.331 418.189 170.539 418.536 168.563 418.536ZM192.109 418.536C189.741 418.536 187.602 418.026 185.691 417.005C183.801 415.984 182.314 414.584 181.228 412.803C180.163 411 179.631 408.98 179.631 406.743C179.631 404.506 180.163 402.497 181.228 400.716C182.314 398.913 183.801 397.502 185.691 396.481C187.602 395.46 189.741 394.95 192.109 394.95C194.476 394.95 196.605 395.46 198.494 396.481C200.384 397.502 201.871 398.913 202.957 400.716C204.043 402.497 204.586 404.506 204.586 406.743C204.586 408.98 204.043 411 202.957 412.803C201.871 414.584 200.384 415.984 198.494 417.005C196.605 418.026 194.476 418.536 192.109 418.536ZM192.109 414.041C193.455 414.041 194.672 413.737 195.758 413.128C196.844 412.499 197.691 411.63 198.299 410.522C198.929 409.415 199.243 408.155 199.243 406.743C199.243 405.331 198.929 404.072 198.299 402.964C197.691 401.856 196.844 400.998 195.758 400.39C194.672 399.76 193.455 399.446 192.109 399.446C190.762 399.446 189.546 399.76 188.46 400.39C187.374 400.998 186.516 401.856 185.886 402.964C185.278 404.072 184.974 405.331 184.974 406.743C184.974 408.155 185.278 409.415 185.886 410.522C186.516 411.63 187.374 412.499 188.46 413.128C189.546 413.737 190.762 414.041 192.109 414.041ZM229.468 395.341V418.146H225.135L213.765 404.3V418.146H208.553V395.341H212.918L224.255 409.186V395.341H229.468ZM240.141 399.576V405.603H250.697V409.838H240.141V418.146H234.864V395.341H252.097V399.576H240.141ZM255.67 395.341H260.948V418.146H255.67V395.341ZM266.36 395.341H276.72C279.196 395.341 281.379 395.818 283.268 396.774C285.18 397.708 286.656 399.033 287.699 400.749C288.763 402.464 289.295 404.463 289.295 406.743C289.295 409.024 288.763 411.022 287.699 412.738C286.656 414.453 285.18 415.789 283.268 416.745C281.379 417.679 279.196 418.146 276.72 418.146H266.36V395.341ZM276.459 413.813C278.74 413.813 280.553 413.183 281.9 411.923C283.268 410.642 283.952 408.915 283.952 406.743C283.952 404.571 283.268 402.855 281.9 401.596C280.553 400.314 278.74 399.674 276.459 399.674H271.638V413.813H276.459ZM310.933 413.91V418.146H293.275V395.341H310.509V399.576H298.521V404.528H309.109V408.633H298.521V413.91H310.933ZM336.047 395.341V418.146H331.715L320.345 404.3V418.146H315.132V395.341H319.498L330.835 409.186V395.341H336.047ZM352.357 418.536C350.033 418.536 347.926 418.037 346.037 417.038C344.169 416.017 342.692 414.616 341.606 412.835C340.542 411.033 340.01 409.002 340.01 406.743C340.01 404.484 340.542 402.464 341.606 400.684C342.692 398.881 344.169 397.48 346.037 396.481C347.926 395.46 350.044 394.95 352.389 394.95C354.366 394.95 356.147 395.297 357.732 395.992C359.339 396.687 360.686 397.686 361.772 398.989L358.384 402.117C356.842 400.336 354.93 399.446 352.65 399.446C351.238 399.446 349.979 399.76 348.871 400.39C347.763 400.998 346.894 401.856 346.265 402.964C345.656 404.072 345.352 405.331 345.352 406.743C345.352 408.155 345.656 409.415 346.265 410.522C346.894 411.63 347.763 412.499 348.871 413.128C349.979 413.737 351.238 414.041 352.65 414.041C354.93 414.041 356.842 413.139 358.384 411.337L361.772 414.464C360.686 415.789 359.339 416.799 357.732 417.494C356.125 418.189 354.333 418.536 352.357 418.536ZM382.993 413.91V418.146H365.336V395.341H382.57V399.576H370.581V404.528H381.169V408.633H370.581V413.91H382.993Z" fill="white"/>
<g clip-path="url(#clip0)">
<path d="M269.379 145.835C271.92 145.834 274.435 145.333 276.783 144.36C279.13 143.388 281.262 141.962 283.059 140.165C284.855 138.368 286.279 136.234 287.251 133.887C288.223 131.539 288.723 129.023 288.722 126.482C288.722 123.941 288.22 121.425 287.247 119.078C286.275 116.731 284.849 114.598 283.052 112.802C281.255 111.006 279.121 109.581 276.774 108.61C274.426 107.638 271.91 107.138 269.369 107.139C264.238 107.14 259.317 109.18 255.689 112.809C252.062 116.438 250.024 121.36 250.026 126.492C250.027 131.623 252.067 136.544 255.696 140.172C259.325 143.799 264.247 145.836 269.379 145.835ZM327.196 219.176C323.473 202.008 316.963 173.835 307.447 162.171C298.191 150.826 279.544 150.352 269.379 150.352C259.214 150.352 240.567 150.826 231.311 162.171C221.794 173.835 215.285 202.008 211.561 219.176C209.501 228.683 222.723 232.174 226.175 222.609C231.311 208.363 235.276 196.399 243.962 186.476C248.527 214.591 231.679 263.52 230.692 290.91C230.69 293.171 231.481 295.361 232.926 297.1C234.371 298.839 236.38 300.016 238.603 300.428C240.826 300.839 243.124 300.459 245.095 299.353C247.067 298.247 248.589 296.485 249.397 294.373C253.817 279.024 269.379 236.314 269.379 236.314C269.379 236.314 284.941 279.024 289.36 294.373C290.168 296.485 291.69 298.247 293.662 299.353C295.634 300.459 297.931 300.839 300.154 300.428C302.377 300.016 304.386 298.839 305.831 297.1C307.277 295.361 308.067 293.171 308.066 290.91C307.079 263.52 290.231 214.591 294.796 186.485C303.481 196.408 307.447 208.372 312.582 222.619C316.025 232.174 329.256 228.683 327.196 219.176Z" fill="#E3B002"/>
</g>
</g>
<defs>
<filter id="filter0_d" x="0" y="0" width="466.721" height="537.398" filterUnits="userSpaceOnUse" color-interpolation-filters="sRGB">
<feFlood flood-opacity="0" result="BackgroundImageFix"/>
<feColorMatrix in="SourceAlpha" type="matrix" values="0 0 0 0 0 0 0 0 0 0 0 0 0 0 0 0 0 0 127 0"/>
<feOffset dy="4"/>
<feGaussianBlur stdDeviation="2"/>
<feColorMatrix type="matrix" values="0 0 0 0 0 0 0 0 0 0 0 0 0 0 0 0 0 0 0.25 0"/>
<feBlend mode="normal" in2="BackgroundImageFix" result="effect1_dropShadow"/>
<feBlend mode="normal" in="SourceGraphic" in2="effect1_dropShadow" result="shape"/>
</filter>
<clipPath id="clip0">
<rect width="193.434" height="193.434" fill="white" transform="translate(172.662 107.138)"/>
</clipPath>
</defs>
</svg>
