<svg width="470" height="543" viewBox="0 0 470 543" fill="none" xmlns="http://www.w3.org/2000/svg">
<path d="M76.5926 0H470V542.415H73.8074L76.5926 0Z" fill="#313131"/>
<path d="M0 44L76.5926 0L74.5037 541.719L0 513.17V44Z" fill="#1F1F1F"/>
<path d="M212.775 219.376V242.692C212.775 248.749 216.094 254.392 221.404 257.296L262.892 279.948C267.871 282.686 273.845 282.686 278.823 279.948L320.311 257.296C325.621 254.392 328.94 248.749 328.94 242.692V219.376L278.823 246.758C273.845 249.496 267.871 249.496 262.892 246.758L212.775 219.376ZM262.892 139.222L192.944 177.391C187.219 180.544 187.219 188.841 192.944 191.994L262.892 230.163C267.871 232.901 273.845 232.901 278.823 230.163L345.535 193.737V242.775C345.535 247.339 349.269 251.073 353.833 251.073C358.397 251.073 362.13 247.339 362.13 242.775V189.588C362.13 186.518 360.471 183.78 357.816 182.286L278.823 139.222C276.372 137.914 273.636 137.23 270.858 137.23C268.079 137.23 265.344 137.914 262.892 139.222Z" fill="#E3B002"/>
<path d="M175.943 366.24C172.665 366.24 169.693 365.535 167.027 364.126C164.393 362.686 162.309 360.71 160.777 358.198C159.276 355.655 158.526 352.79 158.526 349.604C158.526 346.418 159.276 343.569 160.777 341.056C162.309 338.513 164.393 336.537 167.027 335.128C169.693 333.688 172.68 332.968 175.989 332.968C178.777 332.968 181.289 333.458 183.525 334.439C185.793 335.419 187.692 336.828 189.224 338.667L184.445 343.078C182.269 340.566 179.573 339.31 176.356 339.31C174.365 339.31 172.588 339.754 171.025 340.643C169.463 341.501 168.238 342.711 167.349 344.273C166.491 345.836 166.062 347.613 166.062 349.604C166.062 351.595 166.491 353.372 167.349 354.935C168.238 356.497 169.463 357.723 171.025 358.611C172.588 359.469 174.365 359.898 176.356 359.898C179.573 359.898 182.269 358.627 184.445 356.084L189.224 360.495C187.692 362.364 185.793 363.789 183.525 364.769C181.258 365.75 178.731 366.24 175.943 366.24ZM208.773 340.597C211.837 340.597 214.303 341.516 216.172 343.354C218.072 345.192 219.021 347.919 219.021 351.534V365.688H211.852V352.637C211.852 350.676 211.423 349.221 210.566 348.271C209.708 347.291 208.467 346.801 206.843 346.801C205.036 346.801 203.596 347.368 202.523 348.501C201.451 349.604 200.915 351.258 200.915 353.464V365.688H193.746V331.589H200.915V343.538C201.865 342.588 203.014 341.868 204.362 341.378C205.71 340.857 207.18 340.597 208.773 340.597ZM235.492 340.597C239.322 340.597 242.263 341.516 244.316 343.354C246.368 345.162 247.395 347.904 247.395 351.58V365.688H240.685V362.609C239.337 364.907 236.825 366.056 233.148 366.056C231.249 366.056 229.595 365.734 228.185 365.091C226.807 364.448 225.75 363.559 225.014 362.426C224.279 361.292 223.911 360.005 223.911 358.565C223.911 356.268 224.769 354.46 226.485 353.143C228.231 351.825 230.912 351.167 234.527 351.167H240.226C240.226 349.604 239.751 348.409 238.801 347.582C237.851 346.724 236.427 346.295 234.527 346.295C233.21 346.295 231.908 346.51 230.621 346.939C229.365 347.337 228.292 347.888 227.404 348.593L224.83 343.584C226.179 342.634 227.787 341.899 229.656 341.378C231.555 340.857 233.501 340.597 235.492 340.597ZM234.941 361.231C236.166 361.231 237.254 360.955 238.204 360.404C239.153 359.821 239.827 358.979 240.226 357.876V355.348H235.308C232.367 355.348 230.897 356.314 230.897 358.244C230.897 359.163 231.249 359.898 231.954 360.45C232.689 360.97 233.685 361.231 234.941 361.231ZM260.73 344.227C261.588 343.032 262.737 342.129 264.177 341.516C265.648 340.903 267.333 340.597 269.232 340.597V347.214C268.436 347.153 267.899 347.122 267.624 347.122C265.571 347.122 263.963 347.705 262.798 348.869C261.634 350.002 261.052 351.718 261.052 354.016V365.688H253.883V340.964H260.73V344.227ZM273.495 340.964H280.664V365.688H273.495V340.964ZM277.079 337.518C275.762 337.518 274.69 337.135 273.863 336.369C273.035 335.603 272.622 334.653 272.622 333.52C272.622 332.386 273.035 331.436 273.863 330.67C274.69 329.904 275.762 329.521 277.079 329.521C278.397 329.521 279.469 329.889 280.296 330.624C281.124 331.36 281.537 332.279 281.537 333.382C281.537 334.577 281.124 335.572 280.296 336.369C279.469 337.135 278.397 337.518 277.079 337.518ZM295.635 366.056C293.583 366.056 291.576 365.811 289.615 365.321C287.654 364.8 286.092 364.157 284.928 363.391L287.317 358.244C288.42 358.948 289.753 359.53 291.316 359.99C292.878 360.419 294.41 360.633 295.911 360.633C298.944 360.633 300.461 359.883 300.461 358.382C300.461 357.677 300.047 357.171 299.22 356.865C298.393 356.559 297.121 356.298 295.406 356.084C293.384 355.777 291.714 355.425 290.396 355.027C289.079 354.629 287.93 353.924 286.95 352.913C286 351.902 285.525 350.462 285.525 348.593C285.525 347.031 285.969 345.652 286.858 344.457C287.777 343.232 289.094 342.282 290.81 341.608C292.556 340.934 294.609 340.597 296.968 340.597C298.714 340.597 300.445 340.796 302.161 341.194C303.907 341.562 305.347 342.083 306.481 342.757L304.091 347.858C301.916 346.632 299.542 346.019 296.968 346.019C295.436 346.019 294.287 346.234 293.521 346.663C292.756 347.092 292.373 347.643 292.373 348.317C292.373 349.083 292.786 349.619 293.613 349.926C294.441 350.232 295.758 350.523 297.566 350.799C299.588 351.136 301.242 351.504 302.529 351.902C303.816 352.269 304.934 352.959 305.884 353.97C306.833 354.981 307.308 356.39 307.308 358.198C307.308 359.73 306.849 361.093 305.929 362.288C305.01 363.483 303.662 364.417 301.885 365.091C300.139 365.734 298.056 366.056 295.635 366.056ZM343.395 340.597C346.489 340.597 348.94 341.516 350.748 343.354C352.586 345.162 353.505 347.888 353.505 351.534V365.688H346.336V352.637C346.336 350.676 345.922 349.221 345.095 348.271C344.299 347.291 343.15 346.801 341.648 346.801C339.963 346.801 338.631 347.352 337.65 348.455C336.67 349.527 336.18 351.136 336.18 353.28V365.688H329.011V352.637C329.011 348.746 327.448 346.801 324.323 346.801C322.669 346.801 321.351 347.352 320.371 348.455C319.391 349.527 318.9 351.136 318.9 353.28V365.688H311.731V340.964H318.579V343.814C319.498 342.772 320.616 341.975 321.934 341.424C323.282 340.872 324.752 340.597 326.345 340.597C328.092 340.597 329.669 340.949 331.079 341.654C332.488 342.328 333.622 343.323 334.479 344.641C335.49 343.354 336.762 342.358 338.294 341.654C339.856 340.949 341.557 340.597 343.395 340.597ZM369.903 340.597C373.733 340.597 376.674 341.516 378.727 343.354C380.779 345.162 381.806 347.904 381.806 351.58V365.688H375.096V362.609C373.748 364.907 371.236 366.056 367.559 366.056C365.66 366.056 364.006 365.734 362.596 365.091C361.218 364.448 360.161 363.559 359.425 362.426C358.69 361.292 358.322 360.005 358.322 358.565C358.322 356.268 359.18 354.46 360.896 353.143C362.642 351.825 365.323 351.167 368.938 351.167H374.637C374.637 349.604 374.162 348.409 373.212 347.582C372.262 346.724 370.838 346.295 368.938 346.295C367.621 346.295 366.319 346.51 365.032 346.939C363.776 347.337 362.703 347.888 361.815 348.593L359.242 343.584C360.59 342.634 362.198 341.899 364.067 341.378C365.966 340.857 367.912 340.597 369.903 340.597ZM369.352 361.231C370.577 361.231 371.665 360.955 372.615 360.404C373.564 359.821 374.238 358.979 374.637 357.876V355.348H369.719C366.778 355.348 365.308 356.314 365.308 358.244C365.308 359.163 365.66 359.898 366.365 360.45C367.1 360.97 368.096 361.231 369.352 361.231ZM167.704 422.24C163.109 422.24 159.524 420.969 156.951 418.426C154.408 415.883 153.136 412.252 153.136 407.534V389.52H160.581V407.258C160.581 413.018 162.971 415.898 167.75 415.898C170.078 415.898 171.855 415.209 173.081 413.83C174.306 412.421 174.919 410.23 174.919 407.258V389.52H182.272V407.534C182.272 412.252 180.985 415.883 178.412 418.426C175.869 420.969 172.3 422.24 167.704 422.24ZM204.151 396.597C207.215 396.597 209.681 397.516 211.55 399.354C213.449 401.192 214.399 403.919 214.399 407.534V421.688H207.23V408.637C207.23 406.676 206.801 405.221 205.943 404.271C205.085 403.291 203.844 402.801 202.221 402.801C200.413 402.801 198.973 403.368 197.901 404.501C196.829 405.604 196.292 407.258 196.292 409.464V421.688H189.123V396.964H195.971V399.86C196.92 398.818 198.1 398.021 199.509 397.47C200.919 396.888 202.466 396.597 204.151 396.597ZM220.897 396.964H228.066V421.688H220.897V396.964ZM224.482 393.518C223.164 393.518 222.092 393.135 221.265 392.369C220.438 391.603 220.024 390.653 220.024 389.52C220.024 388.386 220.438 387.436 221.265 386.67C222.092 385.904 223.164 385.521 224.482 385.521C225.799 385.521 226.872 385.889 227.699 386.624C228.526 387.36 228.94 388.279 228.94 389.382C228.94 390.577 228.526 391.572 227.699 392.369C226.872 393.135 225.799 393.518 224.482 393.518ZM259.26 396.964L248.828 421.688H241.429L231.043 396.964H238.442L245.29 413.784L252.367 396.964H259.26ZM285.731 409.418C285.731 409.51 285.685 410.154 285.593 411.348H266.889C267.226 412.88 268.023 414.09 269.279 414.979C270.535 415.867 272.097 416.312 273.966 416.312C275.253 416.312 276.387 416.128 277.367 415.76C278.378 415.362 279.312 414.749 280.17 413.922L283.985 418.058C281.656 420.723 278.255 422.056 273.782 422.056C270.995 422.056 268.528 421.52 266.384 420.448C264.239 419.345 262.585 417.828 261.42 415.898C260.256 413.968 259.674 411.777 259.674 409.326C259.674 406.906 260.241 404.731 261.374 402.801C262.539 400.84 264.116 399.323 266.108 398.251C268.13 397.148 270.382 396.597 272.863 396.597C275.284 396.597 277.474 397.118 279.435 398.159C281.396 399.201 282.928 400.702 284.031 402.663C285.164 404.593 285.731 406.845 285.731 409.418ZM272.909 402.019C271.286 402.019 269.922 402.479 268.819 403.398C267.716 404.317 267.042 405.573 266.797 407.167H278.975C278.73 405.604 278.056 404.363 276.953 403.444C275.85 402.494 274.502 402.019 272.909 402.019ZM297.351 400.227C298.209 399.032 299.358 398.129 300.798 397.516C302.268 396.903 303.953 396.597 305.853 396.597V403.214C305.056 403.153 304.52 403.122 304.245 403.122C302.192 403.122 300.583 403.705 299.419 404.869C298.255 406.002 297.673 407.718 297.673 410.016V421.688H290.504V396.964H297.351V400.227ZM318.523 422.056C316.471 422.056 314.464 421.811 312.503 421.321C310.543 420.8 308.98 420.157 307.816 419.391L310.205 414.244C311.308 414.948 312.641 415.53 314.204 415.99C315.766 416.419 317.298 416.633 318.799 416.633C321.832 416.633 323.349 415.883 323.349 414.382C323.349 413.677 322.935 413.171 322.108 412.865C321.281 412.559 320.009 412.298 318.294 412.084C316.272 411.777 314.602 411.425 313.285 411.027C311.967 410.629 310.818 409.924 309.838 408.913C308.888 407.902 308.413 406.462 308.413 404.593C308.413 403.031 308.857 401.652 309.746 400.457C310.665 399.232 311.982 398.282 313.698 397.608C315.444 396.934 317.497 396.597 319.856 396.597C321.602 396.597 323.333 396.796 325.049 397.194C326.795 397.562 328.235 398.083 329.369 398.757L326.979 403.858C324.804 402.632 322.43 402.019 319.856 402.019C318.324 402.019 317.175 402.234 316.409 402.663C315.644 403.092 315.261 403.643 315.261 404.317C315.261 405.083 315.674 405.619 316.501 405.926C317.329 406.232 318.646 406.523 320.454 406.799C322.476 407.136 324.13 407.504 325.417 407.902C326.704 408.269 327.822 408.959 328.772 409.97C329.721 410.981 330.196 412.39 330.196 414.198C330.196 415.73 329.737 417.093 328.818 418.288C327.898 419.483 326.55 420.417 324.773 421.091C323.027 421.734 320.944 422.056 318.523 422.056ZM334.619 396.964H341.788V421.688H334.619V396.964ZM338.204 393.518C336.887 393.518 335.814 393.135 334.987 392.369C334.16 391.603 333.746 390.653 333.746 389.52C333.746 388.386 334.16 387.436 334.987 386.67C335.814 385.904 336.887 385.521 338.204 385.521C339.521 385.521 340.594 385.889 341.421 386.624C342.248 387.36 342.662 388.279 342.662 389.382C342.662 390.577 342.248 391.572 341.421 392.369C340.594 393.135 339.521 393.518 338.204 393.518ZM364.389 420.494C363.684 421.014 362.811 421.413 361.769 421.688C360.758 421.934 359.686 422.056 358.552 422.056C355.611 422.056 353.329 421.306 351.705 419.804C350.112 418.303 349.315 416.097 349.315 413.187V403.031H345.501V397.516H349.315V391.496H356.484V397.516H362.642V403.031H356.484V413.095C356.484 414.136 356.745 414.948 357.265 415.53C357.817 416.082 358.583 416.358 359.563 416.358C360.697 416.358 361.662 416.051 362.458 415.439L364.389 420.494ZM392.504 396.964L381.337 423.205C380.204 426.054 378.794 428.061 377.109 429.225C375.455 430.389 373.448 430.971 371.089 430.971C369.802 430.971 368.531 430.772 367.275 430.374C366.019 429.976 364.992 429.424 364.196 428.72L366.815 423.619C367.367 424.109 367.995 424.492 368.699 424.767C369.435 425.043 370.155 425.181 370.859 425.181C371.84 425.181 372.636 424.936 373.249 424.446C373.862 423.986 374.413 423.205 374.903 422.102L374.995 421.872L364.288 396.964H371.686L378.626 413.738L385.611 396.964H392.504Z" fill="white"/>
</svg>
