<svg width="1592" height="260" viewBox="0 0 1592 260" fill="none" xmlns="http://www.w3.org/2000/svg">
<path d="M36.8473 0H225.422V260H35.5122L36.8473 0Z" fill="#292929"/>
<path d="M0.133545 14.3527L36.8473 0.000976562L35.846 259.667L0.133545 245.983V14.3527Z" fill="#1F1F1F"/>
<path d="M72.9704 183.6H67.7704L66.7784 186H64.1224L69.1144 174.8H71.6744L76.6824 186H73.9624L72.9704 183.6ZM72.1544 181.632L70.3784 177.344L68.6024 181.632H72.1544ZM88.0364 186L88.0204 179.28L84.7244 184.816H83.5564L80.2764 179.424V186H77.8444V174.8H79.9884L84.1804 181.76L88.3084 174.8H90.4364L90.4684 186H88.0364ZM100.502 183.6H95.3016L94.3096 186H91.6536L96.6456 174.8H99.2056L104.214 186H101.494L100.502 183.6ZM99.6856 181.632L97.9096 177.344L96.1336 181.632H99.6856ZM114.448 183.888V186H104.656V184.32L110.8 176.912H104.784V174.8H114.208V176.48L108.08 183.888H114.448ZM116.11 174.8H118.702V186H116.11V174.8ZM131.632 174.8V186H129.504L123.92 179.2V186H121.36V174.8H123.504L129.072 181.6V174.8H131.632ZM141.85 180.224H144.218V184.768C143.61 185.227 142.906 185.579 142.106 185.824C141.306 186.069 140.501 186.192 139.69 186.192C138.527 186.192 137.482 185.947 136.554 185.456C135.626 184.955 134.895 184.267 134.362 183.392C133.839 182.507 133.578 181.509 133.578 180.4C133.578 179.291 133.839 178.299 134.362 177.424C134.895 176.539 135.631 175.851 136.57 175.36C137.509 174.859 138.565 174.608 139.738 174.608C140.719 174.608 141.61 174.773 142.41 175.104C143.21 175.435 143.882 175.915 144.426 176.544L142.762 178.08C141.962 177.237 140.997 176.816 139.866 176.816C139.151 176.816 138.517 176.965 137.962 177.264C137.407 177.563 136.975 177.984 136.666 178.528C136.357 179.072 136.202 179.696 136.202 180.4C136.202 181.093 136.357 181.712 136.666 182.256C136.975 182.8 137.402 183.227 137.946 183.536C138.501 183.835 139.13 183.984 139.834 183.984C140.581 183.984 141.253 183.824 141.85 183.504V180.224ZM153.749 176.88V179.84H158.933V181.92H153.749V186H151.157V174.8H159.621V176.88H153.749ZM161.376 174.8H163.968V186H161.376V174.8ZM173.762 186L171.602 182.88H171.474H169.218V186H166.626V174.8H171.474C172.466 174.8 173.324 174.965 174.05 175.296C174.786 175.627 175.351 176.096 175.746 176.704C176.14 177.312 176.338 178.032 176.338 178.864C176.338 179.696 176.135 180.416 175.73 181.024C175.335 181.621 174.77 182.08 174.034 182.4L176.546 186H173.762ZM173.714 178.864C173.714 178.235 173.511 177.755 173.106 177.424C172.7 177.083 172.108 176.912 171.33 176.912H169.218V180.816H171.33C172.108 180.816 172.7 180.645 173.106 180.304C173.511 179.963 173.714 179.483 173.714 178.864ZM182.071 186.192C181.186 186.192 180.327 186.075 179.495 185.84C178.674 185.595 178.013 185.28 177.511 184.896L178.391 182.944C178.871 183.296 179.442 183.579 180.103 183.792C180.765 184.005 181.426 184.112 182.087 184.112C182.823 184.112 183.367 184.005 183.719 183.792C184.071 183.568 184.247 183.275 184.247 182.912C184.247 182.645 184.141 182.427 183.927 182.256C183.725 182.075 183.458 181.931 183.127 181.824C182.807 181.717 182.37 181.6 181.815 181.472C180.962 181.269 180.263 181.067 179.719 180.864C179.175 180.661 178.706 180.336 178.311 179.888C177.927 179.44 177.735 178.843 177.735 178.096C177.735 177.445 177.911 176.859 178.263 176.336C178.615 175.803 179.143 175.381 179.847 175.072C180.562 174.763 181.431 174.608 182.455 174.608C183.17 174.608 183.869 174.693 184.551 174.864C185.234 175.035 185.831 175.28 186.343 175.6L185.543 177.568C184.509 176.981 183.474 176.688 182.439 176.688C181.714 176.688 181.175 176.805 180.823 177.04C180.482 177.275 180.311 177.584 180.311 177.968C180.311 178.352 180.509 178.64 180.903 178.832C181.309 179.013 181.922 179.195 182.743 179.376C183.597 179.579 184.295 179.781 184.839 179.984C185.383 180.187 185.847 180.507 186.231 180.944C186.626 181.381 186.823 181.973 186.823 182.72C186.823 183.36 186.642 183.947 186.279 184.48C185.927 185.003 185.394 185.419 184.679 185.728C183.965 186.037 183.095 186.192 182.071 186.192ZM190.758 176.912H187.174V174.8H196.934V176.912H193.35V186H190.758V176.912ZM73.524 194.8H76.116V206H73.524V194.8ZM88.966 206L88.95 199.28L85.654 204.816H84.486L81.206 199.424V206H78.774V194.8H80.918L85.11 201.76L89.238 194.8H91.366L91.398 206H88.966ZM98.9033 194.8C99.8953 194.8 100.754 194.965 101.479 195.296C102.215 195.627 102.781 196.096 103.175 196.704C103.57 197.312 103.767 198.032 103.767 198.864C103.767 199.685 103.57 200.405 103.175 201.024C102.781 201.632 102.215 202.101 101.479 202.432C100.754 202.752 99.8953 202.912 98.9033 202.912H96.6473V206H94.0553V194.8H98.9033ZM98.7593 200.8C99.538 200.8 100.13 200.635 100.535 200.304C100.941 199.963 101.143 199.483 101.143 198.864C101.143 198.235 100.941 197.755 100.535 197.424C100.13 197.083 99.538 196.912 98.7593 196.912H96.6473V200.8H98.7593ZM112.754 206L110.594 202.88H110.466H108.21V206H105.618V194.8H110.466C111.458 194.8 112.316 194.965 113.042 195.296C113.778 195.627 114.343 196.096 114.738 196.704C115.132 197.312 115.33 198.032 115.33 198.864C115.33 199.696 115.127 200.416 114.722 201.024C114.327 201.621 113.762 202.08 113.026 202.4L115.538 206H112.754ZM112.706 198.864C112.706 198.235 112.503 197.755 112.098 197.424C111.692 197.083 111.1 196.912 110.322 196.912H108.21V200.816H110.322C111.1 200.816 111.692 200.645 112.098 200.304C112.503 199.963 112.706 199.483 112.706 198.864ZM126.055 203.92V206H117.383V194.8H125.847V196.88H119.959V199.312H125.159V201.328H119.959V203.92H126.055ZM131.798 206.192C130.912 206.192 130.054 206.075 129.222 205.84C128.4 205.595 127.739 205.28 127.238 204.896L128.118 202.944C128.598 203.296 129.168 203.579 129.83 203.792C130.491 204.005 131.152 204.112 131.814 204.112C132.55 204.112 133.094 204.005 133.446 203.792C133.798 203.568 133.974 203.275 133.974 202.912C133.974 202.645 133.867 202.427 133.654 202.256C133.451 202.075 133.184 201.931 132.854 201.824C132.534 201.717 132.096 201.6 131.542 201.472C130.688 201.269 129.99 201.067 129.446 200.864C128.902 200.661 128.432 200.336 128.038 199.888C127.654 199.44 127.462 198.843 127.462 198.096C127.462 197.445 127.638 196.859 127.99 196.336C128.342 195.803 128.87 195.381 129.574 195.072C130.288 194.763 131.158 194.608 132.182 194.608C132.896 194.608 133.595 194.693 134.278 194.864C134.96 195.035 135.558 195.28 136.07 195.6L135.27 197.568C134.235 196.981 133.2 196.688 132.166 196.688C131.44 196.688 130.902 196.805 130.55 197.04C130.208 197.275 130.038 197.584 130.038 197.968C130.038 198.352 130.235 198.64 130.63 198.832C131.035 199.013 131.648 199.195 132.47 199.376C133.323 199.579 134.022 199.781 134.566 199.984C135.11 200.187 135.574 200.507 135.958 200.944C136.352 201.381 136.55 201.973 136.55 202.72C136.55 203.36 136.368 203.947 136.006 204.48C135.654 205.003 135.12 205.419 134.406 205.728C133.691 206.037 132.822 206.192 131.798 206.192ZM142.001 206.192C141.116 206.192 140.257 206.075 139.425 205.84C138.604 205.595 137.942 205.28 137.441 204.896L138.321 202.944C138.801 203.296 139.372 203.579 140.033 203.792C140.694 204.005 141.356 204.112 142.017 204.112C142.753 204.112 143.297 204.005 143.649 203.792C144.001 203.568 144.177 203.275 144.177 202.912C144.177 202.645 144.07 202.427 143.857 202.256C143.654 202.075 143.388 201.931 143.057 201.824C142.737 201.717 142.3 201.6 141.745 201.472C140.892 201.269 140.193 201.067 139.649 200.864C139.105 200.661 138.636 200.336 138.241 199.888C137.857 199.44 137.665 198.843 137.665 198.096C137.665 197.445 137.841 196.859 138.193 196.336C138.545 195.803 139.073 195.381 139.777 195.072C140.492 194.763 141.361 194.608 142.385 194.608C143.1 194.608 143.798 194.693 144.481 194.864C145.164 195.035 145.761 195.28 146.273 195.6L145.473 197.568C144.438 196.981 143.404 196.688 142.369 196.688C141.644 196.688 141.105 196.805 140.753 197.04C140.412 197.275 140.241 197.584 140.241 197.968C140.241 198.352 140.438 198.64 140.833 198.832C141.238 199.013 141.852 199.195 142.673 199.376C143.526 199.579 144.225 199.781 144.769 199.984C145.313 200.187 145.777 200.507 146.161 200.944C146.556 201.381 146.753 201.973 146.753 202.72C146.753 203.36 146.572 203.947 146.209 204.48C145.857 205.003 145.324 205.419 144.609 205.728C143.894 206.037 143.025 206.192 142.001 206.192ZM148.524 194.8H151.116V206H148.524V194.8ZM159.198 206.192C158.035 206.192 156.985 205.941 156.046 205.44C155.118 204.939 154.387 204.251 153.854 203.376C153.331 202.491 153.07 201.499 153.07 200.4C153.07 199.301 153.331 198.315 153.854 197.44C154.387 196.555 155.118 195.861 156.046 195.36C156.985 194.859 158.035 194.608 159.198 194.608C160.361 194.608 161.406 194.859 162.334 195.36C163.262 195.861 163.993 196.555 164.526 197.44C165.059 198.315 165.326 199.301 165.326 200.4C165.326 201.499 165.059 202.491 164.526 203.376C163.993 204.251 163.262 204.939 162.334 205.44C161.406 205.941 160.361 206.192 159.198 206.192ZM159.198 203.984C159.859 203.984 160.457 203.835 160.99 203.536C161.523 203.227 161.939 202.8 162.238 202.256C162.547 201.712 162.702 201.093 162.702 200.4C162.702 199.707 162.547 199.088 162.238 198.544C161.939 198 161.523 197.579 160.99 197.28C160.457 196.971 159.859 196.816 159.198 196.816C158.537 196.816 157.939 196.971 157.406 197.28C156.873 197.579 156.451 198 156.142 198.544C155.843 199.088 155.694 199.707 155.694 200.4C155.694 201.093 155.843 201.712 156.142 202.256C156.451 202.8 156.873 203.227 157.406 203.536C157.939 203.835 158.537 203.984 159.198 203.984ZM177.546 194.8V206H175.418L169.834 199.2V206H167.274V194.8H169.418L174.986 201.6V194.8H177.546ZM183.876 206.192C182.991 206.192 182.132 206.075 181.3 205.84C180.479 205.595 179.817 205.28 179.316 204.896L180.196 202.944C180.676 203.296 181.247 203.579 181.908 203.792C182.569 204.005 183.231 204.112 183.892 204.112C184.628 204.112 185.172 204.005 185.524 203.792C185.876 203.568 186.052 203.275 186.052 202.912C186.052 202.645 185.945 202.427 185.732 202.256C185.529 202.075 185.263 201.931 184.932 201.824C184.612 201.717 184.175 201.6 183.62 201.472C182.767 201.269 182.068 201.067 181.524 200.864C180.98 200.661 180.511 200.336 180.116 199.888C179.732 199.44 179.54 198.843 179.54 198.096C179.54 197.445 179.716 196.859 180.068 196.336C180.42 195.803 180.948 195.381 181.652 195.072C182.367 194.763 183.236 194.608 184.26 194.608C184.975 194.608 185.673 194.693 186.356 194.864C187.039 195.035 187.636 195.28 188.148 195.6L187.348 197.568C186.313 196.981 185.279 196.688 184.244 196.688C183.519 196.688 182.98 196.805 182.628 197.04C182.287 197.275 182.116 197.584 182.116 197.968C182.116 198.352 182.313 198.64 182.708 198.832C183.113 199.013 183.727 199.195 184.548 199.376C185.401 199.579 186.1 199.781 186.644 199.984C187.188 200.187 187.652 200.507 188.036 200.944C188.431 201.381 188.628 201.973 188.628 202.72C188.628 203.36 188.447 203.947 188.084 204.48C187.732 205.003 187.199 205.419 186.484 205.728C185.769 206.037 184.9 206.192 183.876 206.192Z" fill="white"/>
<path d="M133.772 65.5156C133.993 65.3485 134.189 65.1513 134.354 64.9298H144.495L144.634 64.9258C145.353 64.8893 146.073 64.8893 146.791 64.9258H146.942C149.195 64.9208 151.421 65.4199 153.457 66.3864C157.177 67.845 160.394 70.35 162.72 73.5985C164.48 76.0581 165.678 78.875 166.228 81.8494C166.778 84.8238 166.667 87.8828 165.902 90.8094L152.915 77.9962C152.359 77.448 151.61 77.1408 150.829 77.1412H132.047C131.4 77.1444 130.771 77.3553 130.253 77.7429L122.796 83.3954C122.395 83.701 121.938 83.9247 121.451 84.0535C120.964 84.1823 120.456 84.2138 119.957 84.1462C119.458 84.0785 118.977 83.9131 118.542 83.6593C118.106 83.4054 117.725 83.0683 117.42 82.6671C117.117 82.2726 116.895 81.8219 116.767 81.3411C116.639 80.8603 116.607 80.3588 116.673 79.8657C116.74 79.3725 116.904 78.8975 117.155 78.4679C117.406 78.0383 117.74 77.6628 118.137 77.3629L133.772 65.5156Z" fill="#E3B002"/>
<path d="M114.23 109.351L114.179 109.402L110.323 113.234L110.272 113.282C109.597 113.924 108.698 114.278 107.766 114.269C106.835 114.26 105.943 113.889 105.28 113.234C104.949 112.906 104.686 112.515 104.507 112.085C104.328 111.654 104.235 111.193 104.235 110.726C104.235 110.26 104.328 109.798 104.507 109.368C104.686 108.938 104.949 108.547 105.28 108.219L109.136 104.387C109.807 103.722 110.714 103.349 111.659 103.349C112.604 103.349 113.511 103.722 114.183 104.387C114.842 105.042 115.217 105.93 115.226 106.859C115.235 107.788 114.877 108.684 114.23 109.351Z" fill="#E3B002"/>
<path d="M113.082 116.071C112.436 116.738 112.079 117.634 112.088 118.563C112.098 119.492 112.474 120.38 113.134 121.034C114.527 122.42 116.783 122.42 118.181 121.034L122.036 117.207C122.41 116.836 122.697 116.386 122.875 115.891C123.053 115.395 123.118 114.865 123.065 114.341C123.012 113.817 122.842 113.311 122.568 112.861C122.294 112.411 121.923 112.028 121.482 111.74C120.806 111.295 119.999 111.092 119.192 111.164C118.386 111.236 117.628 111.579 117.041 112.136L116.989 112.192L113.134 116.019L113.082 116.071Z" fill="#E3B002"/>
<path d="M104.738 98.1557C105.069 98.484 105.332 98.8746 105.511 99.305C105.691 99.7354 105.783 100.197 105.783 100.663C105.783 101.13 105.691 101.591 105.511 102.022C105.332 102.452 105.069 102.843 104.738 103.171L100.887 107.003C100.215 107.669 99.3072 108.043 98.3612 108.043C97.4152 108.043 96.5075 107.669 95.8358 107.003C95.5046 106.674 95.2418 106.284 95.0624 105.853C94.883 105.423 94.7906 104.961 94.7906 104.495C94.7906 104.029 94.883 103.567 95.0624 103.137C95.2418 102.706 95.5046 102.316 95.8358 101.987L99.6952 98.1557C100.367 97.4907 101.274 97.1177 102.219 97.1177C103.164 97.1177 104.071 97.4907 104.742 98.1557H104.738Z" fill="#E3B002"/>
<path d="M129.889 119.993C130.22 120.321 130.483 120.712 130.663 121.142C130.842 121.573 130.934 122.034 130.934 122.501C130.934 122.967 130.842 123.429 130.663 123.859C130.483 124.289 130.22 124.68 129.889 125.008L126.034 128.84C125.364 129.509 124.457 129.884 123.51 129.884C122.564 129.884 121.656 129.509 120.987 128.84C120.461 128.319 120.113 127.645 119.99 126.915C119.868 126.185 119.979 125.435 120.306 124.771L120.31 124.763C120.483 124.415 120.711 124.098 120.987 123.825L124.842 119.993C125.514 119.328 126.421 118.955 127.366 118.955C128.311 118.955 129.218 119.328 129.889 119.993Z" fill="#E3B002"/>
<path d="M104.121 72.1221C106.749 69.5109 109.936 67.5309 113.441 66.3316C116.947 65.1323 120.679 64.745 124.356 65.1989L114.551 72.6327C113.53 73.405 112.672 74.3717 112.026 75.477C111.38 76.5823 110.96 77.8044 110.788 79.073C110.617 80.3416 110.698 81.6315 111.027 82.8686C111.356 84.1057 111.927 85.2654 112.706 86.281C114.279 88.3317 116.6 89.6769 119.161 90.0232C121.723 90.3696 124.317 89.6888 126.378 88.1296L133.044 83.0827H149.61L163.492 96.7785C163.536 96.8337 163.584 96.8866 163.634 96.9368L168.186 101.489C169.21 102.527 169.797 103.919 169.826 105.377C169.854 106.835 169.323 108.248 168.34 109.326C167.358 110.404 166 111.063 164.545 111.17C163.091 111.276 161.651 110.82 160.523 109.896L160.143 109.516C160.069 109.442 159.99 109.373 159.905 109.311L155.579 104.988C155.396 104.799 155.178 104.648 154.937 104.545C154.695 104.441 154.435 104.386 154.173 104.384C153.91 104.382 153.649 104.432 153.406 104.531C153.163 104.631 152.942 104.778 152.756 104.964C152.57 105.149 152.423 105.37 152.324 105.614C152.224 105.857 152.174 106.117 152.176 106.38C152.179 106.643 152.233 106.903 152.337 107.144C152.441 107.386 152.591 107.604 152.78 107.787L157.332 112.339C157.499 112.501 157.665 112.659 157.839 112.81L158.013 112.984C158.714 113.751 159.091 114.759 159.068 115.798C159.044 116.837 158.621 117.826 157.886 118.561C157.152 119.295 156.162 119.719 155.123 119.742C154.085 119.766 153.077 119.388 152.309 118.688L151.636 118.019C151.357 117.741 151.001 117.552 150.614 117.477C150.227 117.402 149.827 117.445 149.464 117.599C149.101 117.754 148.793 118.013 148.578 118.344C148.364 118.674 148.253 119.062 148.26 119.456C148.254 119.723 148.302 119.99 148.402 120.238C148.503 120.486 148.652 120.712 148.842 120.901L149.725 121.783C150.088 122.126 150.38 122.538 150.581 122.995C150.783 123.452 150.89 123.945 150.898 124.445C150.906 124.944 150.813 125.44 150.625 125.903C150.437 126.366 150.158 126.787 149.805 127.14C149.452 127.494 149.031 127.772 148.568 127.96C148.105 128.148 147.609 128.241 147.11 128.233C146.61 128.226 146.117 128.118 145.66 127.916C145.203 127.715 144.791 127.424 144.448 127.06H144.44L144.397 127.008L143.565 126.177C143.383 125.988 143.164 125.837 142.923 125.734C142.681 125.63 142.422 125.575 142.159 125.573C141.896 125.571 141.636 125.621 141.392 125.72C141.149 125.82 140.928 125.967 140.742 126.153C140.556 126.338 140.41 126.559 140.31 126.803C140.211 127.046 140.16 127.306 140.163 127.569C140.165 127.832 140.22 128.092 140.323 128.333C140.427 128.575 140.578 128.793 140.767 128.976L141.63 129.842C141.985 130.193 142.268 130.611 142.462 131.071C142.656 131.531 142.757 132.025 142.76 132.524C142.763 133.024 142.668 133.519 142.48 133.981C142.292 134.444 142.014 134.865 141.663 135.22C141.313 135.575 140.895 135.858 140.435 136.052C139.975 136.246 139.481 136.347 138.982 136.35C138.482 136.354 137.987 136.258 137.525 136.07C137.062 135.882 136.641 135.604 136.286 135.254L130.622 129.87L132.696 127.804C133.395 127.111 133.95 126.286 134.329 125.377C134.708 124.468 134.903 123.492 134.903 122.508C134.903 121.523 134.708 120.548 134.329 119.639C133.95 118.73 133.395 117.905 132.696 117.211C131.956 116.476 131.072 115.901 130.099 115.524C129.126 115.148 128.086 114.977 127.043 115.022C127.089 113.984 126.917 112.947 126.538 111.979C126.159 111.011 125.582 110.133 124.842 109.402C124.103 108.666 123.218 108.093 122.245 107.717C121.272 107.341 120.232 107.17 119.19 107.217C119.235 106.179 119.063 105.143 118.684 104.175C118.305 103.208 117.728 102.331 116.989 101.6C116.049 100.666 114.88 99.9948 113.599 99.6544C112.318 99.314 110.97 99.316 109.69 99.6602C109.469 98.0328 108.716 96.5241 107.549 95.3693C106.246 94.0786 104.52 93.3039 102.69 93.1889C100.86 93.0739 99.0508 93.6264 97.5973 94.7439C96.6629 90.7306 96.7719 86.5448 97.9138 82.5855C99.0557 78.6263 101.193 75.0254 104.121 72.126V72.1221Z" fill="#E3B002"/>
<path d="M310.136 0H498.711V260H308.801L310.136 0Z" fill="#292929"/>
<path d="M273.422 14.3527L310.136 0.000976562L309.135 259.667L273.422 245.983V14.3527Z" fill="#1F1F1F"/>
<path d="M346.047 186.192C344.447 186.192 343.199 185.749 342.303 184.864C341.417 183.979 340.975 182.715 340.975 181.072V174.8H343.567V180.976C343.567 182.981 344.399 183.984 346.063 183.984C346.873 183.984 347.492 183.744 347.919 183.264C348.345 182.773 348.559 182.011 348.559 180.976V174.8H351.119V181.072C351.119 182.715 350.671 183.979 349.775 184.864C348.889 185.749 347.647 186.192 346.047 186.192ZM363.952 174.8V186H361.824L356.24 179.2V186H353.68V174.8H355.824L361.392 181.6V174.8H363.952ZM370.282 186.192C369.397 186.192 368.538 186.075 367.706 185.84C366.885 185.595 366.223 185.28 365.722 184.896L366.602 182.944C367.082 183.296 367.653 183.579 368.314 183.792C368.975 184.005 369.637 184.112 370.298 184.112C371.034 184.112 371.578 184.005 371.93 183.792C372.282 183.568 372.458 183.275 372.458 182.912C372.458 182.645 372.351 182.427 372.138 182.256C371.935 182.075 371.669 181.931 371.338 181.824C371.018 181.717 370.581 181.6 370.026 181.472C369.173 181.269 368.474 181.067 367.93 180.864C367.386 180.661 366.917 180.336 366.522 179.888C366.138 179.44 365.946 178.843 365.946 178.096C365.946 177.445 366.122 176.859 366.474 176.336C366.826 175.803 367.354 175.381 368.058 175.072C368.773 174.763 369.642 174.608 370.666 174.608C371.381 174.608 372.079 174.693 372.762 174.864C373.445 175.035 374.042 175.28 374.554 175.6L373.754 177.568C372.719 176.981 371.685 176.688 370.65 176.688C369.925 176.688 369.386 176.805 369.034 177.04C368.693 177.275 368.522 177.584 368.522 177.968C368.522 178.352 368.719 178.64 369.114 178.832C369.519 179.013 370.133 179.195 370.954 179.376C371.807 179.579 372.506 179.781 373.05 179.984C373.594 180.187 374.058 180.507 374.442 180.944C374.837 181.381 375.034 181.973 375.034 182.72C375.034 183.36 374.853 183.947 374.49 184.48C374.138 185.003 373.605 185.419 372.89 185.728C372.175 186.037 371.306 186.192 370.282 186.192ZM387.077 174.8V186H384.485V181.408H379.397V186H376.805V174.8H379.397V179.216H384.485V174.8H387.077ZM397.103 183.6H391.903L390.911 186H388.255L393.247 174.8H395.807L400.815 186H398.095L397.103 183.6ZM396.287 181.632L394.511 177.344L392.735 181.632H396.287ZM406.057 181.6L404.553 183.168V186H401.977V174.8H404.553V180.032L409.513 174.8H412.393L407.753 179.792L412.665 186H409.641L406.057 181.6ZM422.493 183.92V186H413.821V174.8H422.285V176.88H416.397V179.312H421.597V181.328H416.397V183.92H422.493ZM431.931 183.6H426.731L425.739 186H423.083L428.075 174.8H430.635L435.643 186H432.923L431.931 183.6ZM431.115 181.632L429.339 177.344L427.563 181.632H431.115ZM445.029 180.176C445.669 180.379 446.17 180.72 446.533 181.2C446.896 181.669 447.077 182.251 447.077 182.944C447.077 183.925 446.693 184.683 445.925 185.216C445.168 185.739 444.058 186 442.597 186H436.805V174.8H442.277C443.642 174.8 444.688 175.061 445.413 175.584C446.149 176.107 446.517 176.816 446.517 177.712C446.517 178.256 446.384 178.741 446.117 179.168C445.861 179.595 445.498 179.931 445.029 180.176ZM439.381 176.752V179.392H441.957C442.597 179.392 443.082 179.28 443.413 179.056C443.744 178.832 443.909 178.501 443.909 178.064C443.909 177.627 443.744 177.301 443.413 177.088C443.082 176.864 442.597 176.752 441.957 176.752H439.381ZM442.405 184.048C443.088 184.048 443.6 183.936 443.941 183.712C444.293 183.488 444.469 183.141 444.469 182.672C444.469 181.744 443.781 181.28 442.405 181.28H439.381V184.048H442.405ZM449.039 174.8H451.631V183.888H457.247V186H449.039V174.8ZM467.368 183.92V186H458.696V174.8H467.16V176.88H461.272V179.312H466.472V181.328H461.272V183.92H467.368ZM354.243 206.192C353.102 206.192 352.067 205.947 351.139 205.456C350.222 204.955 349.497 204.267 348.963 203.392C348.441 202.507 348.179 201.509 348.179 200.4C348.179 199.291 348.441 198.299 348.963 197.424C349.497 196.539 350.222 195.851 351.139 195.36C352.067 194.859 353.107 194.608 354.259 194.608C355.23 194.608 356.105 194.779 356.883 195.12C357.673 195.461 358.334 195.952 358.867 196.592L357.203 198.128C356.446 197.253 355.507 196.816 354.387 196.816C353.694 196.816 353.075 196.971 352.531 197.28C351.987 197.579 351.561 198 351.251 198.544C350.953 199.088 350.803 199.707 350.803 200.4C350.803 201.093 350.953 201.712 351.251 202.256C351.561 202.8 351.987 203.227 352.531 203.536C353.075 203.835 353.694 203.984 354.387 203.984C355.507 203.984 356.446 203.541 357.203 202.656L358.867 204.192C358.334 204.843 357.673 205.339 356.883 205.68C356.094 206.021 355.214 206.192 354.243 206.192ZM365.807 206.192C364.645 206.192 363.594 205.941 362.655 205.44C361.727 204.939 360.997 204.251 360.463 203.376C359.941 202.491 359.679 201.499 359.679 200.4C359.679 199.301 359.941 198.315 360.463 197.44C360.997 196.555 361.727 195.861 362.655 195.36C363.594 194.859 364.645 194.608 365.807 194.608C366.97 194.608 368.015 194.859 368.943 195.36C369.871 195.861 370.602 196.555 371.135 197.44C371.669 198.315 371.935 199.301 371.935 200.4C371.935 201.499 371.669 202.491 371.135 203.376C370.602 204.251 369.871 204.939 368.943 205.44C368.015 205.941 366.97 206.192 365.807 206.192ZM365.807 203.984C366.469 203.984 367.066 203.835 367.599 203.536C368.133 203.227 368.549 202.8 368.847 202.256C369.157 201.712 369.311 201.093 369.311 200.4C369.311 199.707 369.157 199.088 368.847 198.544C368.549 198 368.133 197.579 367.599 197.28C367.066 196.971 366.469 196.816 365.807 196.816C365.146 196.816 364.549 196.971 364.015 197.28C363.482 197.579 363.061 198 362.751 198.544C362.453 199.088 362.303 199.707 362.303 200.4C362.303 201.093 362.453 201.712 362.751 202.256C363.061 202.8 363.482 203.227 364.015 203.536C364.549 203.835 365.146 203.984 365.807 203.984ZM384.155 194.8V206H382.027L376.443 199.2V206H373.883V194.8H376.027L381.595 201.6V194.8H384.155ZM389.397 196.88V199.84H394.581V201.92H389.397V206H386.805V194.8H395.269V196.88H389.397ZM397.024 194.8H399.616V206H397.024V194.8ZM402.274 194.8H407.362C408.578 194.8 409.65 195.035 410.578 195.504C411.516 195.963 412.242 196.613 412.754 197.456C413.276 198.299 413.538 199.28 413.538 200.4C413.538 201.52 413.276 202.501 412.754 203.344C412.242 204.187 411.516 204.843 410.578 205.312C409.65 205.771 408.578 206 407.362 206H402.274V194.8ZM407.234 203.872C408.354 203.872 409.244 203.563 409.906 202.944C410.578 202.315 410.914 201.467 410.914 200.4C410.914 199.333 410.578 198.491 409.906 197.872C409.244 197.243 408.354 196.928 407.234 196.928H404.866V203.872H407.234ZM424.165 203.92V206H415.493V194.8H423.957V196.88H418.069V199.312H423.269V201.328H418.069V203.92H424.165ZM436.499 194.8V206H434.371L428.787 199.2V206H426.227V194.8H428.371L433.939 201.6V194.8H436.499ZM444.509 206.192C443.367 206.192 442.333 205.947 441.405 205.456C440.487 204.955 439.762 204.267 439.229 203.392C438.706 202.507 438.445 201.509 438.445 200.4C438.445 199.291 438.706 198.299 439.229 197.424C439.762 196.539 440.487 195.851 441.405 195.36C442.333 194.859 443.373 194.608 444.525 194.608C445.495 194.608 446.37 194.779 447.149 195.12C447.938 195.461 448.599 195.952 449.133 196.592L447.469 198.128C446.711 197.253 445.773 196.816 444.653 196.816C443.959 196.816 443.341 196.971 442.797 197.28C442.253 197.579 441.826 198 441.517 198.544C441.218 199.088 441.069 199.707 441.069 200.4C441.069 201.093 441.218 201.712 441.517 202.256C441.826 202.8 442.253 203.227 442.797 203.536C443.341 203.835 443.959 203.984 444.653 203.984C445.773 203.984 446.711 203.541 447.469 202.656L449.133 204.192C448.599 204.843 447.938 205.339 447.149 205.68C446.359 206.021 445.479 206.192 444.509 206.192ZM459.555 203.92V206H450.883V194.8H459.347V196.88H453.459V199.312H458.659V201.328H453.459V203.92H459.555Z" fill="white"/>
<g clip-path="url(#clip0)">
<path d="M403.756 71.6229C405.004 71.6226 406.24 71.3765 407.392 70.8987C408.545 70.4209 409.592 69.7206 410.475 68.8381C411.357 67.9555 412.056 66.9077 412.534 65.7547C413.011 64.6017 413.256 63.366 413.256 62.1182C413.256 60.8703 413.01 59.6347 412.532 58.4819C412.054 57.3292 411.354 56.2818 410.471 55.3997C409.589 54.5175 408.541 53.8178 407.388 53.3406C406.235 52.8633 404.999 52.6179 403.751 52.6182C401.231 52.6188 398.814 53.6205 397.033 55.403C395.251 57.1855 394.251 59.6027 394.251 62.1229C394.252 64.6431 395.254 67.0598 397.036 68.8414C398.819 70.623 401.236 71.6235 403.756 71.6229ZM432.152 107.642C430.323 99.2109 427.126 85.3742 422.452 79.6457C417.906 74.0739 408.748 73.8412 403.756 73.8412C398.764 73.8412 389.606 74.0739 385.06 79.6457C380.386 85.3742 377.189 99.2109 375.361 107.642C374.349 112.311 380.842 114.026 382.538 109.328C385.06 102.332 387.008 96.4559 391.273 91.5824C393.515 105.391 385.241 129.421 384.756 142.873C384.755 143.983 385.143 145.059 385.853 145.913C386.563 146.767 387.55 147.345 388.641 147.547C389.733 147.749 390.861 147.562 391.83 147.019C392.798 146.476 393.546 145.611 393.943 144.573C396.113 137.035 403.756 116.059 403.756 116.059C403.756 116.059 411.399 137.035 413.57 144.573C413.966 145.611 414.714 146.476 415.682 147.019C416.651 147.562 417.779 147.749 418.871 147.547C419.962 147.345 420.949 146.767 421.659 145.913C422.369 145.059 422.757 143.983 422.756 142.873C422.272 129.421 413.997 105.391 416.239 91.5872C420.505 96.4607 422.452 102.336 424.974 109.333C426.665 114.026 433.163 112.311 432.152 107.642Z" fill="#E3B002"/>
</g>
<path d="M583.425 0H772V260H582.09L583.425 0Z" fill="#292929"/>
<path d="M546.711 14.3527L583.425 0.000976562L582.424 259.667L546.711 245.983V14.3527Z" fill="#1F1F1F"/>
<path d="M633.281 183.92V186H624.609V174.8H633.073V176.88H627.185V179.312H632.385V181.328H627.185V183.92H633.281ZM637.936 176.88V179.84H643.12V181.92H637.936V186H635.344V174.8H643.808V176.88H637.936ZM648.155 176.88V179.84H653.339V181.92H648.155V186H645.563V174.8H654.027V176.88H648.155ZM661.096 186.192C659.933 186.192 658.883 185.941 657.944 185.44C657.016 184.939 656.285 184.251 655.752 183.376C655.229 182.491 654.968 181.499 654.968 180.4C654.968 179.301 655.229 178.315 655.752 177.44C656.285 176.555 657.016 175.861 657.944 175.36C658.883 174.859 659.933 174.608 661.096 174.608C662.259 174.608 663.304 174.859 664.232 175.36C665.16 175.861 665.891 176.555 666.424 177.44C666.957 178.315 667.224 179.301 667.224 180.4C667.224 181.499 666.957 182.491 666.424 183.376C665.891 184.251 665.16 184.939 664.232 185.44C663.304 185.941 662.259 186.192 661.096 186.192ZM661.096 183.984C661.757 183.984 662.355 183.835 662.888 183.536C663.421 183.227 663.837 182.8 664.136 182.256C664.445 181.712 664.6 181.093 664.6 180.4C664.6 179.707 664.445 179.088 664.136 178.544C663.837 178 663.421 177.579 662.888 177.28C662.355 176.971 661.757 176.816 661.096 176.816C660.435 176.816 659.837 176.971 659.304 177.28C658.771 177.579 658.349 178 658.04 178.544C657.741 179.088 657.592 179.707 657.592 180.4C657.592 181.093 657.741 181.712 658.04 182.256C658.349 182.8 658.771 183.227 659.304 183.536C659.837 183.835 660.435 183.984 661.096 183.984ZM676.308 186L674.148 182.88H674.02H671.764V186H669.172V174.8H674.02C675.012 174.8 675.871 174.965 676.596 175.296C677.332 175.627 677.897 176.096 678.292 176.704C678.687 177.312 678.884 178.032 678.884 178.864C678.884 179.696 678.681 180.416 678.276 181.024C677.881 181.621 677.316 182.08 676.58 182.4L679.092 186H676.308ZM676.26 178.864C676.26 178.235 676.057 177.755 675.652 177.424C675.247 177.083 674.655 176.912 673.876 176.912H671.764V180.816H673.876C674.655 180.816 675.247 180.645 675.652 180.304C676.057 179.963 676.26 179.483 676.26 178.864ZM683.101 176.912H679.517V174.8H689.277V176.912H685.693V186H683.101V176.912ZM690.672 174.8H693.264V183.888H698.88V186H690.672V174.8ZM709 183.92V186H700.328V174.8H708.792V176.88H702.904V179.312H708.104V181.328H702.904V183.92H709ZM714.743 186.192C713.857 186.192 712.999 186.075 712.167 185.84C711.345 185.595 710.684 185.28 710.183 184.896L711.063 182.944C711.543 183.296 712.113 183.579 712.775 183.792C713.436 184.005 714.097 184.112 714.759 184.112C715.495 184.112 716.039 184.005 716.391 183.792C716.743 183.568 716.919 183.275 716.919 182.912C716.919 182.645 716.812 182.427 716.599 182.256C716.396 182.075 716.129 181.931 715.799 181.824C715.479 181.717 715.041 181.6 714.487 181.472C713.633 181.269 712.935 181.067 712.391 180.864C711.847 180.661 711.377 180.336 710.983 179.888C710.599 179.44 710.407 178.843 710.407 178.096C710.407 177.445 710.583 176.859 710.935 176.336C711.287 175.803 711.815 175.381 712.519 175.072C713.233 174.763 714.103 174.608 715.127 174.608C715.841 174.608 716.54 174.693 717.223 174.864C717.905 175.035 718.503 175.28 719.015 175.6L718.215 177.568C717.18 176.981 716.145 176.688 715.111 176.688C714.385 176.688 713.847 176.805 713.495 177.04C713.153 177.275 712.983 177.584 712.983 177.968C712.983 178.352 713.18 178.64 713.575 178.832C713.98 179.013 714.593 179.195 715.415 179.376C716.268 179.579 716.967 179.781 717.511 179.984C718.055 180.187 718.519 180.507 718.903 180.944C719.297 181.381 719.495 181.973 719.495 182.72C719.495 183.36 719.313 183.947 718.951 184.48C718.599 185.003 718.065 185.419 717.351 185.728C716.636 186.037 715.767 186.192 714.743 186.192ZM724.946 186.192C724.06 186.192 723.202 186.075 722.37 185.84C721.548 185.595 720.887 185.28 720.386 184.896L721.266 182.944C721.746 183.296 722.316 183.579 722.978 183.792C723.639 184.005 724.3 184.112 724.962 184.112C725.698 184.112 726.242 184.005 726.594 183.792C726.946 183.568 727.122 183.275 727.122 182.912C727.122 182.645 727.015 182.427 726.802 182.256C726.599 182.075 726.332 181.931 726.002 181.824C725.682 181.717 725.244 181.6 724.69 181.472C723.836 181.269 723.138 181.067 722.594 180.864C722.05 180.661 721.58 180.336 721.186 179.888C720.802 179.44 720.61 178.843 720.61 178.096C720.61 177.445 720.786 176.859 721.138 176.336C721.49 175.803 722.018 175.381 722.722 175.072C723.436 174.763 724.306 174.608 725.33 174.608C726.044 174.608 726.743 174.693 727.426 174.864C728.108 175.035 728.706 175.28 729.218 175.6L728.418 177.568C727.383 176.981 726.348 176.688 725.314 176.688C724.588 176.688 724.05 176.805 723.698 177.04C723.356 177.275 723.186 177.584 723.186 177.968C723.186 178.352 723.383 178.64 723.778 178.832C724.183 179.013 724.796 179.195 725.618 179.376C726.471 179.579 727.17 179.781 727.714 179.984C728.258 180.187 728.722 180.507 729.106 180.944C729.5 181.381 729.698 181.973 729.698 182.72C729.698 183.36 729.516 183.947 729.154 184.48C728.802 185.003 728.268 185.419 727.554 185.728C726.839 186.037 725.97 186.192 724.946 186.192ZM615.641 206.192C614.5 206.192 613.465 205.947 612.537 205.456C611.62 204.955 610.895 204.267 610.361 203.392C609.839 202.507 609.577 201.509 609.577 200.4C609.577 199.291 609.839 198.299 610.361 197.424C610.895 196.539 611.62 195.851 612.537 195.36C613.465 194.859 614.505 194.608 615.657 194.608C616.628 194.608 617.503 194.779 618.281 195.12C619.071 195.461 619.732 195.952 620.265 196.592L618.601 198.128C617.844 197.253 616.905 196.816 615.785 196.816C615.092 196.816 614.473 196.971 613.929 197.28C613.385 197.579 612.959 198 612.649 198.544C612.351 199.088 612.201 199.707 612.201 200.4C612.201 201.093 612.351 201.712 612.649 202.256C612.959 202.8 613.385 203.227 613.929 203.536C614.473 203.835 615.092 203.984 615.785 203.984C616.905 203.984 617.844 203.541 618.601 202.656L620.265 204.192C619.732 204.843 619.071 205.339 618.281 205.68C617.492 206.021 616.612 206.192 615.641 206.192ZM627.205 206.192C626.043 206.192 624.992 205.941 624.053 205.44C623.125 204.939 622.395 204.251 621.861 203.376C621.339 202.491 621.077 201.499 621.077 200.4C621.077 199.301 621.339 198.315 621.861 197.44C622.395 196.555 623.125 195.861 624.053 195.36C624.992 194.859 626.043 194.608 627.205 194.608C628.368 194.608 629.413 194.859 630.341 195.36C631.269 195.861 632 196.555 632.533 197.44C633.067 198.315 633.333 199.301 633.333 200.4C633.333 201.499 633.067 202.491 632.533 203.376C632 204.251 631.269 204.939 630.341 205.44C629.413 205.941 628.368 206.192 627.205 206.192ZM627.205 203.984C627.867 203.984 628.464 203.835 628.997 203.536C629.531 203.227 629.947 202.8 630.245 202.256C630.555 201.712 630.709 201.093 630.709 200.4C630.709 199.707 630.555 199.088 630.245 198.544C629.947 198 629.531 197.579 628.997 197.28C628.464 196.971 627.867 196.816 627.205 196.816C626.544 196.816 625.947 196.971 625.413 197.28C624.88 197.579 624.459 198 624.149 198.544C623.851 199.088 623.701 199.707 623.701 200.4C623.701 201.093 623.851 201.712 624.149 202.256C624.459 202.8 624.88 203.227 625.413 203.536C625.947 203.835 626.544 203.984 627.205 203.984ZM645.553 194.8V206H643.425L637.841 199.2V206H635.281V194.8H637.425L642.993 201.6V194.8H645.553ZM658.909 194.8L654.061 206H651.501L646.669 194.8H649.469L652.877 202.8L656.333 194.8H658.909ZM668.516 203.92V206H659.844V194.8H668.308V196.88H662.42V199.312H667.62V201.328H662.42V203.92H668.516ZM677.714 206L675.554 202.88H675.426H673.17V206H670.578V194.8H675.426C676.418 194.8 677.277 194.965 678.002 195.296C678.738 195.627 679.304 196.096 679.698 196.704C680.093 197.312 680.29 198.032 680.29 198.864C680.29 199.696 680.088 200.416 679.682 201.024C679.288 201.621 678.722 202.08 677.986 202.4L680.498 206H677.714ZM677.666 198.864C677.666 198.235 677.464 197.755 677.058 197.424C676.653 197.083 676.061 196.912 675.282 196.912H673.17V200.816H675.282C676.061 200.816 676.653 200.645 677.058 200.304C677.464 199.963 677.666 199.483 677.666 198.864ZM686.024 206.192C685.139 206.192 684.28 206.075 683.448 205.84C682.627 205.595 681.965 205.28 681.464 204.896L682.344 202.944C682.824 203.296 683.395 203.579 684.056 203.792C684.717 204.005 685.379 204.112 686.04 204.112C686.776 204.112 687.32 204.005 687.672 203.792C688.024 203.568 688.2 203.275 688.2 202.912C688.2 202.645 688.093 202.427 687.88 202.256C687.677 202.075 687.411 201.931 687.08 201.824C686.76 201.717 686.323 201.6 685.768 201.472C684.915 201.269 684.216 201.067 683.672 200.864C683.128 200.661 682.659 200.336 682.264 199.888C681.88 199.44 681.688 198.843 681.688 198.096C681.688 197.445 681.864 196.859 682.216 196.336C682.568 195.803 683.096 195.381 683.8 195.072C684.515 194.763 685.384 194.608 686.408 194.608C687.123 194.608 687.821 194.693 688.504 194.864C689.187 195.035 689.784 195.28 690.296 195.6L689.496 197.568C688.461 196.981 687.427 196.688 686.392 196.688C685.667 196.688 685.128 196.805 684.776 197.04C684.435 197.275 684.264 197.584 684.264 197.968C684.264 198.352 684.461 198.64 684.856 198.832C685.261 199.013 685.875 199.195 686.696 199.376C687.549 199.579 688.248 199.781 688.792 199.984C689.336 200.187 689.8 200.507 690.184 200.944C690.579 201.381 690.776 201.973 690.776 202.72C690.776 203.36 690.595 203.947 690.232 204.48C689.88 205.003 689.347 205.419 688.632 205.728C687.917 206.037 687.048 206.192 686.024 206.192ZM699.923 203.6H694.723L693.731 206H691.075L696.067 194.8H698.627L703.635 206H700.915L699.923 203.6ZM699.107 201.632L697.331 197.344L695.555 201.632H699.107ZM706.554 196.912H702.97V194.8H712.73V196.912H709.146V206H706.554V196.912ZM714.125 194.8H716.717V206H714.125V194.8ZM724.799 206.192C723.636 206.192 722.586 205.941 721.647 205.44C720.719 204.939 719.988 204.251 719.455 203.376C718.932 202.491 718.671 201.499 718.671 200.4C718.671 199.301 718.932 198.315 719.455 197.44C719.988 196.555 720.719 195.861 721.647 195.36C722.586 194.859 723.636 194.608 724.799 194.608C725.962 194.608 727.007 194.859 727.935 195.36C728.863 195.861 729.594 196.555 730.127 197.44C730.66 198.315 730.927 199.301 730.927 200.4C730.927 201.499 730.66 202.491 730.127 203.376C729.594 204.251 728.863 204.939 727.935 205.44C727.007 205.941 725.962 206.192 724.799 206.192ZM724.799 203.984C725.46 203.984 726.058 203.835 726.591 203.536C727.124 203.227 727.54 202.8 727.839 202.256C728.148 201.712 728.303 201.093 728.303 200.4C728.303 199.707 728.148 199.088 727.839 198.544C727.54 198 727.124 197.579 726.591 197.28C726.058 196.971 725.46 196.816 724.799 196.816C724.138 196.816 723.54 196.971 723.007 197.28C722.474 197.579 722.052 198 721.743 198.544C721.444 199.088 721.295 199.707 721.295 200.4C721.295 201.093 721.444 201.712 721.743 202.256C722.052 202.8 722.474 203.227 723.007 203.536C723.54 203.835 724.138 203.984 724.799 203.984ZM743.147 194.8V206H741.019L735.435 199.2V206H732.875V194.8H735.019L740.587 201.6V194.8H743.147Z" fill="white"/>
<g clip-path="url(#clip1)">
<path fill-rule="evenodd" clip-rule="evenodd" d="M678.711 147C652.753 147 631.711 125.959 631.711 100C631.711 74.0413 652.753 53 678.711 53C704.67 53 725.711 74.0413 725.711 100C725.711 125.959 704.67 147 678.711 147ZM679.534 121.517C682.554 123.606 686.384 124.848 690.532 124.848C691.563 124.848 692.582 124.772 693.584 124.622C693.928 124.763 694.26 124.936 694.668 125.171C695.549 125.688 696.727 126.482 698.193 127.551C699.394 128.429 701.095 127.58 701.095 126.103V121.811C701.712 121.411 702.294 120.98 702.843 120.513C706.162 117.698 708.086 113.85 708.086 109.723C708.086 107.006 707.264 104.465 705.819 102.271C705.363 103.829 704.746 105.335 703.977 106.765C704.282 107.714 704.444 108.704 704.444 109.723C704.444 112.76 703.01 115.627 700.472 117.778C699.818 118.331 699.112 118.822 698.366 119.244C698.09 119.4 697.86 119.626 697.699 119.9C697.539 120.174 697.454 120.486 697.453 120.803V122.636C695.711 121.52 694.515 120.994 693.605 120.994C693.502 120.995 693.4 121.003 693.299 121.021C690.747 121.448 688.131 121.277 685.656 120.521C683.651 121.042 681.603 121.376 679.537 121.52L679.534 121.517ZM657.603 112.934C658.571 113.753 659.596 114.504 660.669 115.181V122.501C660.669 124.352 662.799 125.409 664.3 124.311C668.442 121.285 671.321 119.576 672.04 119.405C673.703 119.67 675.401 119.802 677.116 119.802C692.391 119.802 704.899 109.206 704.899 95.9492C704.899 82.6893 692.388 72.0938 677.116 72.0938C661.844 72.0938 649.336 82.6893 649.336 95.9463C649.336 102.438 652.362 108.492 657.603 112.934ZM672.14 114.89C670.663 114.89 668.504 115.933 665.225 118.133V113.912C665.224 113.515 665.117 113.125 664.916 112.782C664.715 112.439 664.426 112.156 664.08 111.962C662.835 111.257 661.659 110.438 660.566 109.515C656.298 105.904 653.89 101.075 653.89 95.9463C653.89 85.3419 664.218 76.594 677.116 76.594C690.018 76.594 700.343 85.3419 700.343 95.9463C700.343 106.551 690.018 115.301 677.116 115.301C675.559 115.301 674.023 115.172 672.522 114.92C672.396 114.899 672.268 114.889 672.14 114.89ZM665.275 100.449C667.287 100.449 668.918 98.8338 668.918 96.8481C668.918 94.8594 667.287 93.2467 665.275 93.2467C663.263 93.2467 661.633 94.8594 661.633 96.8481C661.633 98.8368 663.263 100.449 665.275 100.449ZM677.116 100.449C679.129 100.449 680.759 98.8338 680.759 96.8481C680.759 94.8594 679.129 93.2467 677.116 93.2467C675.104 93.2467 673.474 94.8594 673.474 96.8481C673.474 98.8368 675.104 100.449 677.116 100.449ZM688.957 100.449C690.97 100.449 692.6 98.8338 692.6 96.8481C692.6 94.8594 690.97 93.2467 688.957 93.2467C686.945 93.2467 685.315 94.8594 685.315 96.8481C685.315 98.8368 686.945 100.449 688.957 100.449Z" fill="#E3B002"/>
</g>
<path d="M856.714 0H1045.29V260H855.379L856.714 0Z" fill="#292929"/>
<path d="M820 14.3527L856.714 0.000976562L855.712 259.667L820 245.983V14.3527Z" fill="#1F1F1F"/>
<path d="M899.313 186.192C898.172 186.192 897.137 185.947 896.209 185.456C895.292 184.955 894.566 184.267 894.033 183.392C893.51 182.507 893.249 181.509 893.249 180.4C893.249 179.291 893.51 178.299 894.033 177.424C894.566 176.539 895.292 175.851 896.209 175.36C897.137 174.859 898.177 174.608 899.329 174.608C900.3 174.608 901.174 174.779 901.953 175.12C902.742 175.461 903.404 175.952 903.937 176.592L902.273 178.128C901.516 177.253 900.577 176.816 899.457 176.816C898.764 176.816 898.145 176.971 897.601 177.28C897.057 177.579 896.63 178 896.321 178.544C896.022 179.088 895.873 179.707 895.873 180.4C895.873 181.093 896.022 181.712 896.321 182.256C896.63 182.8 897.057 183.227 897.601 183.536C898.145 183.835 898.764 183.984 899.457 183.984C900.577 183.984 901.516 183.541 902.273 182.656L903.937 184.192C903.404 184.843 902.742 185.339 901.953 185.68C901.164 186.021 900.284 186.192 899.313 186.192ZM910.877 186.192C909.714 186.192 908.664 185.941 907.725 185.44C906.797 184.939 906.066 184.251 905.533 183.376C905.01 182.491 904.749 181.499 904.749 180.4C904.749 179.301 905.01 178.315 905.533 177.44C906.066 176.555 906.797 175.861 907.725 175.36C908.664 174.859 909.714 174.608 910.877 174.608C912.04 174.608 913.085 174.859 914.013 175.36C914.941 175.861 915.672 176.555 916.205 177.44C916.738 178.315 917.005 179.301 917.005 180.4C917.005 181.499 916.738 182.491 916.205 183.376C915.672 184.251 914.941 184.939 914.013 185.44C913.085 185.941 912.04 186.192 910.877 186.192ZM910.877 183.984C911.538 183.984 912.136 183.835 912.669 183.536C913.202 183.227 913.618 182.8 913.917 182.256C914.226 181.712 914.381 181.093 914.381 180.4C914.381 179.707 914.226 179.088 913.917 178.544C913.618 178 913.202 177.579 912.669 177.28C912.136 176.971 911.538 176.816 910.877 176.816C910.216 176.816 909.618 176.971 909.085 177.28C908.552 177.579 908.13 178 907.821 178.544C907.522 179.088 907.373 179.707 907.373 180.4C907.373 181.093 907.522 181.712 907.821 182.256C908.13 182.8 908.552 183.227 909.085 183.536C909.618 183.835 910.216 183.984 910.877 183.984ZM923.801 174.8C924.793 174.8 925.652 174.965 926.377 175.296C927.113 175.627 927.678 176.096 928.073 176.704C928.468 177.312 928.665 178.032 928.665 178.864C928.665 179.685 928.468 180.405 928.073 181.024C927.678 181.632 927.113 182.101 926.377 182.432C925.652 182.752 924.793 182.912 923.801 182.912H921.545V186H918.953V174.8H923.801ZM923.657 180.8C924.436 180.8 925.028 180.635 925.433 180.304C925.838 179.963 926.041 179.483 926.041 178.864C926.041 178.235 925.838 177.755 925.433 177.424C925.028 177.083 924.436 176.912 923.657 176.912H921.545V180.8H923.657ZM932.523 176.912H928.939V174.8H938.699V176.912H935.115V186H932.523V176.912ZM940.094 174.8H942.686V186H940.094V174.8ZM956.049 174.8L951.201 186H948.641L943.809 174.8H946.609L950.017 182.8L953.473 174.8H956.049ZM963.985 183.6H958.785L957.793 186H955.137L960.129 174.8H962.689L967.697 186H964.977L963.985 183.6ZM963.169 181.632L961.393 177.344L959.617 181.632H963.169ZM970.617 176.912H967.033V174.8H976.793V176.912H973.209V186H970.617V176.912ZM978.187 174.8H980.779V186H978.187V174.8ZM993.709 174.8V186H991.581L985.997 179.2V186H983.437V174.8H985.581L991.149 181.6V174.8H993.709ZM1003.93 180.224H1006.3V184.768C1005.69 185.227 1004.98 185.579 1004.18 185.824C1003.38 186.069 1002.58 186.192 1001.77 186.192C1000.6 186.192 999.559 185.947 998.631 185.456C997.703 184.955 996.973 184.267 996.439 183.392C995.917 182.507 995.655 181.509 995.655 180.4C995.655 179.291 995.917 178.299 996.439 177.424C996.973 176.539 997.709 175.851 998.647 175.36C999.586 174.859 1000.64 174.608 1001.82 174.608C1002.8 174.608 1003.69 174.773 1004.49 175.104C1005.29 175.435 1005.96 175.915 1006.5 176.544L1004.84 178.08C1004.04 177.237 1003.07 176.816 1001.94 176.816C1001.23 176.816 1000.59 176.965 1000.04 177.264C999.485 177.563 999.053 177.984 998.743 178.528C998.434 179.072 998.279 179.696 998.279 180.4C998.279 181.093 998.434 181.712 998.743 182.256C999.053 182.8 999.479 183.227 1000.02 183.536C1000.58 183.835 1001.21 183.984 1001.91 183.984C1002.66 183.984 1003.33 183.824 1003.93 183.504V180.224ZM887.203 206.192C886.318 206.192 885.459 206.075 884.627 205.84C883.806 205.595 883.145 205.28 882.643 204.896L883.523 202.944C884.003 203.296 884.574 203.579 885.235 203.792C885.897 204.005 886.558 204.112 887.219 204.112C887.955 204.112 888.499 204.005 888.851 203.792C889.203 203.568 889.379 203.275 889.379 202.912C889.379 202.645 889.273 202.427 889.059 202.256C888.857 202.075 888.59 201.931 888.259 201.824C887.939 201.717 887.502 201.6 886.947 201.472C886.094 201.269 885.395 201.067 884.851 200.864C884.307 200.661 883.838 200.336 883.443 199.888C883.059 199.44 882.867 198.843 882.867 198.096C882.867 197.445 883.043 196.859 883.395 196.336C883.747 195.803 884.275 195.381 884.979 195.072C885.694 194.763 886.563 194.608 887.587 194.608C888.302 194.608 889.001 194.693 889.683 194.864C890.366 195.035 890.963 195.28 891.475 195.6L890.675 197.568C889.641 196.981 888.606 196.688 887.571 196.688C886.846 196.688 886.307 196.805 885.955 197.04C885.614 197.275 885.443 197.584 885.443 197.968C885.443 198.352 885.641 198.64 886.035 198.832C886.441 199.013 887.054 199.195 887.875 199.376C888.729 199.579 889.427 199.781 889.971 199.984C890.515 200.187 890.979 200.507 891.363 200.944C891.758 201.381 891.955 201.973 891.955 202.72C891.955 203.36 891.774 203.947 891.411 204.48C891.059 205.003 890.526 205.419 889.811 205.728C889.097 206.037 888.227 206.192 887.203 206.192ZM895.89 196.912H892.306V194.8H902.066V196.912H898.482V206H895.89V196.912ZM908.729 206.192C907.566 206.192 906.515 205.941 905.577 205.44C904.649 204.939 903.918 204.251 903.385 203.376C902.862 202.491 902.601 201.499 902.601 200.4C902.601 199.301 902.862 198.315 903.385 197.44C903.918 196.555 904.649 195.861 905.577 195.36C906.515 194.859 907.566 194.608 908.729 194.608C909.891 194.608 910.937 194.859 911.865 195.36C912.793 195.861 913.523 196.555 914.057 197.44C914.59 198.315 914.857 199.301 914.857 200.4C914.857 201.499 914.59 202.491 914.057 203.376C913.523 204.251 912.793 204.939 911.865 205.44C910.937 205.941 909.891 206.192 908.729 206.192ZM908.729 203.984C909.39 203.984 909.987 203.835 910.521 203.536C911.054 203.227 911.47 202.8 911.769 202.256C912.078 201.712 912.233 201.093 912.233 200.4C912.233 199.707 912.078 199.088 911.769 198.544C911.47 198 911.054 197.579 910.521 197.28C909.987 196.971 909.39 196.816 908.729 196.816C908.067 196.816 907.47 196.971 906.937 197.28C906.403 197.579 905.982 198 905.673 198.544C905.374 199.088 905.225 199.707 905.225 200.4C905.225 201.093 905.374 201.712 905.673 202.256C905.982 202.8 906.403 203.227 906.937 203.536C907.47 203.835 908.067 203.984 908.729 203.984ZM923.941 206L921.781 202.88H921.653H919.397V206H916.805V194.8H921.653C922.645 194.8 923.503 194.965 924.229 195.296C924.965 195.627 925.53 196.096 925.925 196.704C926.319 197.312 926.517 198.032 926.517 198.864C926.517 199.696 926.314 200.416 925.909 201.024C925.514 201.621 924.949 202.08 924.213 202.4L926.725 206H923.941ZM923.893 198.864C923.893 198.235 923.69 197.755 923.285 197.424C922.879 197.083 922.287 196.912 921.509 196.912H919.397V200.816H921.509C922.287 200.816 922.879 200.645 923.285 200.304C923.69 199.963 923.893 199.483 923.893 198.864ZM933.79 202.032V206H931.198V202L926.862 194.8H929.614L932.606 199.776L935.598 194.8H938.142L933.79 202.032ZM941.343 196.912H937.759V194.8H947.519V196.912H943.935V206H941.343V196.912ZM957.586 203.92V206H948.914V194.8H957.378V196.88H951.49V199.312H956.69V201.328H951.49V203.92H957.586ZM959.648 194.8H962.24V203.888H967.856V206H959.648V194.8ZM969.305 194.8H971.897V203.888H977.513V206H969.305V194.8ZM978.961 194.8H981.553V203.888H987.169V206H978.961V194.8ZM988.617 194.8H991.209V206H988.617V194.8ZM1004.14 194.8V206H1002.01L996.427 199.2V206H993.867V194.8H996.011L1001.58 201.6V194.8H1004.14ZM1014.36 200.224H1016.72V204.768C1016.12 205.227 1015.41 205.579 1014.61 205.824C1013.81 206.069 1013.01 206.192 1012.2 206.192C1011.03 206.192 1009.99 205.947 1009.06 205.456C1008.13 204.955 1007.4 204.267 1006.87 203.392C1006.35 202.507 1006.08 201.509 1006.08 200.4C1006.08 199.291 1006.35 198.299 1006.87 197.424C1007.4 196.539 1008.14 195.851 1009.08 195.36C1010.02 194.859 1011.07 194.608 1012.24 194.608C1013.23 194.608 1014.12 194.773 1014.92 195.104C1015.72 195.435 1016.39 195.915 1016.93 196.544L1015.27 198.08C1014.47 197.237 1013.5 196.816 1012.37 196.816C1011.66 196.816 1011.02 196.965 1010.47 197.264C1009.91 197.563 1009.48 197.984 1009.17 198.528C1008.86 199.072 1008.71 199.696 1008.71 200.4C1008.71 201.093 1008.86 201.712 1009.17 202.256C1009.48 202.8 1009.91 203.227 1010.45 203.536C1011.01 203.835 1011.64 203.984 1012.34 203.984C1013.09 203.984 1013.76 203.824 1014.36 203.504V200.224Z" fill="white"/>
<path d="M930.208 147H938.125V139.083H930.208V147ZM950 103.458C956.571 103.458 961.836 98.1543 961.836 91.5835L961.875 67.8335C961.875 61.2627 956.571 55.9585 950 55.9585C943.429 55.9585 938.125 61.2627 938.125 67.8335V91.5835C938.125 98.1543 943.429 103.458 950 103.458ZM946.042 147H953.958V139.083H946.042V147ZM961.875 147H969.792V139.083H961.875V147ZM977.708 91.5835H970.979C970.979 103.458 960.925 111.771 950 111.771C939.075 111.771 929.021 103.458 929.021 91.5835H922.292C922.292 105.081 933.058 116.244 946.042 118.183V131.167H953.958V118.183C966.942 116.244 977.708 105.081 977.708 91.5835Z" fill="#E3B002"/>
<path d="M1130 0H1318.58V260H1128.67L1130 0Z" fill="#292929"/>
<path d="M1093.29 14.3527L1130 0.000976562L1129 259.667L1093.29 245.983V14.3527Z" fill="#1F1F1F"/>
<path d="M1187.92 186L1187.9 179.28L1184.61 184.816H1183.44L1180.16 179.424V186H1177.73V174.8H1179.87L1184.06 181.76L1188.19 174.8H1190.32L1190.35 186H1187.92ZM1200.38 183.6H1195.18L1194.19 186H1191.54L1196.53 174.8H1199.09L1204.1 186H1201.38L1200.38 183.6ZM1199.57 181.632L1197.79 177.344L1196.02 181.632H1199.57ZM1212.67 180.224H1215.04V184.768C1214.43 185.227 1213.73 185.579 1212.93 185.824C1212.13 186.069 1211.32 186.192 1210.51 186.192C1209.35 186.192 1208.3 185.947 1207.37 185.456C1206.45 184.955 1205.71 184.267 1205.18 183.392C1204.66 182.507 1204.4 181.509 1204.4 180.4C1204.4 179.291 1204.66 178.299 1205.18 177.424C1205.71 176.539 1206.45 175.851 1207.39 175.36C1208.33 174.859 1209.38 174.608 1210.56 174.608C1211.54 174.608 1212.43 174.773 1213.23 175.104C1214.03 175.435 1214.7 175.915 1215.25 176.544L1213.58 178.08C1212.78 177.237 1211.82 176.816 1210.69 176.816C1209.97 176.816 1209.34 176.965 1208.78 177.264C1208.23 177.563 1207.79 177.984 1207.49 178.528C1207.18 179.072 1207.02 179.696 1207.02 180.4C1207.02 181.093 1207.18 181.712 1207.49 182.256C1207.79 182.8 1208.22 183.227 1208.77 183.536C1209.32 183.835 1209.95 183.984 1210.65 183.984C1211.4 183.984 1212.07 183.824 1212.67 183.504V180.224ZM1227.72 174.8V186H1225.59L1220.01 179.2V186H1217.45V174.8H1219.59L1225.16 181.6V174.8H1227.72ZM1239.04 183.92V186H1230.37V174.8H1238.83V176.88H1232.94V179.312H1238.14V181.328H1232.94V183.92H1239.04ZM1243.42 176.912H1239.84V174.8H1249.6V176.912H1246.01V186H1243.42V176.912ZM1250.99 174.8H1253.58V186H1250.99V174.8ZM1261.6 186.192C1260.46 186.192 1259.43 185.947 1258.5 185.456C1257.58 184.955 1256.86 184.267 1256.32 183.392C1255.8 182.507 1255.54 181.509 1255.54 180.4C1255.54 179.291 1255.8 178.299 1256.32 177.424C1256.86 176.539 1257.58 175.851 1258.5 175.36C1259.43 174.859 1260.47 174.608 1261.62 174.608C1262.59 174.608 1263.46 174.779 1264.24 175.12C1265.03 175.461 1265.69 175.952 1266.23 176.592L1264.56 178.128C1263.8 177.253 1262.87 176.816 1261.75 176.816C1261.05 176.816 1260.43 176.971 1259.89 177.28C1259.35 177.579 1258.92 178 1258.61 178.544C1258.31 179.088 1258.16 179.707 1258.16 180.4C1258.16 181.093 1258.31 181.712 1258.61 182.256C1258.92 182.8 1259.35 183.227 1259.89 183.536C1260.43 183.835 1261.05 183.984 1261.75 183.984C1262.87 183.984 1263.8 183.541 1264.56 182.656L1266.23 184.192C1265.69 184.843 1265.03 185.339 1264.24 185.68C1263.45 186.021 1262.57 186.192 1261.6 186.192ZM1184.77 194.8C1185.76 194.8 1186.62 194.965 1187.35 195.296C1188.08 195.627 1188.65 196.096 1189.04 196.704C1189.44 197.312 1189.63 198.032 1189.63 198.864C1189.63 199.685 1189.44 200.405 1189.04 201.024C1188.65 201.632 1188.08 202.101 1187.35 202.432C1186.62 202.752 1185.76 202.912 1184.77 202.912H1182.51V206H1179.92V194.8H1184.77ZM1184.63 200.8C1185.4 200.8 1186 200.635 1186.4 200.304C1186.81 199.963 1187.01 199.483 1187.01 198.864C1187.01 198.235 1186.81 197.755 1186.4 197.424C1186 197.083 1185.4 196.912 1184.63 196.912H1182.51V200.8H1184.63ZM1198.62 206L1196.46 202.88H1196.33H1194.08V206H1191.48V194.8H1196.33C1197.32 194.8 1198.18 194.965 1198.91 195.296C1199.64 195.627 1200.21 196.096 1200.6 196.704C1201 197.312 1201.2 198.032 1201.2 198.864C1201.2 199.696 1200.99 200.416 1200.59 201.024C1200.19 201.621 1199.63 202.08 1198.89 202.4L1201.4 206H1198.62ZM1198.57 198.864C1198.57 198.235 1198.37 197.755 1197.96 197.424C1197.56 197.083 1196.97 196.912 1196.19 196.912H1194.08V200.816H1196.19C1196.97 200.816 1197.56 200.645 1197.96 200.304C1198.37 199.963 1198.57 199.483 1198.57 198.864ZM1211.92 203.92V206H1203.25V194.8H1211.71V196.88H1205.83V199.312H1211.03V201.328H1205.83V203.92H1211.92ZM1217.66 206.192C1216.78 206.192 1215.92 206.075 1215.09 205.84C1214.27 205.595 1213.61 205.28 1213.1 204.896L1213.98 202.944C1214.46 203.296 1215.03 203.579 1215.7 203.792C1216.36 204.005 1217.02 204.112 1217.68 204.112C1218.42 204.112 1218.96 204.005 1219.31 203.792C1219.66 203.568 1219.84 203.275 1219.84 202.912C1219.84 202.645 1219.73 202.427 1219.52 202.256C1219.32 202.075 1219.05 201.931 1218.72 201.824C1218.4 201.717 1217.96 201.6 1217.41 201.472C1216.55 201.269 1215.86 201.067 1215.31 200.864C1214.77 200.661 1214.3 200.336 1213.9 199.888C1213.52 199.44 1213.33 198.843 1213.33 198.096C1213.33 197.445 1213.5 196.859 1213.86 196.336C1214.21 195.803 1214.74 195.381 1215.44 195.072C1216.15 194.763 1217.02 194.608 1218.05 194.608C1218.76 194.608 1219.46 194.693 1220.14 194.864C1220.83 195.035 1221.42 195.28 1221.94 195.6L1221.14 197.568C1220.1 196.981 1219.07 196.688 1218.03 196.688C1217.31 196.688 1216.77 196.805 1216.42 197.04C1216.07 197.275 1215.9 197.584 1215.9 197.968C1215.9 198.352 1216.1 198.64 1216.5 198.832C1216.9 199.013 1217.51 199.195 1218.34 199.376C1219.19 199.579 1219.89 199.781 1220.43 199.984C1220.98 200.187 1221.44 200.507 1221.82 200.944C1222.22 201.381 1222.42 201.973 1222.42 202.72C1222.42 203.36 1222.23 203.947 1221.87 204.48C1221.52 205.003 1220.99 205.419 1220.27 205.728C1219.56 206.037 1218.69 206.192 1217.66 206.192ZM1232.86 203.92V206H1224.19V194.8H1232.65V196.88H1226.76V199.312H1231.96V201.328H1226.76V203.92H1232.86ZM1245.19 194.8V206H1243.07L1237.48 199.2V206H1234.92V194.8H1237.07L1242.63 201.6V194.8H1245.19ZM1253.2 206.192C1252.06 206.192 1251.03 205.947 1250.1 205.456C1249.18 204.955 1248.46 204.267 1247.92 203.392C1247.4 202.507 1247.14 201.509 1247.14 200.4C1247.14 199.291 1247.4 198.299 1247.92 197.424C1248.46 196.539 1249.18 195.851 1250.1 195.36C1251.03 194.859 1252.07 194.608 1253.22 194.608C1254.19 194.608 1255.06 194.779 1255.84 195.12C1256.63 195.461 1257.29 195.952 1257.83 196.592L1256.16 198.128C1255.41 197.253 1254.47 196.816 1253.35 196.816C1252.65 196.816 1252.04 196.971 1251.49 197.28C1250.95 197.579 1250.52 198 1250.21 198.544C1249.91 199.088 1249.76 199.707 1249.76 200.4C1249.76 201.093 1249.91 201.712 1250.21 202.256C1250.52 202.8 1250.95 203.227 1251.49 203.536C1252.04 203.835 1252.65 203.984 1253.35 203.984C1254.47 203.984 1255.41 203.541 1256.16 202.656L1257.83 204.192C1257.29 204.843 1256.63 205.339 1255.84 205.68C1255.05 206.021 1254.17 206.192 1253.2 206.192ZM1268.25 203.92V206H1259.58V194.8H1268.04V196.88H1262.15V199.312H1267.35V201.328H1262.15V203.92H1268.25Z" fill="white"/>
<path d="M1207.46 64.875H1195.58C1194.53 64.875 1193.52 65.292 1192.78 66.0344C1192.04 66.7767 1191.62 67.7835 1191.62 68.8333V80.7083H1211.41V68.8333C1211.41 67.7835 1211 66.7767 1210.25 66.0344C1209.51 65.292 1208.51 64.875 1207.46 64.875ZM1235.16 68.8333V80.7083H1254.96V68.8333C1254.96 67.7835 1254.54 66.7767 1253.8 66.0344C1253.05 65.292 1252.05 64.875 1251 64.875H1239.12C1238.07 64.875 1237.07 65.292 1236.32 66.0344C1235.58 66.7767 1235.16 67.7835 1235.16 68.8333ZM1235.16 108.417C1235.16 111.566 1233.91 114.587 1231.69 116.814C1229.46 119.041 1226.44 120.292 1223.29 120.292C1220.14 120.292 1217.12 119.041 1214.89 116.814C1212.67 114.587 1211.41 111.566 1211.41 108.417V88.625H1191.62V108.417C1191.62 116.815 1194.96 124.87 1200.9 130.808C1206.84 136.747 1214.89 140.083 1223.29 140.083C1231.69 140.083 1239.74 136.747 1245.68 130.808C1251.62 124.87 1254.96 116.815 1254.96 108.417V88.625H1235.16V108.417Z" fill="#E3B002"/>
<path d="M1403.29 0H1591.87V260H1401.96L1403.29 0Z" fill="#292929"/>
<path d="M1366.58 14.3527L1403.29 0.000976562L1402.29 259.667L1366.58 245.983V14.3527Z" fill="#1F1F1F"/>
<path d="M1445.89 186.192C1444.75 186.192 1443.71 185.947 1442.79 185.456C1441.87 184.955 1441.14 184.267 1440.61 183.392C1440.09 182.507 1439.83 181.509 1439.83 180.4C1439.83 179.291 1440.09 178.299 1440.61 177.424C1441.14 176.539 1441.87 175.851 1442.79 175.36C1443.71 174.859 1444.75 174.608 1445.91 174.608C1446.88 174.608 1447.75 174.779 1448.53 175.12C1449.32 175.461 1449.98 175.952 1450.51 176.592L1448.85 178.128C1448.09 177.253 1447.15 176.816 1446.03 176.816C1445.34 176.816 1444.72 176.971 1444.18 177.28C1443.63 177.579 1443.21 178 1442.9 178.544C1442.6 179.088 1442.45 179.707 1442.45 180.4C1442.45 181.093 1442.6 181.712 1442.9 182.256C1443.21 182.8 1443.63 183.227 1444.18 183.536C1444.72 183.835 1445.34 183.984 1446.03 183.984C1447.15 183.984 1448.09 183.541 1448.85 182.656L1450.51 184.192C1449.98 184.843 1449.32 185.339 1448.53 185.68C1447.74 186.021 1446.86 186.192 1445.89 186.192ZM1457.45 186.192C1456.29 186.192 1455.24 185.941 1454.3 185.44C1453.37 184.939 1452.64 184.251 1452.11 183.376C1451.59 182.491 1451.33 181.499 1451.33 180.4C1451.33 179.301 1451.59 178.315 1452.11 177.44C1452.64 176.555 1453.37 175.861 1454.3 175.36C1455.24 174.859 1456.29 174.608 1457.45 174.608C1458.62 174.608 1459.66 174.859 1460.59 175.36C1461.52 175.861 1462.25 176.555 1462.78 177.44C1463.32 178.315 1463.58 179.301 1463.58 180.4C1463.58 181.499 1463.32 182.491 1462.78 183.376C1462.25 184.251 1461.52 184.939 1460.59 185.44C1459.66 185.941 1458.62 186.192 1457.45 186.192ZM1457.45 183.984C1458.12 183.984 1458.71 183.835 1459.25 183.536C1459.78 183.227 1460.2 182.8 1460.49 182.256C1460.8 181.712 1460.96 181.093 1460.96 180.4C1460.96 179.707 1460.8 179.088 1460.49 178.544C1460.2 178 1459.78 177.579 1459.25 177.28C1458.71 176.971 1458.12 176.816 1457.45 176.816C1456.79 176.816 1456.2 176.971 1455.66 177.28C1455.13 177.579 1454.71 178 1454.4 178.544C1454.1 179.088 1453.95 179.707 1453.95 180.4C1453.95 181.093 1454.1 181.712 1454.4 182.256C1454.71 182.8 1455.13 183.227 1455.66 183.536C1456.2 183.835 1456.79 183.984 1457.45 183.984ZM1470.38 174.8C1471.37 174.8 1472.23 174.965 1472.95 175.296C1473.69 175.627 1474.26 176.096 1474.65 176.704C1475.05 177.312 1475.24 178.032 1475.24 178.864C1475.24 179.685 1475.05 180.405 1474.65 181.024C1474.26 181.632 1473.69 182.101 1472.95 182.432C1472.23 182.752 1471.37 182.912 1470.38 182.912H1468.12V186H1465.53V174.8H1470.38ZM1470.23 180.8C1471.01 180.8 1471.61 180.635 1472.01 180.304C1472.42 179.963 1472.62 179.483 1472.62 178.864C1472.62 178.235 1472.42 177.755 1472.01 177.424C1471.61 177.083 1471.01 176.912 1470.23 176.912H1468.12V180.8H1470.23ZM1479.1 176.912H1475.52V174.8H1485.28V176.912H1481.69V186H1479.1V176.912ZM1486.67 174.8H1489.26V186H1486.67V174.8ZM1502.63 174.8L1497.78 186H1495.22L1490.39 174.8H1493.19L1496.59 182.8L1500.05 174.8H1502.63ZM1510.56 183.6H1505.36L1504.37 186H1501.71L1506.71 174.8H1509.27L1514.27 186H1511.55L1510.56 183.6ZM1509.75 181.632L1507.97 177.344L1506.19 181.632H1509.75ZM1517.19 176.912H1513.61V174.8H1523.37V176.912H1519.79V186H1517.19V176.912ZM1524.77 174.8H1527.36V186H1524.77V174.8ZM1540.29 174.8V186H1538.16L1532.58 179.2V186H1530.02V174.8H1532.16L1537.73 181.6V174.8H1540.29ZM1550.5 180.224H1552.87V184.768C1552.26 185.227 1551.56 185.579 1550.76 185.824C1549.96 186.069 1549.16 186.192 1548.34 186.192C1547.18 186.192 1546.14 185.947 1545.21 185.456C1544.28 184.955 1543.55 184.267 1543.02 183.392C1542.49 182.507 1542.23 181.509 1542.23 180.4C1542.23 179.291 1542.49 178.299 1543.02 177.424C1543.55 176.539 1544.29 175.851 1545.22 175.36C1546.16 174.859 1547.22 174.608 1548.39 174.608C1549.37 174.608 1550.26 174.773 1551.06 175.104C1551.86 175.435 1552.54 175.915 1553.08 176.544L1551.42 178.08C1550.62 177.237 1549.65 176.816 1548.52 176.816C1547.81 176.816 1547.17 176.965 1546.62 177.264C1546.06 177.563 1545.63 177.984 1545.32 178.528C1545.01 179.072 1544.86 179.696 1544.86 180.4C1544.86 181.093 1545.01 181.712 1545.32 182.256C1545.63 182.8 1546.06 183.227 1546.6 183.536C1547.16 183.835 1547.78 183.984 1548.49 183.984C1549.24 183.984 1549.91 183.824 1550.5 183.504V180.224ZM1433.78 206.192C1432.9 206.192 1432.04 206.075 1431.2 205.84C1430.38 205.595 1429.72 205.28 1429.22 204.896L1430.1 202.944C1430.58 203.296 1431.15 203.579 1431.81 203.792C1432.47 204.005 1433.14 204.112 1433.8 204.112C1434.53 204.112 1435.08 204.005 1435.43 203.792C1435.78 203.568 1435.96 203.275 1435.96 202.912C1435.96 202.645 1435.85 202.427 1435.64 202.256C1435.43 202.075 1435.17 201.931 1434.84 201.824C1434.52 201.717 1434.08 201.6 1433.52 201.472C1432.67 201.269 1431.97 201.067 1431.43 200.864C1430.88 200.661 1430.42 200.336 1430.02 199.888C1429.64 199.44 1429.44 198.843 1429.44 198.096C1429.44 197.445 1429.62 196.859 1429.97 196.336C1430.32 195.803 1430.85 195.381 1431.56 195.072C1432.27 194.763 1433.14 194.608 1434.16 194.608C1434.88 194.608 1435.58 194.693 1436.26 194.864C1436.94 195.035 1437.54 195.28 1438.05 195.6L1437.25 197.568C1436.22 196.981 1435.18 196.688 1434.15 196.688C1433.42 196.688 1432.88 196.805 1432.53 197.04C1432.19 197.275 1432.02 197.584 1432.02 197.968C1432.02 198.352 1432.22 198.64 1432.61 198.832C1433.02 199.013 1433.63 199.195 1434.45 199.376C1435.31 199.579 1436 199.781 1436.55 199.984C1437.09 200.187 1437.56 200.507 1437.94 200.944C1438.34 201.381 1438.53 201.973 1438.53 202.72C1438.53 203.36 1438.35 203.947 1437.99 204.48C1437.64 205.003 1437.1 205.419 1436.39 205.728C1435.67 206.037 1434.8 206.192 1433.78 206.192ZM1442.47 196.912H1438.88V194.8H1448.64V196.912H1445.06V206H1442.47V196.912ZM1455.31 206.192C1454.14 206.192 1453.09 205.941 1452.15 205.44C1451.23 204.939 1450.5 204.251 1449.96 203.376C1449.44 202.491 1449.18 201.499 1449.18 200.4C1449.18 199.301 1449.44 198.315 1449.96 197.44C1450.5 196.555 1451.23 195.861 1452.15 195.36C1453.09 194.859 1454.14 194.608 1455.31 194.608C1456.47 194.608 1457.51 194.859 1458.44 195.36C1459.37 195.861 1460.1 196.555 1460.63 197.44C1461.17 198.315 1461.43 199.301 1461.43 200.4C1461.43 201.499 1461.17 202.491 1460.63 203.376C1460.1 204.251 1459.37 204.939 1458.44 205.44C1457.51 205.941 1456.47 206.192 1455.31 206.192ZM1455.31 203.984C1455.97 203.984 1456.56 203.835 1457.1 203.536C1457.63 203.227 1458.05 202.8 1458.35 202.256C1458.66 201.712 1458.81 201.093 1458.81 200.4C1458.81 199.707 1458.66 199.088 1458.35 198.544C1458.05 198 1457.63 197.579 1457.1 197.28C1456.56 196.971 1455.97 196.816 1455.31 196.816C1454.64 196.816 1454.05 196.971 1453.51 197.28C1452.98 197.579 1452.56 198 1452.25 198.544C1451.95 199.088 1451.8 199.707 1451.8 200.4C1451.8 201.093 1451.95 201.712 1452.25 202.256C1452.56 202.8 1452.98 203.227 1453.51 203.536C1454.05 203.835 1454.64 203.984 1455.31 203.984ZM1470.52 206L1468.36 202.88H1468.23H1465.97V206H1463.38V194.8H1468.23C1469.22 194.8 1470.08 194.965 1470.81 195.296C1471.54 195.627 1472.11 196.096 1472.5 196.704C1472.9 197.312 1473.09 198.032 1473.09 198.864C1473.09 199.696 1472.89 200.416 1472.49 201.024C1472.09 201.621 1471.53 202.08 1470.79 202.4L1473.3 206H1470.52ZM1470.47 198.864C1470.47 198.235 1470.27 197.755 1469.86 197.424C1469.46 197.083 1468.86 196.912 1468.09 196.912H1465.97V200.816H1468.09C1468.86 200.816 1469.46 200.645 1469.86 200.304C1470.27 199.963 1470.47 199.483 1470.47 198.864ZM1480.37 202.032V206H1477.78V202L1473.44 194.8H1476.19L1479.18 199.776L1482.18 194.8H1484.72L1480.37 202.032ZM1487.92 196.912H1484.34V194.8H1494.1V196.912H1490.51V206H1487.92V196.912ZM1504.16 203.92V206H1495.49V194.8H1503.96V196.88H1498.07V199.312H1503.27V201.328H1498.07V203.92H1504.16ZM1506.23 194.8H1508.82V203.888H1514.43V206H1506.23V194.8ZM1515.88 194.8H1518.47V203.888H1524.09V206H1515.88V194.8ZM1525.54 194.8H1528.13V203.888H1533.75V206H1525.54V194.8ZM1535.19 194.8H1537.79V206H1535.19V194.8ZM1550.72 194.8V206H1548.59L1543 199.2V206H1540.44V194.8H1542.59L1548.16 201.6V194.8H1550.72ZM1560.93 200.224H1563.3V204.768C1562.69 205.227 1561.99 205.579 1561.19 205.824C1560.39 206.069 1559.59 206.192 1558.77 206.192C1557.61 206.192 1556.57 205.947 1555.64 205.456C1554.71 204.955 1553.98 204.267 1553.45 203.392C1552.92 202.507 1552.66 201.509 1552.66 200.4C1552.66 199.291 1552.92 198.299 1553.45 197.424C1553.98 196.539 1554.72 195.851 1555.65 195.36C1556.59 194.859 1557.65 194.608 1558.82 194.608C1559.8 194.608 1560.69 194.773 1561.49 195.104C1562.29 195.435 1562.97 195.915 1563.51 196.544L1561.85 198.08C1561.05 197.237 1560.08 196.816 1558.95 196.816C1558.24 196.816 1557.6 196.965 1557.05 197.264C1556.49 197.563 1556.06 197.984 1555.75 198.528C1555.44 199.072 1555.29 199.696 1555.29 200.4C1555.29 201.093 1555.44 201.712 1555.75 202.256C1556.06 202.8 1556.49 203.227 1557.03 203.536C1557.59 203.835 1558.21 203.984 1558.92 203.984C1559.67 203.984 1560.34 203.824 1560.93 203.504V200.224Z" fill="white"/>
<path d="M1480.74 95.5906H1478.45C1475.32 95.4774 1472.19 96.0092 1469.27 97.1532C1466.35 98.2971 1463.7 100.029 1461.48 102.241L1460.85 102.98V124.829H1471.61V112.427L1473.07 110.791L1473.72 110.025C1477.16 106.496 1481.44 103.899 1486.15 102.478C1483.79 100.681 1481.93 98.3104 1480.74 95.5906Z" fill="#E3B002"/>
<path d="M1531.78 102.163C1529.56 99.9511 1526.91 98.2195 1523.99 97.0756C1521.07 95.9316 1517.95 95.3997 1514.81 95.513C1513.85 95.5157 1512.89 95.5685 1511.94 95.6713C1510.73 98.2229 1508.92 100.442 1506.66 102.137C1511.69 103.53 1516.25 106.266 1519.85 110.053L1520.51 110.792L1521.94 112.428V124.857H1532.33V102.902L1531.78 102.163Z" fill="#E3B002"/>
<path d="M1478.37 90.4454H1479.19C1478.81 87.1817 1479.38 83.8778 1480.84 80.9324C1482.29 77.9871 1484.57 75.5262 1487.39 73.8468C1486.37 72.2828 1484.96 71.0116 1483.3 70.1575C1481.63 69.3034 1479.78 68.8957 1477.91 68.9744C1476.04 69.0531 1474.23 69.6155 1472.64 70.6064C1471.06 71.5974 1469.76 72.983 1468.87 74.6275C1467.98 76.272 1467.53 78.1191 1467.57 79.9879C1467.61 81.8567 1468.14 83.6831 1469.1 85.2882C1470.05 86.8934 1471.41 88.2223 1473.04 89.1449C1474.66 90.0674 1476.5 90.5519 1478.37 90.551V90.4454Z" fill="#E3B002"/>
<path d="M1513.55 88.4667C1513.58 89.0732 1513.58 89.681 1513.55 90.2875C1514.05 90.3678 1514.56 90.4119 1515.08 90.4194H1515.58C1517.44 90.3202 1519.24 89.7408 1520.81 88.7376C1522.38 87.7344 1523.67 86.3417 1524.54 84.6949C1525.41 83.0482 1525.84 81.2036 1525.79 79.3407C1525.74 77.4778 1525.21 75.6601 1524.24 74.0645C1523.28 72.469 1521.92 71.15 1520.3 70.236C1518.67 69.3219 1516.84 68.844 1514.98 68.8487C1513.11 68.8534 1511.28 69.3405 1509.66 70.2627C1508.04 71.1849 1506.69 72.5107 1505.73 74.1111C1508.12 75.6705 1510.09 77.7984 1511.45 80.304C1512.81 82.8095 1513.53 85.6143 1513.55 88.4667Z" fill="#E3B002"/>
<path d="M1496.23 100.288C1502.75 100.288 1508.03 95.0068 1508.03 88.4921C1508.03 81.9775 1502.75 76.6963 1496.23 76.6963C1489.72 76.6963 1484.44 81.9775 1484.44 88.4921C1484.44 95.0068 1489.72 100.288 1496.23 100.288Z" fill="#E3B002"/>
<path d="M1496.87 106.57C1493.42 106.43 1489.98 106.99 1486.76 108.214C1483.53 109.439 1480.59 111.303 1478.11 113.695L1477.45 114.433V131.138C1477.46 131.682 1477.57 132.218 1477.79 132.717C1478.01 133.216 1478.32 133.667 1478.72 134.044C1479.11 134.422 1479.57 134.718 1480.08 134.917C1480.58 135.115 1481.12 135.212 1481.67 135.201H1511.99C1512.53 135.212 1513.07 135.115 1513.58 134.917C1514.09 134.718 1514.55 134.422 1514.94 134.044C1515.33 133.667 1515.65 133.216 1515.87 132.717C1516.08 132.218 1516.2 131.682 1516.21 131.138V114.486L1515.58 113.695C1513.11 111.296 1510.18 109.426 1506.96 108.201C1503.74 106.976 1500.31 106.421 1496.87 106.57Z" fill="#E3B002"/>
<defs>
<clipPath id="clip0">
<rect width="95" height="95" fill="white" transform="translate(356.256 52.6182)"/>
</clipPath>
<clipPath id="clip1">
<rect width="94" height="94" fill="white" transform="translate(631.711 53)"/>
</clipPath>
</defs>
</svg>
