<svg width="392" height="306" viewBox="0 0 392 306" fill="none" xmlns="http://www.w3.org/2000/svg">
<mask id="mask0" mask-type="alpha" maskUnits="userSpaceOnUse" x="0" y="0" width="392" height="306">
<rect width="392" height="306" fill="#C4C4C4"/>
</mask>
<g mask="url(#mask0)">
<rect x="-18" y="68.0508" width="137.289" height="27.156" transform="rotate(-40.4386 -18 68.0508)" fill="black"/>
<path d="M19.1726 58.1152L20.1731 57.2626L18.8656 55.7283L19.7067 55.0115C20.795 54.0841 20.8747 52.8952 20.0693 51.9502C19.2679 51.0097 18.0812 50.8763 17.0067 51.792L15.1397 53.3831L19.1726 58.1152ZM18.1823 54.9265L16.8373 53.3484L17.512 52.7734C18.0897 52.2811 18.6371 52.357 19.0388 52.8284C19.4385 53.2975 19.4346 53.8592 18.8616 54.3476L18.1823 54.9265ZM25.7177 48.4528C24.3983 46.9047 22.6848 46.8412 21.4302 47.9105C20.1686 48.9857 19.9665 50.6816 21.2859 52.2297C22.5993 53.7709 24.3117 53.8472 25.5733 52.7721C26.828 51.7028 27.037 50.0009 25.7177 48.4528ZM24.7033 49.3173C25.5579 50.3201 25.5447 51.2688 24.8191 51.8871C24.0913 52.5074 23.1549 52.3681 22.3002 51.3652C21.4456 50.3624 21.4565 49.4157 22.1844 48.7954C22.9099 48.1771 23.8487 48.3145 24.7033 49.3173ZM30.1528 48.7576C31.5946 47.5289 31.7079 45.8926 30.4476 44.4138C29.1913 42.9396 27.5617 42.7967 26.1337 44.0137L24.4423 45.4551L28.4752 50.1873L30.1528 48.7576ZM28.7452 48.4774L26.1734 45.4597L26.8111 44.9162C27.6984 44.16 28.5535 44.2132 29.4494 45.2645C30.3494 46.3205 30.2702 47.1777 29.3806 47.9358L28.7452 48.4774ZM34.7635 39.5191C33.7003 38.5384 32.3375 38.6149 31.2423 39.5483C29.9922 40.6136 29.7902 42.3096 31.1095 43.8577C32.4249 45.4012 34.1192 45.489 35.3855 44.4099C36.5985 43.3761 36.6438 41.9454 36.01 40.9817L34.994 41.8396C35.3305 42.4264 35.1812 43.0562 34.6474 43.5111C33.9288 44.1235 32.9864 44.0053 32.1239 42.9932C31.285 42.0089 31.2871 41.0378 32.0196 40.4136C32.5672 39.9469 33.2321 39.9267 33.7514 40.3816L34.7635 39.5191ZM38.8286 41.3638L38.2602 39.9854L39.9678 38.5302L41.2386 39.31L42.3107 38.3963L36.6465 35.0543L35.3572 36.1531L37.7565 42.2775L38.8286 41.3638ZM37.8488 38.9878L36.905 36.7009L36.9419 36.6693L39.0503 37.9639L37.8488 38.9878ZM42.4664 32.4439L43.4253 31.6267C42.6927 30.7951 41.5032 30.8036 40.4496 31.7016C39.4121 32.5857 39.1403 33.8066 39.8774 34.6623C40.4698 35.362 41.3026 35.3423 42.2656 34.8528L42.8911 34.543C43.5127 34.2287 43.9253 34.1324 44.1993 34.4493C44.4924 34.7979 44.3651 35.3132 43.8568 35.7464C43.3369 36.1895 42.7578 36.2682 42.3218 35.822L41.3536 36.6471C42.2514 37.6491 43.4348 37.554 44.5832 36.5753C45.7385 35.5907 45.9472 34.4595 45.211 33.5911C44.5372 32.8051 43.587 32.893 42.6069 33.4091L42.0951 33.6698C41.603 33.9256 41.1288 34.0665 40.8462 33.7209C40.5863 33.4159 40.6656 32.9614 41.1555 32.5439C41.6338 32.1363 42.1124 32.1034 42.4664 32.4439ZM43.5259 30.6156L44.9746 29.3809L48.3045 33.2882L49.2935 32.4454L45.9636 28.5381L47.4124 27.3034L46.7094 26.4785L42.8229 29.7907L43.5259 30.6156ZM52.8883 29.3818L53.8888 28.5291L52.2228 26.5743L54.2539 24.8434L55.9198 26.7982L56.918 25.9475L52.8851 21.2153L51.8869 22.066L53.5509 24.0185L51.5198 25.7494L49.8559 23.7969L48.8554 24.6496L52.8883 29.3818ZM60.0751 19.1724C58.7557 17.6243 57.0423 17.5608 55.7876 18.6301C54.526 19.7053 54.3239 21.4012 55.6433 22.9493C56.9567 24.4905 58.6691 24.5668 59.9308 23.4916C61.1854 22.4224 61.3944 20.7205 60.0751 19.1724ZM59.0607 20.0369C59.9153 21.0397 59.9021 21.9884 59.1766 22.6067C58.4487 23.227 57.5123 23.0877 56.6576 22.0848C55.803 21.082 55.8139 20.1353 56.5418 19.515C57.2673 18.8967 58.2061 19.0341 59.0607 20.0369ZM62.5267 15.3479L63.4856 14.5307C62.753 13.6991 61.5636 13.7076 60.5099 14.6055C59.4725 15.4897 59.2006 16.7106 59.9378 17.5662C60.5302 18.266 61.363 18.2463 62.3259 17.7567L62.9515 17.447C63.5731 17.1327 63.9856 17.0364 64.2597 17.3533C64.5528 17.7018 64.4255 18.2171 63.9172 18.6504C63.3973 19.0934 62.8182 19.1721 62.3821 18.726L61.414 19.5511C62.3117 20.5531 63.4951 20.458 64.6435 19.4793C65.7989 18.4947 66.0075 17.3635 65.2714 16.495C64.5976 15.7091 63.6473 15.7969 62.6672 16.3131L62.1554 16.5738C61.6634 16.8296 61.1891 16.9705 60.9066 16.6249C60.6467 16.3199 60.726 15.8654 61.2159 15.4479C61.6942 15.0403 62.1727 15.0074 62.5267 15.3479ZM63.5862 13.5195L65.035 12.2849L68.3649 16.1921L69.3538 15.3493L66.0239 11.442L67.4727 10.2074L66.7697 9.38246L62.8832 12.6946L63.5862 13.5195Z" fill="#F6F6F6"/>
</g>
</svg>
