<svg width="84" height="84" viewBox="0 0 84 84" fill="none" xmlns="http://www.w3.org/2000/svg">
<g clip-path="url(#clip0)">
<path d="M81.0365 48.1093L77.9679 43.3936C77.4163 42.5475 77.4163 41.4534 77.9679 40.6055L81.038 35.8879C83.8328 31.5851 81.9415 25.8214 77.172 23.9987L71.9191 21.9862C70.9749 21.6246 70.3307 20.7386 70.2787 19.73L69.9896 14.1122C69.7277 9.00413 64.8254 5.43579 59.8727 6.76108L54.4413 8.22205C53.4686 8.48356 52.4225 8.14707 51.7889 7.36089L48.2514 2.98537C45.0319 -0.998867 38.9562 -0.992305 35.7465 2.98816L32.209 7.36122C31.5754 8.14756 30.5312 8.48569 29.5584 8.22238L24.127 6.76239C19.1878 5.43202 14.2708 8.99789 14.0085 14.1125L13.7194 19.7313C13.6678 20.7398 13.0251 21.6251 12.081 21.9865L6.82803 23.9974C2.05269 25.826 0.167464 31.5923 2.96373 35.8918L6.03004 40.6039C6.58161 41.4517 6.58161 42.5477 6.03184 43.3937L2.96373 48.1095C0.168776 52.3994 2.04974 58.1762 6.82803 60.0022L12.081 62.0137C13.0251 62.376 13.6678 63.2612 13.7194 64.2699L14.0085 69.8887C14.2704 74.9959 19.1768 78.5664 24.127 77.2388L29.5584 75.777C30.5295 75.5163 31.5718 75.852 32.2108 76.641L35.7467 81.014C38.9598 84.9902 45.0258 85.0004 48.2534 81.0158L51.7893 76.641C52.4265 75.8521 53.4671 75.5181 54.4398 75.777L59.8765 77.2406C64.8067 78.5621 69.7273 75.0104 69.9896 69.8885L70.2787 64.2715C70.3303 63.2614 70.9748 62.376 71.9191 62.0136L77.172 60.0038C81.9459 58.1758 83.8329 52.4089 81.0365 48.1093ZM30.9113 27.2261C33.9349 27.2261 36.3944 29.6857 36.3944 32.7092C36.3944 35.7329 33.9348 38.1923 30.9113 38.1923C27.8876 38.1923 25.4282 35.7327 25.4282 32.7092C25.4282 29.6857 27.8878 27.2261 30.9113 27.2261ZM51.0162 58.2974C47.9925 58.2974 45.5331 55.8378 45.5331 52.8143C45.5331 49.7906 47.9927 47.3312 51.0162 47.3312C54.0399 47.3312 56.4993 49.7908 56.4993 52.8143C56.4995 55.838 54.0399 58.2974 51.0162 58.2974ZM55.6964 31.9061L30.1082 57.4942C29.0372 58.5651 27.3024 58.5651 26.2314 57.4942C25.1606 56.4233 25.1606 54.6882 26.2314 53.6174L51.8194 28.0294C52.8903 26.9585 54.6254 26.9585 55.6962 28.0294C56.7672 29.1002 56.7672 30.8351 55.6964 31.9061Z" fill="#E3B002"/>
</g>
<defs>
<clipPath id="clip0">
<rect width="84" height="84" fill="white"/>
</clipPath>
</defs>
</svg>
