<svg width="944" height="118" viewBox="0 0 944 118" fill="none" xmlns="http://www.w3.org/2000/svg">
<path d="M70.9514 1.81818V73.9066C70.9514 86.9528 61.8079 96.375 47.7582 96.375C33.7642 96.375 24.565 86.9528 24.565 73.9066V1.81818H0.424006V75.9695C0.424006 100.947 19.2685 117.617 47.7582 117.617C76.1364 117.617 95.0923 100.947 95.0923 75.9695V1.81818H70.9514ZM210.459 1.81818H186.429V73.6278H185.426L136.14 1.81818H114.954V116H139.095V44.1346H139.932L189.607 116H210.459V1.81818ZM254.545 1.81818H230.404V116H254.545V1.81818ZM295.036 1.81818H268.219L307.636 116H338.746L378.108 1.81818H351.346L323.693 88.5696H322.634L295.036 1.81818ZM391.851 116H469.013V96.0962H415.992V68.8331H464.831V48.9293H415.992V21.7219H468.79V1.81818H391.851V116ZM487.983 116H512.124V75.5234H529.741L551.374 116H578.023L553.771 71.6207C566.761 66.0455 573.953 54.7276 573.953 39.1168C573.953 16.4254 558.956 1.81818 533.031 1.81818H487.983V116ZM512.124 56.1214V21.5547H528.403C542.342 21.5547 549.088 27.7433 549.088 39.1168C549.088 50.4347 542.342 56.1214 528.515 56.1214H512.124ZM652.955 34.6566H676.093C675.758 14.3068 659.032 0.257098 633.609 0.257098C608.576 0.257098 590.233 14.0838 590.345 34.8239C590.289 51.6612 602.164 61.3065 621.455 65.9339L633.888 69.0561C646.321 72.0668 653.234 75.6349 653.29 83.3288C653.234 91.6918 645.317 97.3786 633.051 97.3786C620.507 97.3786 611.475 91.5803 610.695 80.1509H587.334C587.947 104.849 605.621 117.617 633.33 117.617C661.207 117.617 677.598 104.292 677.654 83.3846C677.598 64.3729 663.27 54.2816 643.422 49.8214L633.163 47.3682C623.239 45.0824 614.932 41.4027 615.099 33.207C615.099 25.8477 621.622 20.4396 633.442 20.4396C644.983 20.4396 652.063 25.6804 652.955 34.6566ZM718.033 1.81818H693.892V116H718.033V1.81818ZM733.546 21.7219H768.503V116H792.365V21.7219H827.322V1.81818H733.546V21.7219ZM836.075 1.81818L877.723 75.6349V116H901.697V75.6349L943.344 1.81818H916.304L890.267 50.9922H889.152L863.116 1.81818H836.075Z" fill="url(#paint0_linear)"/>
<defs>
<linearGradient id="paint0_linear" x1="469" y1="-1.57971" x2="469" y2="115.449" gradientUnits="userSpaceOnUse">
<stop stop-color="#E3B002"/>
<stop offset="1" stop-color="#DBD0A9" stop-opacity="0"/>
</linearGradient>
</defs>
</svg>
