<svg width="746" height="90" viewBox="0 0 746 90" fill="none" xmlns="http://www.w3.org/2000/svg">
<path d="M24.0805 88H41.1643L56.9122 33.7933H57.5599L73.3483 88H90.4321L114.155 5.09091H95.0067L81.2829 62.8196H80.5542L65.4541 5.09091H49.0585L33.9179 62.6982H33.2297L19.5059 5.09091H0.357511L24.0805 88ZM140.459 52.0511C140.499 44.0355 145.398 39.3395 152.442 39.3395C159.445 39.3395 163.575 43.8331 163.534 51.4844V88H180.78V48.4077C180.82 33.8338 172.238 25.0085 159.283 25.0085C149.851 25.0085 143.536 29.4616 140.702 36.7891H139.973V5.09091H123.213V88H140.459V52.0511ZM212.083 89.174C221.273 89.174 227.224 85.1662 230.26 79.3771H230.746V88H247.101V46.0597C247.101 31.2429 234.551 25.0085 220.706 25.0085C205.809 25.0085 196.012 32.1335 193.623 43.4688L209.573 44.7642C210.747 40.6349 214.431 37.5987 220.625 37.5987C226.495 37.5987 229.855 40.554 229.855 45.6548V45.8977C229.855 49.9055 225.605 50.4318 214.796 51.4844C202.489 52.6179 191.437 56.7472 191.437 70.6328C191.437 82.9396 200.222 89.174 212.083 89.174ZM217.022 77.272C211.719 77.272 207.914 74.8026 207.914 70.0661C207.914 65.2081 211.921 62.8196 217.994 61.9695C221.759 61.4432 227.912 60.5526 229.977 59.1761V65.7749C229.977 72.2926 224.593 77.272 217.022 77.272ZM293.555 25.8182H281.856V10.9205H264.61V25.8182H256.109V38.7727H264.61V71.1591C264.529 83.3445 272.828 89.3764 285.337 88.8501C289.79 88.6882 292.948 87.7976 294.689 87.2308L291.976 74.3977C291.126 74.5597 289.305 74.9645 287.685 74.9645C284.244 74.9645 281.856 73.669 281.856 68.892V38.7727H293.555V25.8182ZM315.882 5.09091H303.575V36.5866H315.882V5.09091ZM380.351 43.5497C378.812 32.093 369.582 25.0085 353.875 25.0085C337.965 25.0085 327.48 32.3764 327.521 44.3594C327.48 53.6705 333.35 59.7024 345.495 62.1314L356.263 64.277C361.688 65.37 364.158 67.3537 364.239 70.4709C364.158 74.1548 360.15 76.7862 354.118 76.7862C347.964 76.7862 343.876 74.1548 342.823 69.0945L325.861 69.9851C327.48 81.8871 337.601 89.2145 354.077 89.2145C370.19 89.2145 381.727 80.9964 381.768 68.7301C381.727 59.7429 375.857 54.3587 363.793 51.8892L352.539 49.6222C346.75 48.3672 344.604 46.3835 344.645 43.3878C344.604 39.6634 348.815 37.2344 354.158 37.2344C360.15 37.2344 363.712 40.5135 364.562 44.5213L380.351 43.5497ZM419.012 88H436.258V25.8182H419.012V88ZM427.675 17.8026C432.817 17.8026 437.027 13.8757 437.027 9.05823C437.027 4.28125 432.817 0.354399 427.675 0.354399C422.574 0.354399 418.364 4.28125 418.364 9.05823C418.364 13.8757 422.574 17.8026 427.675 17.8026ZM467.318 52.0511C467.359 44.0355 472.136 39.3395 479.099 39.3395C486.021 39.3395 490.191 43.8736 490.151 51.4844V88H507.396V48.4077C507.396 33.9148 498.895 25.0085 485.94 25.0085C476.71 25.0085 470.031 29.5426 467.237 36.7891H466.509V25.8182H450.073V88H467.318V52.0511ZM572.726 43.5497C571.187 32.093 561.957 25.0085 546.25 25.0085C530.34 25.0085 519.855 32.3764 519.896 44.3594C519.855 53.6705 525.725 59.7024 537.87 62.1314L548.638 64.277C554.063 65.37 556.533 67.3537 556.614 70.4709C556.533 74.1548 552.525 76.7862 546.493 76.7862C540.339 76.7862 536.251 74.1548 535.198 69.0945L518.236 69.9851C519.855 81.8871 529.976 89.2145 546.452 89.2145C562.565 89.2145 574.102 80.9964 574.143 68.7301C574.102 59.7429 568.232 54.3587 556.168 51.8892L544.914 49.6222C539.125 48.3672 536.979 46.3835 537.02 43.3878C536.979 39.6634 541.19 37.2344 546.533 37.2344C552.525 37.2344 556.087 40.5135 556.937 44.5213L572.726 43.5497ZM585.002 88H602.248V25.8182H585.002V88ZM593.666 17.8026C598.807 17.8026 603.017 13.8757 603.017 9.05823C603.017 4.28125 598.807 0.354399 593.666 0.354399C588.565 0.354399 584.354 4.28125 584.354 9.05823C584.354 13.8757 588.565 17.8026 593.666 17.8026ZM638.976 89.0121C649.016 89.0121 654.238 83.223 656.627 78.0412H657.355V88H674.358V5.09091H657.153V36.2628H656.627C654.319 31.2024 649.34 25.0085 638.936 25.0085C625.293 25.0085 613.755 35.6151 613.755 56.9901C613.755 77.7983 624.807 89.0121 638.976 89.0121ZM644.441 75.2884C635.98 75.2884 631.365 67.7585 631.365 56.9091C631.365 46.1406 635.899 38.7322 644.441 38.7322C652.821 38.7322 657.517 45.8168 657.517 56.9091C657.517 68.0014 652.74 75.2884 644.441 75.2884ZM716.875 89.2145C732.259 89.2145 742.623 81.7251 745.052 70.1875L729.101 69.1349C727.361 73.8714 722.907 76.3409 717.159 76.3409C708.536 76.3409 703.071 70.6328 703.071 61.3622V61.3217H745.416V56.5852C745.416 35.4531 732.623 25.0085 716.187 25.0085C697.889 25.0085 686.027 38.0036 686.027 57.1925C686.027 76.9077 697.727 89.2145 716.875 89.2145ZM703.071 50.6342C703.435 43.5497 708.819 37.8821 716.471 37.8821C723.96 37.8821 729.142 43.2259 729.182 50.6342H703.071Z" fill="url(#paint0_linear)"/>
<defs>
<linearGradient id="paint0_linear" x1="374" y1="3" x2="374" y2="88" gradientUnits="userSpaceOnUse">
<stop stop-color="#E3B002"/>
<stop offset="1" stop-color="#DBD0A9" stop-opacity="0"/>
</linearGradient>
</defs>
</svg>
