<svg width="84" height="84" viewBox="0 0 84 84" fill="none" xmlns="http://www.w3.org/2000/svg">
<path d="M13.1944 8.89812C13.1944 3.98076 17.1683 0 22.079 0C26.9899 0 30.9639 3.98076 30.9639 8.89812C30.9639 13.8155 26.9899 17.7984 22.079 17.7984C17.1683 17.7984 13.1944 13.8155 13.1944 8.89812ZM62.9782 17.7984C67.889 17.7984 71.8631 13.8155 71.8631 8.89812C71.8631 3.98076 67.889 0 62.9782 0C58.0674 0 54.0934 3.98076 54.0934 8.89812C54.0934 13.8155 58.0673 17.7984 62.9782 17.7984ZM72.1717 52.1627L73.9523 79.6524C74.0976 81.9036 72.3964 83.8452 70.146 83.9909C70.0576 83.9975 69.9667 84 69.8783 84C67.7462 84 65.9519 82.3411 65.8136 80.1809L63.9854 51.944C63.6859 51.9075 63.3932 51.8529 63.0872 51.8529C62.824 51.8529 62.5247 51.9303 62.223 52.0124L60.2472 79.9554C60.0929 82.1061 58.3033 83.7494 56.1825 83.7494C56.0846 83.7494 55.9875 83.7469 55.8875 83.7402C53.6418 83.5805 51.9521 81.628 52.1087 79.3764L54.6174 43.8935C54.6265 43.7407 54.665 43.5993 54.6922 43.4513C54.9803 36.711 55.3115 30.1234 55.4475 27.4484C51.9542 29.8545 48.3592 34.8061 46.007 44.8981C46.0025 44.9141 45.9934 44.9278 45.9889 44.9439C45.9118 45.2515 45.787 45.5387 45.6236 45.8075C45.5918 45.8599 45.5602 45.9103 45.5237 45.9602C45.3558 46.2085 45.1562 46.4317 44.9226 46.6209C44.8818 46.6532 44.8387 46.6779 44.7979 46.71C44.5664 46.8808 44.31 47.0244 44.0335 47.1291C44.0085 47.1383 43.9858 47.1519 43.9609 47.1611C43.7569 47.2318 43.5412 47.2817 43.319 47.3094C43.1966 47.325 43.0719 47.3341 42.9493 47.3341C42.9471 47.3341 42.9471 47.3341 42.9448 47.3341H42.9426C42.9404 47.3341 42.9404 47.3341 42.938 47.3341C42.9335 47.3341 42.9314 47.3319 42.9269 47.3319C42.6975 47.3296 42.4641 47.3045 42.2282 47.2499C42.1216 47.2249 42.0243 47.1793 41.922 47.1452C41.8653 47.1246 41.8108 47.1109 41.7564 47.088C41.4479 46.9627 41.1735 46.7919 40.9309 46.5867C40.8878 46.5527 40.8515 46.5208 40.8151 46.4843C40.5724 46.2586 40.3683 46.0011 40.205 45.7141C40.1823 45.673 40.164 45.6321 40.1437 45.591C39.9895 45.2811 39.8806 44.9485 39.8352 44.5999C39.833 44.5839 39.824 44.5725 39.8216 44.559C38.6217 34.5919 33.8855 29.8866 29.5871 27.6466C29.8956 31.3632 33.0531 79.6523 33.0531 79.6523C33.1982 81.9035 31.4971 83.845 29.2469 83.9908C29.1584 83.9974 29.0677 83.9999 28.9793 83.9999C26.8472 83.9999 25.0529 82.341 24.9146 80.1808L23.0841 51.9439C22.7891 51.9073 22.4943 51.8528 22.1881 51.8528C21.9295 51.8528 21.6278 51.9302 21.324 52.0123L19.3482 79.9554C19.1962 82.1061 17.4043 83.7494 15.2835 83.7494C15.186 83.7494 15.0907 83.7469 14.991 83.7402C12.743 83.5805 11.0533 81.628 11.2097 79.3764L13.7184 43.8935C13.7297 43.7407 13.7684 43.5993 13.7933 43.4537C14.0178 38.2285 14.2651 33.1108 14.4307 29.8204C12.8702 32.7645 12.0331 37.1348 11.2211 42.9933C10.8492 45.6548 10.468 48.4097 9.88043 50.8637C9.53802 52.3085 8.24726 53.2813 6.82514 53.2813C6.58238 53.2813 6.33521 53.2517 6.08793 53.1923C4.40037 52.789 3.35699 51.0891 3.76292 49.3939C4.27784 47.2381 4.62266 44.7545 4.98774 42.1248C5.23271 40.3565 5.47778 38.5883 5.79299 36.8315C6.32828 33.8305 7.0406 30.8226 8.30175 28.0359C9.47891 25.4267 11.3367 22.8132 13.589 21.0199C14.1788 20.555 14.8457 20.186 15.533 19.8828C17.3271 19.0967 19.3028 18.7458 21.249 18.6798L18.3727 42.82L22.1607 46.7073L25.4701 42.82L23.1792 18.7028C24.7012 18.8076 26.2209 19.0878 27.6635 19.5891C32.132 21.1431 36.639 24.1441 39.7193 27.8082C41.1528 29.5149 42.305 31.4039 43.2304 33.4045C44.0403 31.627 44.9342 29.8908 46.0386 28.2777C48.8808 24.1282 53.0908 20.742 57.9697 19.3339C59.3238 18.9443 60.737 18.7506 62.1433 18.7004L59.2717 42.8198L63.0597 46.707L66.3691 42.8198L64.0783 18.7048C67.6986 18.9533 70.3432 20.1814 73.0673 22.5603C73.8953 23.2828 74.6574 24.078 75.3606 24.921C77.005 26.8921 78.3366 29.1138 79.4753 31.4106C82.6851 37.887 76.0434 48.5192 72.1717 52.1627ZM71.5477 42.6244C73.3715 39.3659 74.5918 35.7314 73.841 34.2139C72.7138 31.9419 71.6293 30.2468 70.5952 28.973C70.8742 32.3887 71.3027 37.9532 71.5477 42.6244Z" fill="#0290F1"/>
</svg>
