<svg width="84" height="84" viewBox="0 0 84 84" fill="none" xmlns="http://www.w3.org/2000/svg">
<path d="M13.1943 8.89812C13.1943 3.98076 17.1681 0 22.0789 0C26.9897 0 30.9638 3.98076 30.9638 8.89812C30.9638 13.8155 26.9897 17.7984 22.0789 17.7984C17.1681 17.7984 13.1943 13.8155 13.1943 8.89812ZM62.9781 17.7984C67.8889 17.7984 71.863 13.8155 71.863 8.89812C71.863 3.98076 67.8889 0 62.9781 0C58.0673 0 54.0933 3.98076 54.0933 8.89812C54.0933 13.8155 58.0672 17.7984 62.9781 17.7984ZM72.1716 52.1627L73.9521 79.6524C74.0975 81.9036 72.3962 83.8452 70.1459 83.9909C70.0575 83.9975 69.9665 84 69.8781 84C67.7461 84 65.9518 82.3411 65.8135 80.1809L63.9853 51.944C63.6858 51.9075 63.3931 51.8529 63.0871 51.8529C62.8239 51.8529 62.5246 51.9303 62.2229 52.0124L60.2471 79.9554C60.0928 82.1061 58.3032 83.7494 56.1824 83.7494C56.0845 83.7494 55.9874 83.7469 55.8874 83.7402C53.6417 83.5805 51.952 81.628 52.1086 79.3764L54.6172 43.8935C54.6264 43.7407 54.6649 43.5993 54.6921 43.4513C54.9802 36.711 55.3114 30.1234 55.4474 27.4484C51.9541 29.8545 48.3591 34.8061 46.0069 44.8981C46.0024 44.9141 45.9933 44.9278 45.9888 44.9439C45.9117 45.2515 45.7868 45.5387 45.6235 45.8075C45.5916 45.8599 45.56 45.9103 45.5236 45.9602C45.3557 46.2085 45.1561 46.4317 44.9225 46.6209C44.8816 46.6532 44.8386 46.6779 44.7977 46.71C44.5663 46.8808 44.3099 47.0244 44.0333 47.1291C44.0083 47.1383 43.9857 47.1519 43.9608 47.1611C43.7568 47.2318 43.5411 47.2817 43.3189 47.3094C43.1965 47.325 43.0717 47.3341 42.9492 47.3341C42.947 47.3341 42.947 47.3341 42.9447 47.3341H42.9425C42.9403 47.3341 42.9403 47.3341 42.9379 47.3341C42.9334 47.3341 42.9313 47.3319 42.9267 47.3319C42.6974 47.3296 42.464 47.3045 42.2281 47.2499C42.1215 47.2249 42.0242 47.1793 41.9219 47.1452C41.8652 47.1246 41.8107 47.1109 41.7563 47.088C41.4478 46.9627 41.1733 46.7919 40.9308 46.5867C40.8876 46.5527 40.8514 46.5208 40.815 46.4843C40.5723 46.2586 40.3682 46.0011 40.2048 45.7141C40.1821 45.673 40.1639 45.6321 40.1436 45.591C39.9894 45.2811 39.8805 44.9485 39.8351 44.5999C39.8329 44.5839 39.8239 44.5725 39.8215 44.559C38.6215 34.5919 33.8854 29.8866 29.587 27.6466C29.8955 31.3632 33.053 79.6523 33.053 79.6523C33.1981 81.9035 31.497 83.845 29.2468 83.9908C29.1583 83.9974 29.0676 83.9999 28.9792 83.9999C26.847 83.9999 25.0528 82.341 24.9145 80.1808L23.0839 51.9439C22.789 51.9073 22.4942 51.8528 22.188 51.8528C21.9294 51.8528 21.6277 51.9302 21.3238 52.0123L19.348 79.9554C19.1961 82.1061 17.4042 83.7494 15.2834 83.7494C15.1858 83.7494 15.0906 83.7469 14.9909 83.7402C12.7429 83.5805 11.0532 81.628 11.2096 79.3764L13.7183 43.8935C13.7296 43.7407 13.7682 43.5993 13.7931 43.4537C14.0177 38.2285 14.265 33.1108 14.4306 29.8204C12.8701 32.7645 12.033 37.1348 11.2209 42.9933C10.849 45.6548 10.4679 48.4097 9.8803 50.8637C9.5379 52.3085 8.24713 53.2813 6.82501 53.2813C6.58225 53.2813 6.33508 53.2517 6.08781 53.1923C4.40025 52.789 3.35686 51.0891 3.76279 49.3939C4.27771 47.2381 4.62253 44.7545 4.98762 42.1248C5.23258 40.3565 5.47765 38.5883 5.79286 36.8315C6.32815 33.8305 7.04047 30.8226 8.30163 28.0359C9.47878 25.4267 11.3365 22.8132 13.5889 21.0199C14.1787 20.555 14.8455 20.186 15.5329 19.8828C17.327 19.0967 19.3027 18.7458 21.2489 18.6798L18.3726 42.82L22.1606 46.7073L25.47 42.82L23.1791 18.7028C24.7011 18.8076 26.2208 19.0878 27.6634 19.5891C32.1319 21.1431 36.6389 24.1441 39.7192 27.8082C41.1527 29.5149 42.3048 31.4039 43.2303 33.4045C44.0402 31.627 44.934 29.8908 46.0385 28.2777C48.8807 24.1282 53.0906 20.742 57.9696 19.3339C59.3236 18.9443 60.7368 18.7506 62.1432 18.7004L59.2716 42.8198L63.0595 46.707L66.3689 42.8198L64.0781 18.7048C67.6984 18.9533 70.3431 20.1814 73.0672 22.5603C73.8952 23.2828 74.6573 24.078 75.3605 24.921C77.0049 26.8921 78.3365 29.1138 79.4751 31.4106C82.685 37.887 76.0433 48.5192 72.1716 52.1627ZM71.5475 42.6244C73.3714 39.3659 74.5917 35.7314 73.8408 34.2139C72.7137 31.9419 71.6292 30.2468 70.5951 28.973C70.8741 32.3887 71.3026 37.9532 71.5475 42.6244Z" fill="#E3B002"/>
</svg>
